<?xml version="1.0" encoding="UTF-8"?>
<svg id="Layer_1" data-name="Layer 1" xmlns="http://www.w3.org/2000/svg" viewBox="0 0 1073 214.05">
  <defs>
    <style>
      .cls-1 {
        fill: #283134;
      }

      .cls-2 {
        fill: #b14638;
      }
    </style>
  </defs>
  <path class="cls-2" d="M1073,147.13c-1.73,2.04-1.58,5.55-2.46,8.04-7.56,21.36-35.18,22.36-53.83,17.76-2.47-.61-14.59-5.09-14.6-7.28,0-1.23,5.09-8.92,6.12-10.8.52-.95.69-2.61.78-2.72.51-.57,5.46,2.86,6.98,3.52,7.98,3.46,25.06,6.12,32.02-.01,1.85-1.63,4.65-7.52,4.98-10.02,1.38-10.44-1.01-5.08-6.29-2.29-14.42,7.62-36.51,1.72-44.54-12.85-14.33-26.02,9.05-54.69,37.31-48.31,5.57,1.26,10.39,4.22,14.53,7.97.26-1.46-.36-7.65,0-8,.67-.67,16.31.5,19,0v65ZM1034.74,97.28c-2.91.45-6.64,1.4-9.1,2.99-10.3,6.63-10.22,21.09,0,27.72,4.77,3.09,14.27,3.03,19.32.59,10.51-5.07,11.58-20.44,2.56-27.48-1.13-.88-3.89-2.52-5.18-2.82-1.07-.25-6.88-1.12-7.6-1.01Z"/>
  <path class="cls-1" d="M0,148.13L38.46,63.09c.53-.79,1.14-.88,2.01-.99,3.4-.46,13.67-.46,17.06,0,2.45.34,4.85,6.53,5.99,9.01,7.27,15.86,13.85,32.1,20.97,48.03,3.92,8.77,9.94,19.12,13.08,27.92.38,1.07.61,1.91.44,3.06h-20.5c-1.8,0-6.07-17.24-9.1-18.9H29.6c-3.26,2.14-6.63,17.11-8.55,18.46-2.32,1.63-17.08-.3-21.06.44v-2ZM36,115.13c.92.92,22.53-.69,26,0,.17-1.15-.06-2-.44-3.06-2.52-7.1-6.17-13.96-9.08-20.92-1.02-2.45-2.32-5.38-2.48-8.02-2.12-.25-1.63-.18-2.19,1.28-3.5,9.21-8.15,18.59-11.37,27.66-.28.8-.79,2.72-.44,3.06Z"/>
  <path class="cls-1" d="M512.95,59.18c.57.56-.44,9.48.07,9.92.7.6,6.82.69,8.03,1.47.79.51,1.8,3,1.95,4.05-1.54,22.23,2.05,47.14.04,69.04-.71,7.79-5.69,4.99-11.52,5.48-19.54,1.62-39.81,3.95-57.5,13.5-.86.46-1.41,1.63-2.71,2.29-8.06,4.08-13.44-2.24-20.3-5.33-13.03-5.88-31.34-9.59-45.47-10.53-3.63-.24-14.35,1.49-16.07-1.93l-.51-74.55c-.15-4.15,9.61-3.07,10.03-3.47.39-.38-2.89-8.65-.04-10.54,1.26-.84,9.39-.63,11.58-.5,15.39.88,35.6,4.71,48.82,13.18,2.39,1.53,3.87,4.52,7.03,4.81,2.96-2.55,6.5-5.28,9.91-7.14,12.41-6.78,29.35-9.99,43.21-10.79,2.63-.15,11.97-.41,13.43,1.03ZM443,151.13v-68.5c0-.9-3.47-4.66-4.48-5.52-10.15-8.65-33.93-13.14-46.97-14.03-1.17-.08-8.54-.38-8.54.04v72c15.34.56,31.79,3.65,46.02,9.48,1.91.78,13.32,7.23,13.98,6.52ZM448,151.13c4.3-.28,7.87-3.67,11.98-5.52,8.56-3.85,25.29-8.64,34.54-9.46,3.8-.34,12.96,1.64,13.51-2.49.93-6.96-.31-16.65-.07-24.07.06-1.77,1.04-3.15,1.09-4.91.31-13.01-.35-26.06-.01-39.07-.3-3.47-6.52-2.73-9.57-2.51-13.33.95-31.11,4.29-42.8,11.2-2.02,1.19-8.66,6.18-8.66,8.34v68.5Z"/>
  <path class="cls-1" d="M261,57.13v93h-19c-.35,0,.38-6.53,0-7-.28-.35-5.8,4.5-7.28,5.21-6.62,3.19-16.01,3.42-23,1.57-18.92-4.99-27.73-24.79-23.52-43.1,5.43-23.65,33.71-33.01,52.81-18.69v-31h20ZM223.74,97.28c-1.35.13-5.16,1.06-6.45,1.63-14.17,6.32-13.47,30.11,1.43,35,16.08,5.28,27.75-11.25,21.83-25.83-1.43-3.51-5.88-8.3-9.49-9.51-1.33-.45-6.06-1.41-7.32-1.29Z"/>
  <path class="cls-1" d="M174,57.13v93h-17.5c-2.28,0-1.15-6.57-1.5-7-.28-.35-5.8,4.5-7.28,5.21-14.12,6.81-32.02.89-41.17-11.26-8.16-10.82-7.76-32.56.93-42.98,12.23-14.65,32.62-17.4,47.52-4.98v-32h19ZM132.7,98.32c-15.62,4.05-16.33,29.4-1.74,35.34,10.16,4.14,22-2.36,23.85-13.23,2.45-14.39-7.39-25.32-22.11-22.11Z"/>
  <path class="cls-2" d="M985,150.13h-19c-.68-11.23.89-23.43.04-34.54-.14-1.82-.82-6.02-1.24-7.76-.87-3.61-3.8-7.47-7.49-8.51s-7.93-1.05-11.64,0c-2.12.6-5.37,3.51-6.7,5.3-.68.92-2.98,5.45-2.98,6.02v39.5h-20v-68h19c.4,0-.29,6.89,0,8,1.69-.55,2.61-2.5,4.02-3.47,13.12-9.06,35.99-6.59,43.19,8.76.48,1.03,2.79,7.78,2.79,8.21v46.5Z"/>
  <path class="cls-1" d="M433,187.13l4.71,1.79c7.81,2.03,15.11.96,22.81.23,5.29-.5,10.22,1.11,13.95-4.05,4.41-6.08,4.67-5.27,10.48-9.52,2.99-2.18,12.74-10.3,15.57-10.5s6.57,2.08,5.37,5.44c-6.76,5.84-13.46,15.4-20.38,20.62-5.48,4.14-22.34,11.89-29.23,14.77-1.78.74-5.1,2.3-6.8,2.28l-38.02-10.05c-3-1.15-8.45,1.99-10.53.53-.91-.64-3.74-5.64-4.93-7.07-2.04-2.48-10.56-10.75-10.97-13.07-.26-1.47.78-1.59,1.6-2.26,9.79-7.95,20.01-11.81,32.83-10.13,9.58,1.25,18.7,9.17,29.97,10.03,5.35.41,13.03-.97,17.88.12.44.1,4.42,1.73,4.6,1.91.33.32.24,5.06-.38,5.98-1.77,2.61-6.53,1.62-9.07,1.93-1.08.13-1.87,1.01-1.99,1.01h-27.5Z"/>
  <path class="cls-1" d="M460.5,33.13c.39-.11,1.81-1.75,1.5-2-.6-.48-7.65.68-9.52-.98-7.34.89-17.93-1.36-24.81.14-5.41,1.18-4.58,6.38-6.65,8.35-2.84,2.71-11.93,8.27-15.67,10.33-2.84,1.56-6.16,3.3-9.37,1.68-5.07-2.56,2.92-9.13,5.51-11.54,12.3-11.49,27.21-19.2,42.18-26.82,7.99-.46,15.86.96,23.82,1.85,5.7.64,13.34,2.51,19,1.96,1.06-.1,1.99-.83,3.05-.97,3.42-.46,1.92.79,3.43,2.52,3.7,4.23,12.28,12.22,14.58,16.44,1.89,3.47-.5,2.63-2.06,3.99-5.06,4.41-9.37,8.43-15.78,11.24-8.53,3.74-17.16,2.88-25.95.56-6.38-1.68-12.91-6.02-19.27-6.73-4.9-.55-18.31,1.06-19.35-5.69-.25-1.62,1.92-4.34,3.38-4.34h32Z"/>
  <path class="cls-2" d="M810,87.13c.4.31-3.99,7.82-4.52,8.98-.5,1.09-1.31,4.82-1.49,5.02-.38.42-8.9-3.36-10.71-3.79-5.39-1.3-22.29-2.89-22.34,5.3-.04,6.01,16.29,6.64,20.52,7.53,6.97,1.47,15.7,4.18,18.99,11.01,5.79,11.98-2.9,23.86-14.43,27.48-8.61,2.7-18.77,2.86-27.5,1.46-2.97-.48-15.64-3.94-17.06-5.95-.74-1.05,1.16-4.98,1.75-6.32.82-1.88,2.46-3.78,2.9-6.1,2.08-3.46,7.42,1.15,10.6,2.18,4.38,1.41,13.29,2.71,17.76,2.19,3.65-.43,8.21-1.38,8.57-5.5.23-2.66-1.79-4.12-4-5.02-4.74-1.94-10.66-1.55-15.52-2.48-7.97-1.53-17.75-5.18-20.34-13.66-1.84-6.04-.59-12.46,2.96-17.68,2.21-3.24,6.96-5.95,10.58-7.42,10.81-4.4,25.57-3.69,36.57,0,.92.31,6.43,2.57,6.71,2.79Z"/>
  <polygon class="cls-2" points="666 62.13 666 133.13 710 133.13 710 150.13 645 150.13 645 62.13 666 62.13"/>
  <path class="cls-2" d="M846,67.13v17h17v15h-17v30.5c0,.26,1.91,3.03,2.46,3.54,5.28,4.87,13.99-.67,14.54-.04.18.2.67,3.87,1.22,5.28,2.73,7.04,6.04,8.87-3.93,11.51-12.53,3.31-28.31-.3-32.84-13.74-.29-.86-1.45-5.26-1.45-5.55v-31.5c0-.5-10,.5-10,0v-15c0-.5,10,.5,10,0v-15.5c0-.11,1.39-1.5,1.5-1.5h18.5Z"/>
  <path class="cls-2" d="M898,82.13v68h-18.5c-.11,0-1.5-1.39-1.5-1.5v-65c0-.11,1.39-1.5,1.5-1.5h18.5Z"/>
  <rect class="cls-2" x="720" y="82.13" width="19" height="68"/>
  <path class="cls-1" d="M373.59,173.19c1.97-.57,3.19,1.03,4.43,2.42,5.96,6.66,14.4,16.39,19.46,23.54.4.57,1.37,2.14,1.45,2.61.37,2.15-11.09,10.69-13.56,12.29l-1.38-.38c-8.56-9.16-16-19.38-23.95-29.1l1.61-2.3,11.95-9.08Z"/>
  <path class="cls-1" d="M512.75,34.33c-2.11-2.31-4.42-5.04-6.73-7.72-3.34-3.89-7.25-7.63-10.53-11.47-1.52-1.79-2.62-3.47-.49-5.51,1.78-1.7,5.44-3.82,7.52-5.48,2.43-1.94,3.67-5.55,7.53-3.57l21.88,25.13-.39,2.46c-3.82,1.63-9.73,8.82-13.17,9.84-4.17,1.23-4.07-1.98-5.63-3.68Z"/>
  <path class="cls-2" d="M726.7,51.33c10.74-1.91,20.12,8.35,12.78,17.78-5.64,7.25-20.28,4.8-22.32-4.64-1.22-5.62,4.1-12.18,9.54-13.14Z"/>
  <path class="cls-2" d="M897.79,69.92c-.25.25-4.26,2.61-4.74,2.76-4.97,1.67-11.84.19-14.91-4.19-6.07-8.65,1.78-18.3,11.34-17.34,3.59.36,10.02,3.72,10.55,7.46.46,3.27.18,8.94-2.23,11.31Z"/>
  <path class="cls-1" d="M487.64,162.27c2.65-.77,7.35-.35,6.29,3.28-.64,2.19-14.13,9.9-16.55,12.45-2.83,1.13-6.8-2.28-4.92-4.93,4.51-1.54,11.45-9.73,15.19-10.81Z"/>
  <path class="cls-1" d="M428,43.13c.09.07.51,1.48-.63,1.99-4.37,1.95-9.82,7.14-13.99,9.88-4.18.7-11.79.3-6.34-4.34,4.42-3.76,11.13-6.44,15.56-10.5l5.4,2.96Z"/>
  <path class="cls-1" d="M459,173.13c-1.79-1.5,1.42-2.16,1.94-2.52,3.93-2.73,8.05-5.21,11.69-8.35,4.29-.76,10.36.02,5.34,4.34-1.57,1.35-7.27,5.55-8.91,6.09-1.46.48-9.63.8-10.05.45Z"/>
  <path class="cls-1" d="M440,45.13c.76.7-.78,2.37-1.48,3.02-.87.8-10.69,7.27-11.47,7.53-3.19,1.06-9.12.2-6.44-3.57,2.36-1.66,4.92-2.99,7.36-4.5.95-.58,1.57-2.04,2.64-2.36,1.01-.3,9.03-.44,9.38-.12Z"/>
  <path class="cls-1" d="M489.71,95.34c2.15-.23,11.27-1.21,8.79,2.79-1.84,2.97-4.3,1.59-6.99,2.01-6.83,1.08-15.12,2.24-21.56,4.44-2.67.91-7.55,3.99-9.6,4.41-3.88.79-4.33-2.39-.72-4.73,7.15-4.63,21.57-8.03,30.08-8.92Z"/>
  <path class="cls-1" d="M491.71,80.34c1.79-.18,9.11-.96,6.79,2.79-2.02,3.26-5.85,1.55-8.98,2.02-4.05.6-10.94,2.03-14.85,3.15-4.24,1.22-9.34,4.35-13.64,5.36-1.47.34-3.46.89-4.04-1.04-.52-1.71,1.94-2.37,2.99-3,8.66-5.21,21.86-8.29,31.72-9.28Z"/>
  <path class="cls-1" d="M483,112.13c.14.14.13,3.84-.03,3.97-.53.43-11.12,2.55-13.27,3.24-2.32.74-11.54,6.31-12.7,2.29-.77-2.65,7.79-5.59,9.71-6.28,2.56-.92,14.84-4.58,16.29-3.21Z"/>
  <path class="cls-2" d="M412,75.13v39c-3.27-.21-4.22-4.8-6.97-6.53-3.18-1.99-6.39,4.59-10.03,4.53v-38.5c0-.51.95-1.14,1.98-1.04,5.01.53,10.01,1.97,15.02,2.54Z"/>
</svg>