<?xml version="1.0" encoding="UTF-8"?>
<svg id="Layer_1" data-name="Layer 1" xmlns="http://www.w3.org/2000/svg" viewBox="0 0 627 390.59">
  <defs>
    <style>
      .cls-1 {
        fill: #252e31;
      }

      .cls-2 {
        fill: #b14537;
      }
    </style>
  </defs>
  <path class="cls-2" d="M559,390.13c-7.39-1.02-15.58-4.59-23.29-6.21l-12.71-6.8c3.53-7.03,8.11-13.76,11.01-21,16.76,12.33,58.23,19.83,63.98-7.51-.74-2.3,2.13-10.24,1.01-11.49-.88-.98-10.85,7.29-12.99,7.51-35.73,12.38-71.54-10.53-67.99-49.99,2.89-32.16,37.85-50.29,66.99-39.03,6.32,2.44,10.13,6.06,14.98,10.51.45-1.31-.6-12,0-12h27v93.5c0,.22-.75.58-.83,1.17-3.55,25.13-18.29,36.86-42.72,40.33-1.26.18-1.36,1-1.45,1.01-4.93.56-18.19.66-23,0ZM566.69,276.32c-22.82,3.9-27.38,36.01-6.99,45.61,18.52,8.71,41.27-2.34,39.34-24.34-1.43-16.32-17.34-23.83-32.35-21.27Z"/>
  <polygon class="cls-2" points="0 224.13 30 224.13 30 328.13 94 328.13 94 353.13 0 353.13 0 224.13"/>
  <path class="cls-1" d="M500,39.13v136h-27c-.55,0,.41-9.77,0-11-6.2,5.75-13.84,10.99-22.52,11.98-38.26,4.36-61.21-22.23-57.45-59.45,3.3-32.68,40.34-51.13,69.27-37.32l9.7,5.8v-46h28ZM443.72,98.34c-29.65,3.59-29.19,50.54-1,54.57,10.34,1.48,21.25-2.97,26.14-12.43,9.92-19.18-1.46-45-25.14-42.14Z"/>
  <path class="cls-1" d="M627,39.13v136l-25.41-.09c-2.82-.81-1.17-8.24-1.59-10.91-2.23,1.02-3.63,3.55-5.48,5.02-13.6,10.74-39.52,8.92-53.49-.54-31.09-21.06-27.89-75.63,7.96-89.99,12.35-4.95,27.57-5.24,39.72.32,4.31,1.97,6.82,4.1,10.3,7.2v-47h28ZM570.71,98.34c-32.91,4.67-27.82,59.36,7.77,54.77,9.31-1.2,19.45-11.19,20.49-20.51.87-7.8.35-17.19-4.11-23.84-5.07-7.55-15.22-11.69-24.15-10.42Z"/>
  <path class="cls-1" d="M389,175.13h-30.5c-.44,0-1.43-1.64-1.71-2.29l-9.84-24.67h-60.9c-1.82,7.35-5.77,14.03-8.56,20.94-.62,1.54-1.18,6.01-1.49,6.01h-31l57.56-129.04c8.4.94,18.85-1.11,26.96.02,1.42.2,2.14.93,2.95,2.05l56.52,126.98ZM337,125.13l-18.97-46.53-2.03-2.47c-5.75,15.36-12.23,30.6-18.85,45.66l-.16,3.34h40Z"/>
  <path class="cls-2" d="M498,353.13h-28v-57.5c0-.29-1.16-4.69-1.45-5.55-6.47-19.2-35.04-15.98-41.1,2-.29.86-1.45,5.26-1.45,5.55v55.5h-29v-99h28c.55,0-.41,9.77,0,11,6.41-6.4,13.8-9.98,22.71-11.79,20.95-4.27,43.76,5.54,49.08,27.5.25,1.03,1.21,4.54,1.21,4.79v67.5Z"/>
  <path class="cls-2" d="M232,281.13c-.55.63-5.32-2.27-6.71-2.79-7.36-2.69-18.07-4.9-25.83-4.26-5.03.42-10.96,1.8-13.93,6.07-4.81,6.9,4.69,10.42,10.18,11.77,14.77,3.64,34.01,1.99,44.31,15.69,7.37,9.8,4.83,27.61-4.5,35.54-17.08,14.5-50.83,13.31-70.8,5.76-1.59-.6-8.64-3.89-9.26-4.75-.97-1.35-.06-1.66.37-2.7,2.58-6.23,6.08-11.91,8.17-18.33,3.05,1.31,5.91,3.26,8.98,4.52,11.33,4.62,23.46,6.14,35.5,4.47,7.69-1.06,12.5-9.85,4.23-14.2-5.52-2.9-14.17-2.65-20.2-3.8-14.98-2.87-32.8-6.81-35.31-24.69-2-14.24,5.94-26.2,18.77-31.8,14.79-6.46,30.76-6.24,46.3-3.28,2.72.52,18.69,5.22,18.69,7.28-2.78,5.83-5.84,11.62-8.52,17.49-.35.78-.39,1.94-.46,2.02Z"/>
  <path class="cls-2" d="M294,232.13v24h25c-.83,2.08,1.1,22,0,22h-25l-.04,41.54c.58,3.83,2.1,8.34,5.68,10.32,1.19.66,5.74,2.13,6.87,2.12.96,0,1.95-.8,3.03-.97,1.25-.19,2.57.18,3.83-.17,1.04-.29,4.64-3.97,5.64-2.86.08.09-.03,1.47.2,2.28,1.8,6.26,5.36,12.32,5.76,18.68-13.99,6.88-31.45,7.15-45.33-.1-21.89-14.57-11.09-45.93-13.61-68.39.16-.83-1.11-2.47-1.53-2.47h-14.5v-20.5c0-.11,1.39-1.5,1.5-1.5h14.5v-24h28Z"/>
  <path class="cls-1" d="M170,65.13c.65.66,8.26-1.91,9.02,3.48v68.05c.05,1.33-.68,1.73-1.64,2.35-3.59,2.31-13.91.74-18.86,1.14-11.96.97-31.95,5.65-42.51,11.49-1.43.79-2.35,2.81-4.68,3.32-1.79.39-5,.37-6.88.21-3.16-.28-5.02-2.79-7.76-4.24-9.14-4.83-27.88-9.86-38.21-10.79-4.7-.42-19.73,1.42-22.03-1.97-1.3-17.35.18-35.13-.41-52.59-.17-4.96-1.84-10.36-1.04-15.96,1.04-7.24,8.04-3.54,9-4.5.82-.83-1.58-10.01,1.58-10.92,1.6-.46,6.93-.26,8.96-.13,13.81.91,31.18,3.83,43.42,10.58,1.82,1.01,8.63,6.6,9.44,6.41.87-.2,6.52-4.81,8.26-5.8,13.28-7.56,28.74-10.2,43.8-11.2,2.03-.13,7.36-.33,8.96.13,3.16.9.76,10.09,1.58,10.92ZM105,142.13v-64.5c0-1.3-5.18-6.39-6.64-7.36-9.36-6.24-26.86-10.34-37.88-11.12-4.12-.29-8.36.16-12.48-.02v66.5c0,2.42,10.06,1.25,12.48,1.52,14.69,1.69,28.97,7.39,41.86,14.14.67.35,2.14,1.38,2.67.83ZM166,59.13c-3.47.19-7.07-.24-10.54-.04-11.46.66-30.11,4.67-39.82,11.18-1.46.98-6.64,6.06-6.64,7.36v64.5c1.33.31,1.73-.34,2.67-.83,12.76-6.69,28.41-12.68,42.86-14.14,1.73-.18,11.48.55,11.48-.02V59.13Z"/>
  <path class="cls-2" d="M138,254.13v97.5c0,.11-1.39,1.5-1.5,1.5h-27.5v-99h29Z"/>
  <path class="cls-2" d="M371,254.13v97.5c0,.11-1.39,1.5-1.5,1.5h-27.5v-99h29Z"/>
  <path class="cls-1" d="M96,175.13c.46,2.04,1.91,1.8,3.47,2.03,8.86,1.31,15.22,1.09,24.05-.01,6.56-.82,9.8.27,12.46-7.54l20.02-13.98c6.8-2.14,9.2,1.43,5.02,7.02-2.32,3.1-13.98,14.77-17.05,16.95-4.28,3.04-14.11,7.36-19.27,9.73-4.62,2.12-9.49,4.29-14.2,5.88l-34.02-9.05c-3.4-.08-6.71-.41-9.88.93l-15.12-17.92c-2.1-3.31,6.44-8.44,9.18-9.89,9.14-4.82,17.87-5.35,27.64-1.92,6.12,2.15,13.63,7.02,20.24,7.76,5.4.6,20.45-1.97,23,2.99,2.75,5.34-3.43,5.62-6.84,6.22-.62.11-.99.81-1.19.81h-27.5Z"/>
  <path class="cls-1" d="M164.93,35.05c-.24.21-1.26.09-1.88.58-15.49,12.57-23.28,15.76-43.34,9.28-3.32-1.07-8.33-3.95-11.37-4.63-4.13-.92-18.6,1.02-20.28-4.74s10.21-5.67,13.48-5.46c6.55.43,11.14,2.11,18.18.24,1.8-.48,2.7.54,2.27-2.2-6.15-.25-12.4.32-18.54.04-1.6-.07-2.74-.91-3.98-1.02-2.46-.22-10.71.62-12.31,2.16-1.32,1.27-1.97,5.25-3.63,6.86-2.68,2.6-12.25,8.41-15.82,10.18-.96.47-4.32,1.77-5.06,1.65-2.86-.46-4.77-2.7-2.68-5.39s6.84-7.1,9.5-9.49c5.7-5.12,11.5-8.98,18.17-12.83,3.05-1.76,15.45-8.82,17.85-9.15,5.01-.69,12.78.43,17.98,1.02,5.89.66,13.15,2.77,19,3.05,2.53.12,4.85-1.6,6.9-.97,2.2.67,5.99,6.6,7.6,8.42s10.54,10.2,7.95,12.41Z"/>
  <path class="cls-2" d="M342.21,213.33c.39-.38,4.33-3.03,5.07-3.43,8.72-4.64,24.27-.56,26.55,9.88,4.28,19.6-22.55,28.06-33.31,12.31-1.95-2.86-2.12-9.94-1.36-13.31.13-.57,2.7-5.11,3.05-5.45Z"/>
  <path class="cls-2" d="M118.69,208.32c12.03-2.04,24.04,4.98,22.29,18.29-1.53,11.65-16.18,16.61-26,12.04-14.41-6.71-10.94-27.84,3.71-30.33Z"/>
  <path class="cls-1" d="M27.03,171.17c.16-.13,1.45-.21,2.48-1.01,2.19-1.69,4.24-3.01,6.44-4.58,1.88-1.34,2.85-4.06,5.46-3.4l19.04,22.98c.75,1.91,3.09,3.22,2.48,5.37-3.75,2.44-9.81,10.89-14.36,9.52l-21.11-25.9c-.6-.62-.68-2.79-.44-2.99Z"/>
  <path class="cls-1" d="M167.91.22c.23.26.26,1.53,1.04,2.43,4.9,5.63,10.99,11.11,15.54,16.46,1,1.17,4.58,6.06,3.48,6.98-.15.13-1.45.22-2.48,1.01-3.76,2.89-7.42,5.96-11.05,9.01-2.27.65-9.67-10.41-11.42-12.5-1.47-1.75-3.58-3.21-5.04-4.96-.76-.91-4.77-5.75-4.88-6.12-1.49-4.96,7.55-8.16,9.87-11.92.97-.61,4.58-.79,4.93-.38Z"/>
  <path class="cls-1" d="M146.66,152.29c1.72-.67,7.11-.35,6.34,2.33-.42,1.46-14.21,9.53-15.97,12.04-1.49,2.07-6.03-2.47-6.03-3.03,0-.97,13.58-10.13,15.66-11.34Z"/>
  <path class="cls-1" d="M90,40.13c.41,1.84-.58,1.96-1.66,2.84-3.98,3.29-10.72,8.57-15.87,8.18-4.5-.34-4.31-1.82-1.16-4.22,4.2-3.2,9.07-5.59,13.35-8.71,2.25-.76,3.07,2.09,5.35,1.9Z"/>
  <path class="cls-1" d="M120,162.12c-.59-2.46.52-1.58,1.31-2.17,2.28-1.68,9.27-7.09,11.33-7.69,1.61-.47,5.76-.51,6.36,1.36.43,1.34-3.34,3.6-4.49,4.5-1.43,1.12-5.17,4.15-6.5,4.57-1.9.61-5.53-1.41-8.01-.58Z"/>
  <path class="cls-1" d="M102,42.13c.56,2.29-1.5,2.31-3.08,3.42-2.66,1.88-9.5,6.89-12.4,6.63-3.24-.29-4.83-1.51-2.05-4.07,1.51-1.39,6.65-5.01,8.47-5.53,3-.84,6.02-.34,9.05-.45Z"/>
  <path class="cls-1" d="M145.72,75.34c2.31-.28,12.37-1.28,11.28,2.28-.12.38-1.11,1.18-1.63,1.37-11.68,1.8-23.46,3.34-34.01,9-4.46.16-4.14-2.74-.74-4.74,5.36-3.16,18.87-7.16,25.09-7.91Z"/>
  <path class="cls-1" d="M118,98.14c3.9-.73,7.05-3.53,10.71-4.8,5.17-1.79,19.66-4.66,24.82-4.24,4.07.33,5.02,2.98.97,4.02-6.45,1.66-13.3,1.63-19.75,3.25-4.79,1.2-9.87,3.53-14.32,5.69l-2.42-3.92Z"/>
  <path class="cls-1" d="M142,105.13c.34.33.14,2.88-.97,3.53-1.47.87-5.89,1.27-8.06,1.94-2.46.77-13.77,5.69-14.97,4.53-2.27-2.2,3.59-4.89,4.98-5.52,2.94-1.34,17.12-6.33,19.02-4.48Z"/>
  <path class="cls-2" d="M76,106.13c-3.33.21-5.8-6.08-8.5-6.06-2.08.02-4.92,4.28-7.5,4.06v-36c2.48-.27,16,1.45,16,3.5v34.5Z"/>
</svg>