<?xml version="1.0" encoding="UTF-8"?>
<svg id="Layer_1" data-name="Layer 1" xmlns="http://www.w3.org/2000/svg" viewBox="0 0 425.25 531.67">
  <defs>
    <style>
      .cls-1 {
        fill: #262f32;
      }

      .cls-2 {
        fill: #94321f;
      }
    </style>
  </defs>
  <path class="cls-1" d="M394.61,173.33c.4.09,4.62,2.55,5,3,1.16,1.36,2.37,4.66,2.54,6.46l-.2,179.88c-3.66,11.61-15.87,8.15-25.38,8.62-43.18,2.15-86.2,7.53-126.47,24.53-7.77,3.28-13.18,6.59-20.03,10.97s-10.27,5.86-18.41,6.58-14.14-3.32-20.5-7.58c-26.22-17.56-71.98-28.45-103.56-32.44-18.1-2.28-38.94-.07-56.01-2.99-4.86-.83-8-.43-9.47-6.53-.49-14.98.63-30.08.04-45.04-1.77-45.03-.81-91.36-1.08-137,.09-1.33,1.55-5.64,2.2-6.3.17-.17,4.1-2.16,4.34-2.16h16c2.99,0,.54-6.94.46-8.46-.22-4.24-.53-12.14.02-16.07.35-2.51,2.25-3.33,4.48-3.52,10.34-.85,26.54-.6,37.02.06,31.75,2.01,72.51,11.82,100.88,27.12,8.18,4.41,15.66,10.24,22.61,16.39,3.74,1.93,4.36-.99,6.51-2.55,38.07-27.43,81.61-38.96,127.98-41.02,7.7-.34,21.86-.93,29.04.04,7.26.99,5.84,9.66,5.54,15.54-.09,1.84-2.83,12.46.46,12.46,4.15,0,12.6-.76,16,0ZM56.16,157.38l.41,178.99c.53.75,1.15.88,2.01.99,5.1.67,11.7-.35,17.07-.07,36.81,1.92,76.44,15.5,110.17,29.83l17.78,10.22,1.54-2.47c.62-56.82-1.03-113.31-1.03-170.03-1.02-7.34-15.08-17.15-21.3-20.7-29.43-16.78-69.79-24.98-103.15-26.85-3.02-.17-22.67-.75-23.49.09ZM367.11,335.83v-177c0-.61-1.59-1.41-2.47-1.53-6.91-.95-15.84.74-23.01.05-34.2,2.78-71.07,9.51-101.48,26.52-4.25,2.38-14.61,9.03-17.55,12.45-.55.63-3.65,6.02-4.03,6.97-.74,1.82-.97,4.5-1.5,6.5v163.09c.46,2.57.52,5.42,3.44,4.36,4.07-2.95,8.48-5.74,12.9-8.1,33.34-17.75,81.53-29.71,119.15-31.85,3.81-.22,8.48.57,12.07.07.92-.13,2.26-.75,2.47-1.53Z"/>
  <path class="cls-1" d="M274.96,443.49c.28.28,3.16,6.78,3.2,7.37.16,2.09-3.36,7.93-5.05,8.98-1.52.95-8.74,3.01-10.71,3.29-22.88,3.2-48.75,2.01-71.83,1.17-2.43,1.39-9.38.15-10.45,2.55-.75,1.66,2.52,2.38,3.5,2.5,14.13,1.75,28.66,4.71,42.98,3.98,4.64-.24,9.39-.9,13.98-1.03,9.98-.26,22.27-.1,31.83-3.17,6.3-2.02,10.67-6.79,13.25-12.75.49-1.13.28-2.38.63-3.37.61-1.76,22.15-15.63,25.79-18.21,9.01-6.39,17.84-13.71,27.07-19.93,5.4-3.64,19.06-4.76,20.81,3.14s-4.46,10.94-8.85,15.81c-10.61,11.78-23.37,25.87-35.96,37.04-8.94,7.93-18.72,12.38-29.32,17.68-14.78,7.39-30.04,14.11-45,21-5.92,2.73-12.35,7.27-19.16,7.83-4.73.39-16.64-2.84-21.84-4.25-22.71-6.15-48.24-15.93-71.23-19.77-6.43-1.07-11.38-1-17.77.19-4.92.91-6.66,3.81-10.73-.69-4.74-5.25-9.32-12.46-13.96-18.04-6.66-7.99-13.45-15.84-20-24-3.04-3.79-7.92-5.72-2.54-10.5,2.69-2.38,8.36-6.25,11.54-8.46,9.43-6.54,19.72-12.71,30.95-16.05,20.67-6.13,42.2-2.87,62.04,5.01,10.91,4.33,22.82,11.66,33.95,15.05,7.99,2.44,15.42,1.07,23.58,1.42,1.77.07,3.14,1,4.91,1.09,10.84.51,23.38-.39,34.03.97,1.34.17,9.72,3.5,10.36,4.14Z"/>
  <path class="cls-1" d="M329.9,43.54c10.58,11.7,22.03,25.9,32.2,38.31,1.27,1.55,5.44,4.69,4.96,6.87-.44,2.01-6.98,5.34-8.73,6.87-4.4,3.84-9.65,9.11-15.26,13.19-33.95,24.7-64.81,23.15-103,9.09-7.76-2.86-15.52-7.36-23.67-9.33-14.44-3.49-31.27-.51-45.31-5.69-4.39-1.62-8.71-3.27-9.82-8.17-.93-4.13,1.65-9.62,5.51-11.17,6.61-2.66,17.68-2.5,24.87-2.21,10.79.42,22.13,1.56,32.91,2.09,6.33.31,17.95-.15,23.82-2.26,1.06-.38,3.41-1.3,3.72-2.28,1.13-3.58-8.52-2.34-10.48-2.52-14.43-1.28-29.44-2.65-43.98-3.02-15.61-.4-40.93-2.89-45.35,16.74-.89,3.95.99,2.62-2.12,4.83-7.3,5.18-14.54,10.11-22.05,15s-15.67,10.97-24.32,14.68c-5.02,2.16-9.65,4.33-15.01,1.61-12.2-6.18,1.94-18.44,7.79-23.83,9.83-9.06,20.46-17.55,30.48-25.52,21.27-16.92,45.85-28.75,69.76-41.24,5.43-2.84,9.92-6.61,16.8-6.28,16.55.77,35.27,4.06,51.97,6.09,12.83,1.55,35.96,6.66,48.02,4.98,2.63-.37,5.99-3.29,9-3.07,2.64.19,4,3.88,5.55,5.56.35.38,1.38.31,1.74.71Z"/>
  <path class="cls-1" d="M84.37,489.12c1.14,1.41,2.84,3.36,4.29,5.16,1.7,2.11,5.96,5.17,6.32,7.7.04.27-.88,4.03-1.01,4.2-.17.22-1.58.4-2.37,1.1-6.97,6.06-13.87,12.09-21,18.03-4.11,3.43-6.22,7.81-12.86,5.89-.51-.15-5.68-6.19-6.64-7.36-14.93-18.04-30.02-36.11-44.44-54.56-.98-1.25-6.27-8.06-6.43-8.57-.31-1.04-.31-2.73,0-3.77.93-3.13,17.13-13.38,20.84-16.16,4.41-3.3,10.51-11.07,16.42-9.33,2.78.82,9.07,12.44,12.64,14.35,11.66,14.37,22.71,29.06,34.24,43.32Z"/>
  <path class="cls-1" d="M412.91,48.53c.41.41.5,1.56,1.16,2.31,3.42,3.86,7.15,7.58,10.57,11.46.71,1.39.78,3.94.35,5.4-.26.88-6.93,6.48-8.35,7.64-6.14,5.04-12.6,8.92-18.48,13.52-2.9,2.27-6.31,7.28-10.39,6.32-.45-.11-4.29-1.88-4.47-2.05-.38-.36-.44-1.58-1.14-2.33-13.12-14.08-25.53-30.21-38.03-45-2.61-3.09-12.19-12.11-12.88-15.13-.39-1.74.87-5.05,2.04-6.16.56-.54,2.61-.8,3.8-1.71,6.17-4.66,13.51-11.27,19.54-16.46,3.91-3.37,5.36-7.79,11.86-5.89.95.28,7.34,6.95,8.64,8.35,12.22,13.07,23.2,27.18,35.78,39.72Z"/>
  <path class="cls-1" d="M275.12,436.32c-.92-.8.54-3.12,1.47-4.02,3.24-3.1,8.76-5.79,12.48-8.52,7.25-5.33,18.34-15.46,26.34-18.66,5.24-2.09,9.03-3.02,14.06.34,2.25,1.5,3.63,3.09,2.17,5.89-.2.38-5.53,4.66-6.55,5.44-9.92,7.59-20.67,14.78-30.93,22.07-2.34,1.66-6.87,6.99-10.07,4.99-2.25-1.41-3.47-4.73-4.97-6.04-1.17-1.03-3.8-1.32-4.01-1.5Z"/>
  <path class="cls-1" d="M167.09,108.37c.11.09.11,2.83,0,2.93-.14.11-2.29.59-3.34,1.18-3.72,2.11-8.93,5.85-12.6,8.4-7.19,5-17.99,15.29-26.56,16.44-4.07.54-13.6-.76-14.36-5.65-.6-3.85,7.35-6.23,9.86-7.85,8.34-5.35,16.89-11.37,24.99-17.01,2.44-1.7,7.57-7.21,10.4-6.4,1.29.37,4.04,4.25,5.65,5.4s5.49,2.17,5.95,2.56Z"/>
  <path class="cls-1" d="M243.11,431.33c-.89-.82.98-2.37,1.5-3,3.51-4.22,12.74-8.29,17.47-11.53,5.4-3.69,12.12-10.27,18.04-12.96,3.35-1.52,6.64-1.31,10.02-.05,2.91,1.08,7.99,3.96,5.51,7.59l-13.53,8.47c-2.08,1.29-13.6,11.48-14.52,11.48-3.5,0-23.6.83-24.5,0Z"/>
  <path class="cls-1" d="M198.11,113.33c.98.9-2.16,3.86-3.02,4.47-6.54,4.68-15.08,9.53-22.02,13.98s-13.71,9.93-21.95,5.04c-4.93-2.93-2.99-5.52.47-8.51,4.18-3.61,11.67-7.13,16.49-10.51,1.78-1.25,4.57-4.73,6.67-5.33,3.67-1.06,6.7.73,9.81.9,2.25.12,13.04-.5,13.54-.04Z"/>
  <path class="cls-1" d="M329.83,199.54c4.33-.32,14.5-1.05,13.18,6.11-1.23,6.66-9.66,5.24-14.37,5.7-21.03,2.04-42.64,7.04-62.54,14.46-6.52,2.43-13.06,6.07-19.7,8.38-6.69,0-7.22-6.76-2.26-10.34,4.08-2.95,14.64-7.3,19.69-9.31,19.72-7.84,45.03-13.47,66-15Z"/>
  <path class="cls-1" d="M341,247.21c-.18.14-3.82,1.03-4.4,1.1-31.56,3.73-55.76,6.89-85.2,19.8-1.13.5-2.03,1.82-2.92,2.08-.98.28-6.09.32-6.31.09-.86-.88-1.35-5.87-.92-7.33.45-1.56,9.45-6.41,11.58-7.42,24.23-11.56,54.27-16.48,80.82-19.18,4.51-.46,8.87.49,9.33,5.65.05.52-1.75,5.03-1.97,5.21Z"/>
  <path class="cls-1" d="M302.97,288.19c-9.56,2.66-19.41,4.59-28.89,7.61-5.38,1.72-11.82,3.95-17.01,5.99-4.4,1.73-14.88,9.42-16.82.88-.6-2.63.36-3.79,2.34-5.36,4.96-3.96,18.89-9.62,25.23-11.77,5.98-2.02,14.9-4.69,20.99-6.01,8.55-1.84,18.53-3.74,14.15,8.65Z"/>
  <path class="cls-2" d="M86.11,182.83c.02-.13.94-2.37,1.04-2.46.95-.99,9.47,1.6,11.5,1.93,8.61,1.4,17.26,2.17,25.77,4.24.54.13,2.53.77,2.63.87.22.24,1.17,5.81,1.16,6.42-.03,2.57-.11,4.31-.04,6.96.72,27.47-.64,55.07-.05,82.54l-4.55-.95c-2.84-4.11-6.26-7.75-9.5-11.53-1.34-1.56-2.61-3.43-3.91-5.04-3.63-4.5-11.18,4.93-14.53,7.54-1.23.96-6.21,4.78-7.09,4.93-1.02.17-2.43-1.06-2.43-1.44v-94Z"/>
</svg>