<?xml version="1.0" encoding="UTF-8"?>
<svg id="Layer_1" data-name="Layer 1" xmlns="http://www.w3.org/2000/svg" viewBox="0 0 316.39 221.21">
  <defs>
    <style>
      .cls-1 {
        fill: #e5d1b5;
      }

      .cls-2 {
        fill: #a5311e;
      }
    </style>
  </defs>
  <path class="cls-1" d="M17.03,3.66c.1-.48,1.89-3.24,2.57-3.43,7.3.07,14.65-.33,21.95-.09,37.73,1.26,80.52,10.28,111.47,33.53,1.74,1.31,5.13,6.15,7.55,2.5,2.04-3.08,1.75-1.6,4.46-3.51,16.22-11.44,29.07-18.62,48.35-23.65C230.38,4.56,248.84.92,266.51.14c9.6-.42,19.32.28,28.93.11,5.93,1.73,2.6,16.92,3.59,17.91,1.09,1.09,14.12-2.56,15.91,3.59.37,8.3-.18,16.63.07,24.93.03,1.08,1.01,2.16,1.06,3.94,1.06,42.3-.9,84.75,0,127.07-1.12,12.94-15.1,8.96-24.55,9.45-37.82,1.93-76.88,8.79-111.83,24.17-4.63,2.04-7.25,5.89-11.34,7.66-7.68,3.33-15.25,2.89-22.68-.95-4-2.07-6.81-5.41-11.59-7.41-1.26-.53-2.56-.26-3.39-.61-19.73-8.43-41.27-14.81-62.32-18.68-18-3.3-35.75-3.67-53.81-5.19-5.86-.49-11.79,1.57-14.55-5.45V23.63c.14-.99,2.84-5.18,3.6-5.4,1.95-.55,13.43.6,13.43-.07,0-3.83-.69-11.31,0-14.5ZM152.03,192.16V53.66c-2.02-4.13-3.01-6.39-6.47-9.53-11.36-10.29-24.81-15.12-38.84-20.16-4.88-1.75-12.73-5.66-17.32-6.68-2.21-.49-4.73.2-6.89-.11-3.81-.54-8.28-2.45-11.96-3.04-11.17-1.79-23.63-1.98-35.04-2.96-.93-.08-6.48-2.45-6.48.48v146.5c7.03.39,14.55-.53,21.52-.02,1.05.08,1.89.93,2.96,1.04,28.42,2.75,68.18,13.93,92.51,29.49.88.56,4.82,4.73,6,3.5ZM287.03,157.16V12.66c0-.11-1.2-1.35-1.55-1.45-2.05-.59-11.16-.23-13.97-.07-11.64.66-24.35,2.88-36,5s-23.13,6.77-34.84,10.16c-6.54,1.89-22.77,11.34-28.16,15.84-1.53,1.28-4.86,4.51-5.97,6.03-.42.59-2.51,4.24-2.51,4.49v139.5c4.09.83,2.52-1.28,3.11-1.85.3-.29,1.21-.18,1.87-.64,25.81-18.32,76.14-30.33,107.5-32.53,1.88-.13,10.15.39,10.52.02Z"/>
  <path class="cls-2" d="M86.03,108.16c-.81.89-2.37-.98-3-1.5-2.6-2.16-11.44-12.56-13.5-12.56-.34,0-5.21,1.94-5.41,2.14-.17.17-1.01,3.06-2.06,4.44-.72.94-6.43,6.18-7.02,5.48-.32-.38.16-6.86.02-8.52-.1-1.18-.97-2.17-1.06-3.94-1.1-21.64.85-44.24.09-65.99.96-1.72,2.58-1.83,4.47-1.57,5.63.77,12.26,2.94,17.95,4.04,2.41.47,8.27.08,9.43,2.56.11.23.86,2.79.87,2.94.01.5-.78.81-.78.97v71.5Z"/>
  <path class="cls-1" d="M261.7,74.28c1.44-.26,5.92,1.13,6.28,2.44.29,1.05.29,6.86,0,7.9-.72,2.56-6.96,1.3-9.47,1.53-19.03,1.76-36.35,4.38-54.85,10.15l-16.11,6.89c-5.04.94-7.84-2.56-6.44-7.43.19-.66,3.1-3.42,3.92-4.08,6.01-4.76,31.26-12.19,39.47-13.53,12.01-1.96,25.27-1.7,37.19-3.86Z"/>
  <path class="cls-1" d="M258.69,42.32c2.37-.23,8.46-.44,9.27,2.41.31,1.09.3,5.76-.02,6.84-1.15,3.93-8.13,2.27-11.43,2.57-18.41,1.67-40.33,5.93-57.79,12.21-3.87,1.39-11.37,5.83-15.11,4.73s-3.19-8-.62-10.47c8.45-3.33,16.9-6.92,25.7-9.3,16.11-4.36,33.47-7.36,50.01-8.99Z"/>
  <path class="cls-1" d="M224.69,109.32c2.19-.27,5.77-.48,7.87-.19,4.19.58,6.06,7.59,1.87,9.94l-25.75,5.25c-6.79,2.17-18.32,8.81-25.18,7.87-3.84-.53-2.81-5.58-.97-8.03,1.4-1.87,5.2-3.47,7.46-4.54,8.79-4.13,25.1-9.12,34.7-10.3Z"/>
</svg>