<?xml version="1.0" encoding="UTF-8"?>
<svg id="Layer_1" data-name="Layer 1" xmlns="http://www.w3.org/2000/svg" viewBox="0 0 408.83 511.14">
  <defs>
    <style>
      .cls-1 {
        fill: #a8301c;
      }

      .cls-2 {
        fill: #ead4b6;
      }
    </style>
  </defs>
  <g>
    <path class="cls-2" d="M35.12,164.62l1.03-18.47,2.67-3.33c9.9-.05,19.94-.63,29.84-.24,38.79,1.51,88.94,11.94,121.78,33.22,3.72,2.41,15.28,13.13,18.12,12.87,20.53-17.84,45.24-29.73,71.52-36.58s65.03-12.03,92.58-9.51c12.33,1.13,4.99,13.72,8.39,21.61,4.09,1.11,16.47-.77,18.58,3.42l-.05,198.98-3.09,2.91c-10,2.16-21.52,1.31-31.86,2.14-53.43,4.31-95.58,10.45-142.62,36.38-17.02,9.38-23.3.85-37.23-5.55-39.78-18.27-90.37-29.5-134.12-31.88-8.15-.44-33.62,3.45-35.52-6.48l.18-194.77c.37-1.39,4.48-4.71,5.29-4.71h14.5ZM201.12,377.62v-169.5c0-16.79-45.94-34.52-59.04-38.96-20.61-6.98-35.03-9.23-56.44-11.56-8.88-.96-25.47-2.79-25.47-2.79h0l-10.11.24c-.7.47-1.86,11.07-1.97,13.03-3.11,53.61,2.45,110.17,0,164.09l1.69,4.31,20.35-.85h0l8.01,1h0s9.05,2.85,13.64,3.64c30.75,5.31,61.99,13.82,90.22,27.99,2.65,1.33,17.21,11.4,19.14,9.36ZM291.47,162.18l-36.12,13.95M282.85,164.15,286.37,163.12,255.35,176.13c-9.29,5.53-32.14,15.69-38.98,25.05l-.5,176.95c1.31,1.35,12.04-6.33,14.1-7.39,23.93-12.2,49.57-21.26,75.86-27.14,12.22-2.74,23.57-7.46,36.04-7.45h27s-.53-179.99-.53-179.99l-2.5-2.5c-1.76-.74-4.46-.89-6.31-.5-.75.16-1.87-.03-1.87-.03h-.8s-28.33,2.02-28.33,2.02c-10.85,2.44-25.47,5.35-37.07,7.02M252.85,176.6"/>
    <path class="cls-2" d="M151.85,406.92c15.2,5.92,31.19,16.65,47.28,22.19,20.86,7.18,45.8-1.15,67.24,4.76,7.77,2.14,12.47,10.91,5.79,17.3-5.18,4.95-9.62,2.77-15.53,3.47-21.7,2.56-40.11,3.34-62.05,3.03-5.65-.08-11.27-2.19-17.45-.03-.14,1.44,2.35,1.62,3.47,2.01,16.28,5.65,24.11,6.13,40.98,5.94,13.94-.15,39.47.45,51.82-5.18,8.03-3.67,7.84-11.16,12.82-16.18,6.21-6.27,26.15-16.97,34.82-23.18,5.53-3.96,13.09-12.76,19.81-14.19,10.37-2.2,18.87,6.6,10.84,15.84-1.73,2-4.64,2.56-6.59,4.4-26.78,25.3-32.6,39.73-68.95,55.05-9.01,3.8-18.25,7.55-27.27,11.78-9.53,4.47-23.93,13.22-34.27,12.77-26.04-3.25-86.22-33.55-109.55-28.63-3.74.79-6.43,4.09-10.92,2.04l-39-50.01c.06-2.45,13.01-11.54,15.67-13.29,24.09-15.81,53.59-20.59,81.05-9.89Z"/>
    <path class="cls-2" d="M277.59,34.27c.21.11,1.48.16,2.21.34l17.82,2.02h1.93s3.59-.02,3.59-.02l2.15-.16,8.2-1.74,40.27,47.85-.54,2.58c-22.58,23.51-47.66,46.22-82.51,43.6h0c-10.15,2.06-23.42-5.56-33.19-8.97-10.85-3.78-24.63-15.31-36.99-15.21h0c-10.27.43-20.1-.65-30.9-1.13-7.15-.32-16.64-6.39-16.36-14.35.49-13.97,35.77-6.84,44.34-6.4,3.36.17,6.37-1.08,8.92-.95,7.3.37,14.95,3.05,22.6,1.88h0c5.9,1.02,10.03-.07,13.99-5.52.33-1.51-1.17-2.25-2.49-2.47-3.11-.53-9.5-.87-12.95-1.05s-6.71.98-9.06.86c-16.53-.86-55.05-8.52-68.44,1.74-6.95,5.33-3.22,8.86-5.75,15.25-2.82,7.1-15.4,11.45-21.68,15.36-2.74,1.7-4.58,2.5-6.99,3.96-8.65,5.24-24.29,20.89-35.01,13.74l-2.4-2.58c-4.74-8.9,8.21-14.65,13.43-19.63,33.48-31.98,64.23-53.41,106.09-74.05.42-.21,1.33-2.42,3.29-3.03,7.54-2.34,25.62,2.47,34.48,3.42,12.62,1.35,25.49,2.94,38.04,4.06,1.79.16,2.97.13,3.91.61Z"/>
    <path class="cls-2" d="M43.5,434.25c10.01,12.84,20.26,26.7,30.64,38.84,3.96,4.63,9.03,8.33,12.79,13.18l-.79,2.61c-3.12,2.59-5.88,5.69-8.99,8.3-2.64,2.21-13.57,11.06-15.73,12.2-8.4,4.44-11.37-.22-16.98-6.15-11.55-12.22-28.07-32.65-37.78-46.65-.78-1.13-6.39-10.87-6.5-11.52-.23-1.29-.19-2.6-.03-3.9.68-3.61,14.62-11.85,18.36-14.7,2.41-1.84,3.27-3.43,5.56-5.4,9.41-8.1,14.92,7.4,19.44,13.19Z"/>
    <path class="cls-2" d="M371.8,18.95c10.26,11.41,25.29,25.31,33.98,38,2.25,3.28,4.57,6.07,1.78,9.61-3.9,4.95-15.7,12.49-21.07,16.43-2.8,2.06-5.33,6.85-9.89,6.73l-52.48-57.59c-1.56-2.59-3.19-6.37-.98-8.99,2.41-2.86,11.47-9,15.04-11.98,1.16-.96,1.54-2.58,2.7-3.55,2.76-2.32,10.16-8.48,13.17-7.49l15.06,17.06c.74.84,2,1.03,2.68,1.78Z"/>
    <path class="cls-2" d="M323.82,399.91l3.3,5.19-2.37,4.17-38.68,27.85c-3.97,2.12-5.42-2.17-8.02-3.93-2.77-1.87-6.16-1.8-6.95-5.55,5.56-1.32,10.4-7.01,15.07-10.45s9.99-7.21,14.6-10.41c7.44-5.18,13.14-10.67,23.04-6.87Z"/>
    <path class="cls-2" d="M160.13,107.63c-.82,3.96-3.14,5.18-6.1,7.39-10.16,7.57-23.05,14.36-33.87,21.12-5.62,1.69-16.01-.06-14.56-7.49,1.11-2.46,18.51-13.55,22.21-15.86s8.9-4.32,11.84-6.11c1.77-1.07,3.74-4.24,6.24-4.86,5.63-1.4,8.42,6.19,14.25,5.8Z"/>
    <path class="cls-2" d="M289.73,397.03l4.7,3.86-.85,3.65-29.71,21.33-23.74-1.76c-.76-3.53,26.36-19.85,30.54-22.48.89-.56,1.12-2.3,2.19-3.04,4.04-2.79,12.67-4.46,16.88-1.55Z"/>
    <path class="cls-2" d="M190.12,111.62l-1.04,3.45c-1.3,1.56-32.03,20.74-34.4,21.59-3.57,1.28-8,1.47-11.17-1.03-1.58-1.25-.9-3.65-.9-3.65l.27-1.68,2.02-2.69s23.73-16.11,25.16-16.56c6.2-1.93,13.62,1.64,20.05.56Z"/>
    <path class="cls-2" d="M325.04,204.86s-61.46,11.12-76.82,16.37c-2.59.89-4.79,2.62-7.38,3.49-3.47-.14-6.21-2.04-7.18-5.4,2.09-8.06,10.52-9.84,17.63-12.02,8.77-2.69,28.62-8.99,35.82-10.25,1.69-.3,8.43-1.59,8.43-1.59l4.75-.53h0l14.77-2.11,3.08-.57s10.41-2.3,16.76,1.2c3.16,1.74,7.01,10.19,1.15,10.45l-11.01.96"/>
    <path class="cls-2" d="M301.58,277.35h0c.31.55.48,1.17.52,1.8.03.54,0,1.08.02,1.61.03,1.13-1.01,4.81-3.97,5.61-.86.24-4.46.94-5.35,1.06-16.94,2.43-33.85,8.5-49.78,14.95-1.08.44-2.29.4-3.34-.09l-1.37-.65c-1.66-.78-2.61-2.55-2.35-4.37l.38-2.61c.15-1.04.67-2,1.5-2.65,5.97-4.66,22.47-9.99,28.8-11.72,1.87-.51,4.95-1.34,7.19-1.89,6.33-1.55,6.2-1.45,13.36-3.37.14-.04.29-.07.44-.09l3.96-.62c.32-.05.65-.06.97-.04l4.65.37c.58.05,1.15.21,1.66.49l1.05.57c.7.38,1.27.95,1.66,1.64Z"/>
    <path class="cls-1" d="M80.12,176.12c.9-2.9,11.47-.62,14.23-.23,5.76.81,16.87,2.36,21.99,4.01,1.41.46,3.05.72,3.61,2.39.46,27.95-.02,55.92.12,83.87,0,.97,2.07,9.96-1.44,8.45l-19.1-17c-5.26-.25-12.39,12.13-16.93,15-1.59.86-2.49-4.23-2.49-4.49v-92Z"/>
  </g>
  <path class="cls-2" d="M308.81,244.3h0c.26.58.38,1.21.36,1.84-.02.54-.11,1.08-.16,1.61-.09,1.13-1.58,4.67-4.8,5.13-.94.14-4.81.42-5.76.45-18.17.48-36.69,4.59-54.22,9.18-1.19.31-2.46.14-3.52-.47l-1.38-.8c-1.67-.97-2.48-2.84-2.01-4.61l.68-2.55c.27-1.02.93-1.91,1.87-2.46,6.81-3.95,24.83-7.36,31.7-8.37,2.03-.3,5.38-.77,7.81-1.06,6.85-.82,6.71-.74,14.48-1.82.16-.02.32-.04.48-.04l4.25-.16c.34-.01.69.01,1.03.07l4.88.9c.61.11,1.19.34,1.71.68l1.05.69c.7.46,1.24,1.09,1.57,1.82Z"/>
</svg>