<?xml version="1.0" encoding="UTF-8"?>
<svg id="Layer_1" data-name="Layer 1" xmlns="http://www.w3.org/2000/svg" viewBox="0 0 367.09 258.91">
  <defs>
    <style>
      .cls-1 {
        fill: #282f32;
      }

      .cls-2 {
        fill: #883826;
      }
    </style>
  </defs>
  <path class="cls-1" d="M344.05,27.61h17.5c.91,0,5.59,4.73,5.52,6.48l.02,175.06c-1.16,12.75-19.65,8.99-28.58,9.42-35.87,1.72-72.55,6.91-106.74,19.26-7.78,2.81-20.35,7.57-27.08,11.92-2.67,1.73-4.73,4.35-7.94,6.06-6.98,3.7-19.05,4.3-26.05.66-3.87-2.01-7.58-6.31-10.93-8.07-30.63-16.13-81.05-27.76-115.24-29.76-12.04-.7-26.33,1.5-37.82-1.18-3.31-.77-6.85-3.56-6.7-7.3V34.07c.08-1.03.64-3.75,1.19-4.31.17-.17,4.11-2.15,4.35-2.15h16.5c.14,0,.83-2.51.85-2.65.09-1.04-.85-2.34-.89-3.81-.13-4.77-.59-12.68.02-17.06.35-2.51,2.25-3.33,4.48-3.52,9.37-.77,23.55-.5,33.08,0,41.98,2.2,85.46,13.99,119.41,39.59,1.08.81,2.89,3.24,3.6,3.44,1.39.39,3.12-2.46,4.48-3.43,29.55-21.15,57.38-31.46,93.44-36.56,17.62-2.49,40.07-4.66,58.06-3.02,1.49.14,4.2.8,5.01,1.99s.62,10.27.49,12.59c-.22,4.1-2.36,7.88-.04,12.46ZM33.05,13.11v171c0,.61,1.59,1.41,2.47,1.53,4.19.58,9.64-.35,14.07-.07,34.94,2.15,81.62,14.77,112.8,31.2,4.19,2.21,8.44,4.9,12.19,7.82.85.41,2.47-1.19,2.47-1.48V60.11c0-.24-1.2-3.91-1.46-4.54-2.89-6.98-9.59-10.68-15.52-14.48-30.64-19.67-71.61-27.7-107.48-29.52-4.52-.23-12.87-.56-17.07.01-.92.13-2.26.75-2.47,1.53ZM189.05,59.11v164c0,.62,1.68,1.54,2.52,1.53,1.72-.02,2.25-1.63,3.52-2.49,31.79-21.51,88.81-34.16,126.48-36.52,2-.13,11.03.34,11.43-.07.13-.13,1.08-3.08,1.11-3.48.1-1.48-.95-2.6-.86-3.79,4.11-52.82-1.43-108.92.84-162.22.23-1.45-.74-3.34-2.01-3.99-1.95-.98-15.26-.69-18.57-.52-30.53,1.54-63.32,7.71-91.47,20.53-8.52,3.88-22.78,11.26-28.44,18.56-1.31,1.7-4.22,6.57-4.54,8.46Z"/>
  <path class="cls-1" d="M295.76,88.82c3.15-.27,9.51-.98,11.82.75,4.23,3.18,3,7.38-1.16,9.91l-14.85,1.15c-18.04,3.26-36.14,5.57-53.56,11.44l-21.48,9.58c-4.72.76-6.02-7.19-3.5-9.56,1.21-1.14,9.73-4.96,12-6,20.68-9.43,48.03-15.35,70.73-17.27Z"/>
  <path class="cls-1" d="M308.9,53.76c2.74,2.76.57,8.84-3.52,9.69-4.66.97-10.25.6-14.81,1.19-18.28,2.37-37.14,7-54.53,13.47-4.65,1.73-12.64,6.48-16.65,7.35-1.11.24-6.01.39-6.29.11-.1-.1-.81-2.26-.87-2.62-.67-3.8.38-5.13,3.46-7.19,3.8-2.55,13.76-6.83,18.35-8.65,19.34-7.69,44.96-13,65.47-14.53,2.1-.16,8.07-.15,9.4,1.19Z"/>
  <path class="cls-1" d="M264.76,128.83c3.78-.46,7.35-.04,8.17,4.46,1.21,6.58-8.18,6.43-12.18,7.53-11.68,3.23-23.44,6.87-34.72,11.28-2.07.81-4.78,2.94-6.65,3.35-8.02,1.78-11.15-4.77-5.32-9.31,2.03-1.58,10-4.8,12.96-6.04,10.3-4.32,26.8-9.93,37.73-11.26Z"/>
  <path class="cls-2" d="M63.05,128.61V34.61c4.95-1.04,9.1,1.31,13.52,1.98,3.31.5,7.72.45,10.96,1.04,2.39.44,12.24,2.56,13.56,3.44.78.52.88,1.14.99,2.01.63,4.74-.29,11.03-.07,16.07.08,1.78,1.03,3.15,1.09,4.91.73,22.6-.56,45.35-.13,67.96-.87,1.64-2.29,2.2-3.94,1.11l-12.94-16.06c-.79-.82-1.26-1.44-2.53-1.53-3.91-.31-12.89,9.46-16.98,12.08-1.26.8-1.75,1.35-3.52.98Z"/>
</svg>