<?xml version="1.0" encoding="UTF-8"?>
<svg id="Layer_1" data-name="Layer 1" xmlns="http://www.w3.org/2000/svg" viewBox="0 0 1018 225.98">
  <defs>
    <style>
      .cls-1 {
        fill: #283134;
      }

      .cls-2 {
        fill: #b14437;
      }
    </style>
  </defs>
  <path class="cls-2" d="M1018,155.83c-2.16,2.8-2.14,6.72-3.49,10.01-9.09,22.31-43.48,22.38-62.53,14.5-3.12-1.29-5.82-3.56-8.99-4.52,1.08-1.94,7.64-14.98,8.5-14.97.48,0,6.83,3.84,8.49,4.49,2.1.83,5.4,2.08,7.53,2.47,4.5.83,8.66.61,13,.03,1.58-.21,3.17.17,4.82-.18.87-.18,6.88-3.48,7.45-4.05,1.32-1.32,3.94-7.33,4.19-9.31.15-1.17.25-7.19.01-7.48-.26-.32-5.26,4.12-6.7,4.8-31.18,14.6-63.82-17.43-46.76-48.76,8.89-16.31,32.53-20.68,48.15-12.24,1.09.59,6.06,4.49,6.3,4.19.4-.49-.28-5.58,0-7,6.94.03,13.09-2.21,20,0v68ZM975.71,103.04c-16.57,2.38-21.79,22.83-7.69,32.26,5.59,3.74,17.15,3.48,22.5-.46,6.35-4.67,8.98-13.79,6.02-21.06-3.19-7.84-12.75-11.9-20.83-10.74Z"/>
  <path class="cls-1" d="M0,65.83h70v17H21v20h43v17H21v21h49.5c.11,0,1.5,1.39,1.5,1.5v15c0,.42-1.64,1.69-2.47,1.53l-69.53-.03v-93Z"/>
  <path class="cls-1" d="M486,61.82c.63.63-.9,9.02.46,11.04,1.84,2.76,9.44-2.23,10.54,5.46l.03,75.02c-2.24,6.81-10.49,4.08-16.5,4.5-15.96,1.11-34.43,3.94-49.22,10.78-7.59,3.51-13.1,10.16-22.02,5.42-1.5-.8-2.3-2.14-3.31-2.69-12.83-7.09-36.01-12.52-50.49-13.51-4.39-.3-17.83,1.28-20.03-1.97-1.05-26.08-.13-52.4-.47-78.57.79-5.61,9.23-2.68,10.02-3.48.48-.48-.49-11.52,0-12,.65-.65,16.03-.15,18.48.02,13.39.91,31.07,5.41,42.86,12.14,1.95,1.11,7.71,5.89,9.15,5.89,5.51-2.7,10.18-6.69,15.81-9.25,10.19-4.62,25.21-8.03,36.22-8.78,2.46-.17,17.83-.68,18.48-.02ZM413,159.83v-71.5c0-.19-1.25-3.09-1.51-3.49-2.87-4.62-14.94-9.91-20.21-11.79-9.98-3.56-22.29-5.54-32.74-6.26-1.17-.08-8.54-.38-8.54.04v76c11.35.66,23.3,2.14,34.25,5.25,4.5,1.28,10.45,3.4,14.76,5.24,1.89.8,13.34,7.21,13.98,6.52ZM482,142.83v-74.5c0-2.08-8.4-1.62-10.48-1.48-13.06.9-27.55,3.71-39.54,9.46-3.16,1.52-9.53,4.9-11.46,7.54-.44.61-2.53,4.22-2.53,4.47v71.5c1.18.18,1.93-.04,2.99-.51,9.49-4.12,16.03-8.33,26.75-11.25,11.07-3.02,18.81-3.09,29.74-4.26.61-.07,4.34-.83,4.52-.98Z"/>
  <path class="cls-1" d="M159,60.83v98h-18.5c-.18,0-1.29-1.15-1.42-1.58-.85-2.87,1.61-7.42-2.58-4.41-4.4,3.16-6.25,5.02-12.03,5.97-59.49,9.84-55.43-87.73,4.54-70.49l8.99,4.51v-32h21ZM133.79,108.03c-.47-.46-5.01-3.45-5.75-3.75-7.95-3.13-17.53-.45-22.51,6.56s-4.01,18.95,1.46,25.49c5.09,6.1,13.76,7.45,21.07,5.03,4.08-1.35,7.89-6.66,9.46-10.54,2.31-5.68,2.13-11.13-.32-16.71-.51-1.16-2.77-5.47-3.4-6.1Z"/>
  <path class="cls-2" d="M925,157.83h-20v-41.5c0-.31-1.71-5.1-2.13-5.87-6.23-11.24-23.92-7.54-28.4,4.33-.28.75-1.46,4.3-1.46,4.54v38.5h-20v-70h19c.35,0-.37,6.57,0,7,.86.98,6.81-4.86,8.28-5.21,18.87-7.55,40.23-1.91,44.71,19.71v48.5Z"/>
  <path class="cls-1" d="M403,197.83c-.24,1.29,2.67,1.53,3.73,1.77,9.1,2.11,19.67,1.57,28.79.25,2.64-.39,7.03-.04,9.3-2.2,1.2-1.15,2.03-5.27,3.15-6.34,1.87-1.78,8.45-5.16,11.01-6.99,4.03-2.89,7.98-6.08,12-9,2.42-1.24,7.15-.63,7.95,2.15.99,3.41-5.78,8.46-7.97,10.87-10.91,11.96-14.5,14.9-29.66,22.31-7.06,3.45-14.34,6.85-21.8,9.28-12.6-2.4-24.68-7.32-37.23-9.85-1.42-.29-3.84-.94-4.96-1.03-1.99-.16-5.74,2.06-8.34.32l-12.99-15.01c-2.19-4.47-6.27-4.35-1.5-8.54,13.79-12.09,27.09-13.13,43.8-6.77,4.57,1.74,10.76,5.8,15.41,6.59,6.39,1.09,14.3-.43,20.85.15,4.83.43,12.86,3.53,7.96,9.05-2.79,3.14-9.04,1.7-12.99,2.01-1.21.09-2.37.95-3.98,1.02-7.47.36-15.07-.36-22.54-.04Z"/>
  <path class="cls-1" d="M395.15,42.67c-.48-.49-1.33-3.34-1.08-4.22,1.41-5,16.92-3.86,21.47-3.67,2.93.13,5.28,1.36,9,1.08,2.29-.17,6.67-.96,8.45-2.54l-9.48-.52c-7.26-1.01-18.61-2.03-25.82-.78s-5.18,6.23-9.18,9.82c-2.94,2.63-18.89,12.56-22.19,12.84-4.7.4-5.61-5.45-2.34-8.38,7.11-5.01,14-13.32,21.05-17.95,3.64-2.39,26.72-15.14,29.48-15.52,3.99-.55,6.71.65,10.02.98,11.38,1.15,24.73,3.73,35.96,3,1.03-.07,2.1-1.11,2.93-.94.66.14,7.33,9.02,8.57,10.47,1.62,1.89,9.08,9.18,9.08,10.98,0,1.44-2.43,3.53-3.54,4.52-13.77,12.29-26.48,16-44.56,10.52-5.09-1.54-11.63-5.49-16.65-6.35-4.76-.81-10.79-.35-15.81-1.19-.74-.12-5.11-1.91-5.34-2.15Z"/>
  <path class="cls-2" d="M737.79,150.62c-.28.28-3.74,2.65-4.43,3.07-12.79,7.85-38.5,6.89-51.68-.05-2.59-1.37-2.88-1.96-1.86-4.48,1.34-3.32,3.88-6.71,4.99-10.03.28-.84.07-2.16.19-2.3.27-.33,6.31,3.27,7.72,3.78,6.26,2.29,16.06,4.13,22.59,3.03,7.83-1.32,11.8-8.37,2.74-11.36-9.63-3.18-21.06-1.23-30.41-7.59-10.5-7.14-9.35-23.05-.16-30.88,9.74-8.3,30.95-8.75,42.83-5.79,1.37.34,8.8,3.18,9.23,3.77,1.84,2.56-4.91,10.65-5.01,14.06-1.49,2.33-4.4-.87-6.49-1.56-6.67-2.2-16.67-3.7-23.32-1.24-3.99,1.47-6.4,5.2-3.23,8.79,2.76,3.11,17.8,3.97,22.8,5.2,4.08,1.01,11.95,4.18,14.75,7.25,5.13,5.63,4.97,16.16,1.45,22.53-.17.3-2.54,3.64-2.7,3.8Z"/>
  <polygon class="cls-2" points="589 65.83 589 140.83 635 140.83 635 157.83 568 157.83 568 65.83 589 65.83"/>
  <path class="cls-1" d="M241,71.83v17h18v16h-18v31.5c0,.34,1.79,4.01,2.45,4.55,4.55,3.77,8.75,1.18,13.21.1,3.27-.79,1.9.29,2.53,2.13,2.51,7.3,8.29,13.32-2.88,15.53-8.01,1.58-18.44,1.31-25.67-2.95-3.05-1.8-6.85-5.51-8.18-8.82-.37-.93-2.46-8.1-2.46-8.54v-33.5c0-.55-11,.55-11,0v-16c0-.55,11,.55,11,0v-17h21Z"/>
  <path class="cls-2" d="M779,71.83v17h17v16h-17v32.5c0,.26,1.91,3.03,2.46,3.54,2.36,2.17,5.95,2.33,9.02,1.94,2.18-.28,5.02-2.64,6.04-1.01.4,2.45,6.09,12.44,4.44,13.99-.33.31-7.52,2.9-8.48,3.02-3.59.46-12.38.46-15.97,0-6.5-.83-13.81-6.81-16.31-12.69-.39-.91-2.2-6.44-2.2-6.8v-34.5c0-.55-11,.55-11,0v-16c0-.55,11,.55,11,0v-17h21Z"/>
  <path class="cls-1" d="M199,158.83h-21v-72h19.5c.11,0,1.5,1.39,1.5,1.5v70.5Z"/>
  <path class="cls-2" d="M813,158.83v-72h19.5c.11,0,1.5,1.39,1.5,1.5v69c0,.11-1.39,1.5-1.5,1.5h-19.5Z"/>
  <rect class="cls-2" x="646" y="87.83" width="20" height="70"/>
  <path class="cls-1" d="M340.63,182.9c.55-.09.99-.06,1.38.38,8.1,9.56,16.27,19.18,23.9,29.17.3.98.15,1.57-.38,2.41-2.44,3.9-9.08,7.11-12.14,10.87-4.04,1.22-4.49-2.26-6.38-4.42-7.35-8.43-14.72-16.8-20.95-26.11-.24-.59.09-.92.38-1.38.94-1.48,12.82-10.68,14.18-10.91Z"/>
  <path class="cls-1" d="M483.83,1c.36.35.42,1.59,1.12,2.34,6.22,6.61,12.19,13.63,18,20,3.56,3.9,6.08,3.51,1.07,8.01-1.74,1.56-4.71,4.15-6.51,5.49-4.12,3.09-6.64,5.87-10.54,1.5-3.69-4.13-7.44-8.75-11-13-3.34-3.99-6.21-8.42-9.96-12.08-.54-1.93,3.24-3.3,4.49-4.42,3.17-2.83,6.27-5.77,9.47-8.57.66-.76,3.33.24,3.84.73Z"/>
  <path class="cls-2" d="M651.66,54.99c3.89-.85,9.65-.58,12.86,1.82,6.67,4.98,6.11,14.83-1.15,18.89-10.2,5.7-24.27-2.51-19.16-14.16,1.29-2.94,4.26-5.84,7.45-6.55Z"/>
  <path class="cls-2" d="M832.82,74.64c-.8.77-8.12,3.18-9.32,3.17-.58,0-4.96-.93-5.82-1.17-6.31-1.8-7.52-8.57-6.71-14.34.29-2.08,5.52-6.84,7.69-7.31,9.89-2.16,19.65,3.11,17.17,14.17-.11.49-2.79,5.25-3.02,5.48Z"/>
  <path class="cls-1" d="M197.79,74.61c-.14.14-3.24,1.99-3.45,2.05-3.5,1.09-8.14.97-11.66-.02-10.14-2.86-8.34-20.44,1.82-21.82,9.75-1.32,18.8,3.35,16.34,14.34-.13.59-2.67,5.07-3.05,5.45Z"/>
  <path class="cls-1" d="M443.03,182.86c.51-.42,3.62-1.63,4.93-2.58,3.2-2.34,11.64-9.93,15.39-9.32,4.51.72,4.18,3.23,1.18,5.89-4.8,4.24-11.48,7.25-16.11,11.91-2.33,1.17-6.89-4.64-5.38-5.89Z"/>
  <path class="cls-1" d="M397,45.83c.57.43-.3,1.81-1.02,2.47-3.79,3.49-10.89,6.27-14.93,10.07-1.44.63-3.01.6-4.55.45-2.9-.28-5.19-1.86-2.49-4.49,3.92-3.81,12.45-7.03,16.61-11.42,2.37-.71,2.58,1.08,3.85,1.96,1.1.76,2.42.88,2.53.96Z"/>
  <path class="cls-1" d="M452,174.82c-.11.08-1.4.11-2.52.97-1.95,1.5-9.54,7.66-11.13,7.89-1.51.22-6.79-1.86-9.35-.86l2.02-2.48c4.93-1.63,12.31-10.51,17.32-9.38,1.32.3,5.05,2.82,3.66,3.86Z"/>
  <path class="cls-1" d="M389.03,54.87c3.92-.69,8.18-6.11,11.63-6.88,1.65-.37,9.38-.68,9.33,1.34-.02.94-13.79,8.76-15.67,10.39-2.81.14-6.12-1.54-5.29-4.85Z"/>
  <path class="cls-1" d="M471,84.83c.12.12.12,2.76-.06,3.44-.68,2.51-10.06,2.18-12.42,2.58-3.18.54-7.79,1.37-10.81,2.19-5.56,1.52-11.01,4.87-16.67,6.34-3.33.87-4.35-2.58-1.41-4.43,3.31-2.08,13.14-5.84,17.08-6.92,3.08-.84,23.24-4.2,24.29-3.21Z"/>
  <path class="cls-1" d="M471,100.83c.12.12.12,2.75-.06,3.44-.65,2.39-4.56,1.28-6.42,1.58-8.15,1.31-16.97,2.63-24.8,5.2-2.59.85-4.81,2.6-7.68,3.32-3.51.89-6.07.61-3.07-3.07,1.85-2.26,12.67-6.08,16-7,3.53-.97,24.5-4.92,26.03-3.47Z"/>
  <path class="cls-1" d="M455,118.83c.42.41.1,2.67-1,3.5-2.68,2.01-14,4.21-18.29,5.71-1.78.62-6.82,4.51-7.71,1.28-.97-3.51,6.31-5.98,8.98-7.01,2.9-1.13,16.26-5.19,18.02-3.48Z"/>
  <path class="cls-2" d="M380,79.83v41c-3.06-.89-5.12-7.22-7.6-7.94-2.95-.85-6.25,4.78-9.4,4.94v-41l17,3Z"/>
</svg>