<?xml version="1.0" encoding="UTF-8"?>
<svg id="Layer_1" data-name="Layer 1" xmlns="http://www.w3.org/2000/svg" viewBox="0 0 629.05 388.59">
  <defs>
    <style>
      .cls-1 {
        fill: #b14436;
      }

      .cls-2 {
        fill: #263032;
      }
    </style>
  </defs>
  <path class="cls-1" d="M556,388.13c-6.71-.92-26.34-6.47-31.97-10.53-1.59-1.15-3.34-2.7-2.92-4.82.66-3.34,7.08-12.23,9.11-15.93.53-.96.69-2.61.78-2.72.32-.37,7.01,4.62,8.28,5.21,15.93,7.42,48,11.51,54.54-9.89.62-2.05,1.92-13.41,1.18-14.32-.45-.55-9.87,6.56-11.98,7.52-23.16,10.51-55.48-.99-64.8-25.23-6.02-15.66-4.15-35.72,6.76-48.8,14.87-17.83,45.6-23.73,64.99-9.95,1.16.82,5.86,6.74,7.02,5.47.57-.62-.6-12,0-12h25.5c.11,0,1.5,1.39,1.5,1.5v85c0,.61-.81,6.54-1.02,7.98-3.77,25.24-18.8,37.26-43.28,40.69-.45.06-.61.83-.69.84-4.94.56-18.19.66-23,0ZM567.71,274.33c-8.29,1.01-15.21,3.81-20.18,10.82-5.47,7.71-4.82,21.63,1.02,28.93,9.87,12.36,33.69,12.09,42.93-.98,4.4-6.23,5.11-19.83,1.4-26.35-2.43-4.26-9.73-10.44-14.53-11.47-2.24-.47-8.54-1.21-10.63-.96Z"/>
  <path class="cls-1" d="M0,223.13c8.9.86,19.8-1.15,28.42-.04.33.04,1.58,2.39,1.58,2.54v101.5h64v24H0v-128Z"/>
  <path class="cls-2" d="M485,38.13v136h-27c-.55,0,.41-9.77,0-11-2.43,1.2-3.91,3.9-6.02,5.48-6.03,4.5-17.2,6.99-24.52,7.56-1.14.09-8.93-.97-10.74-1.25-16.48-2.56-31.89-16.57-36.51-32.49-9.45-32.6,7.91-65.65,43.25-68.34,11.27-.86,24.38,3.17,32.54,11.04v-45.5c0-.11,1.39-1.5,1.5-1.5h27.5ZM413.21,105.33c-.21.21-2.76,3.98-3.02,4.48-4.78,9.24-4.8,23.69,1.34,32.29,9.22,12.9,29.38,13.79,39.49,1.54s7.74-32.94-5.04-41.99c-6.92-4.91-20.26-4.98-27.33-.39-.92.6-4.94,3.57-5.43,4.07Z"/>
  <path class="cls-2" d="M361,46.13v24h-67v28h60v21.5c0,.11-1.39,1.5-1.5,1.5h-58.5v29h68.5c.11,0,1.5,1.39,1.5,1.5v22.5h-99V46.13h96Z"/>
  <path class="cls-1" d="M422,252.13c.41.41-.3,9.22,0,11l13.98-8.51c14.02-6.11,35.29-4.25,47.03,6.02.78.68.73,1.76,1.24,2.28.31.32,1.23.12,1.49.42,4.56,5.22,8.19,14.48,9.23,21.32.21,1.39,1.02,7.4,1.02,7.98v58.5h-29v-58.5c0-.39-2.09-6.52-2.54-7.46-7.16-14.89-34-11.2-39.24,4.67-.48,1.46-2.21,9.07-2.21,9.79v51.5h-28v-97.5c0-.11,1.39-1.5,1.5-1.5,3.51,0,24.6-.9,25.5,0Z"/>
  <path class="cls-1" d="M238.99,259.14c.67.62-3.66,10.31-4.47,12-.71,1.48-4.22,9-5.02,8.98-.26,0-.85-1.14-1.53-1.47-10.04-4.9-22.4-6.66-33.51-5.57-4.78.47-10.85,3.46-11.29,8.72-.32,3.83,2.78,5.58,5.81,6.83,13.88,5.73,30.73,2.58,43.99,12.01,10.04,7.14,12.07,19.64,7.81,30.76-10.24,26.71-60.99,24.13-82.08,13.51-.84-.42-3.91-2.29-4.26-2.76-.99-1.33-.03-1.68.38-2.7,2.16-5.31,5.7-10.11,7.28-15.72.34-.56.88-1.44,1.45-1.59.69-.18,10.86,5.05,13.15,5.77,8.86,2.78,23.5,4.69,32.34,1.76,7.95-2.64,9.44-11.01.99-14.09-13.6-4.95-28.94-2.45-42.38-10.62-17.39-10.58-14.49-35.59,2-45.69,20.4-12.49,48.19-9.44,69.33-.14Z"/>
  <path class="cls-2" d="M598,54.13v24h25c-.83,2.08,1.1,22,0,22h-25l-.04,40.54c1.15,8.62,6.67,13.57,15.53,12.44,2.02-.26,8.76-3.9,9.51-2.98.17.21.68,3.88,1.22,5.29,1.24,3.23,5.63,11.07,4.71,14.14-.48,1.6-6.12,3.57-7.91,4.11-3.67,1.11-9.87,2.23-13.57,2.51-1.63.13-2.7-.92-3.97-1.02-9.27-.74-16.91-1.84-24.27-8.28-.28-.25-.11-1.12-.47-1.48s-1.25-.19-1.48-.47c-3.88-4.74-5.49-10.19-6.45-16.1-.1-.62-.81-.99-.81-1.19v-47.5h-15v-22h15v-24h28Z"/>
  <path class="cls-1" d="M292,231.13v24h25c-.83,2.08,1.1,22,0,22h-25l-.04,40.54c.96,8.89,7.52,13.84,16.35,12.26,1.87-.34,7.78-3.75,8.69-2.8.37.39,2.61,8.6,3.22,10.28.55,1.52,3.69,7.78,3.68,8.23-.02,1.17-4.57,3.47-5.88,4-8.71,3.54-26.43,3.82-35.03,0-6.86-3.04-12.32-7.73-15.5-14.5-1.71-3.65-1.84-5.86-2.48-9.52-.19-1.1-1.01-1.88-1.01-1.99v-46.5h-15v-22h15v-24h28Z"/>
  <path class="cls-2" d="M169.05,64.08c1.56,1.53,7.34.29,8.49,2.01,1.07,23.02.14,46.4.48,69.56l-2,3-24.5,1.5c-12.55,2.43-23.93,4.93-35.48,10.52-3.1,1.5-5.24,4.54-9.54,4.54s-5.49-2.55-8.14-3.94c-11.93-6.26-30.59-11.13-43.88-12.12-5.08-.38-11.22.66-16.01,0-2.56-.35-3.31-3.23-3.52-5.48l.02-66.07c.65-4.68,8.62-3.07,9.03-3.47.45-.44-.46-9.55,0-10,.58-.58,14.23-.13,16.48.02,10.57.71,26.75,4.69,36.21,9.79,2.58,1.39,7.65,6.25,9.81,6.24,1.49,0,6.61-4.45,8.54-5.5,10.76-5.87,25.41-9.7,37.47-10.53,2.63-.18,14.19-.45,15.52.44,2.14,1.42.24,8.74,1.01,9.49ZM104,141.13v-64.5c0-2.33-8.38-8.19-10.65-9.35-12.41-6.38-25.34-7.3-38.84-8.16-1.03-.07-6.52-2.36-6.52.52v66.5c0,.42,7-.12,8.48.02,12.54,1.18,24.8,5.24,36.54,9.46,1.74.36,10.44,6.11,10.98,5.52ZM165,126.13V59.63c0-2.88-5.49-.58-6.52-.52-14.08.9-25.78,1.82-38.84,8.16-1.8.88-10.64,7.03-10.64,8.36v65.5l10.98-5.52c9.57-3.89,19.42-6.37,29.54-8.46l15.48-1.02Z"/>
  <path class="cls-1" d="M137,351.13h-29v-97.5c0-.11,1.39-1.5,1.5-1.5h26c.11,0,1.5,1.39,1.5,1.5v97.5Z"/>
  <rect class="cls-2" x="511" y="76.13" width="29" height="98"/>
  <path class="cls-1" d="M368,252.13v99h-28v-97.5c0-.11,1.39-1.5,1.5-1.5h26.5Z"/>
  <path class="cls-2" d="M96,174.13c-1.34,1.13-.15,1.92,1.49,2,8,.39,15.92,1.65,24.05,1.05,3.71-.28,8.17-1.32,11.27-3.22,2.14-5.96,9.89-10.68,15.23-14.28,4.81-3.24,15.62-11.31,13.48.48-6.31,4.93-12.28,13.99-18.55,18.45s-17.15,8.53-24.27,11.73c-2.85,1.28-5.43,3.9-9.2,3.88-10.51-1.66-22.73-7.87-33.02-9.06-3.24-.37-8.1.65-10.85-.15-.96-.28-11.5-12.88-13.08-14.92-.58-.75-3.19-4.48-2.54-4.95.14-.1,1.39-.11,2.52-.97,3.63-2.75,7.04-6.04,11.45-7.57,16.46-5.73,22.91.98,37,6.07,7.71,2.79,15.75.71,23.58,1.42,3.36.31,7.54,2.53,6.36,6.44-.86,2.84-4.06,2.38-6.22,2.79-.61.12-.99.82-1.18.82-3.86,0-26.45-.89-27.5,0Z"/>
  <path class="cls-2" d="M121,30.13c1.34-1.13.14-1.92-1.49-2-4.66-.23-9.4.26-14.05.04-1.6-.07-2.79-.94-3.98-1.02-5.18-.35-12.7-.47-15.95,4-4.93,6.8-8.49,9.75-16.18,13.82-2.67,1.41-4.65,2.64-7.88,2.18-7.07-1,1.72-8.93,4.01-11.05,11.38-10.5,24.61-17.55,38.18-24.82,10.12-1.24,20.05,1.73,29.86,2.82,4.26.47,8.04.39,12,.04,5.53-.49,3.36.12,5.43,2.5,2.52,2.9,13.09,13.19,13.1,15.99,0,1.34-1.15,2.17-2.03,3.01-12.14,11.6-23.83,14.7-40.05,10.01-4.63-1.34-10.35-4.61-14.66-5.34s-9.51-.47-13.81-1.19c-.68-.12-5.23-1.87-5.44-2.07-.24-.22-.19-3.53.04-4.34s3.12-2.6,3.4-2.6c4.1,0,28.37.95,29.5,0Z"/>
  <path class="cls-2" d="M520.7,30.32c8.53-1.5,18.37,1.28,21.84,9.76,1.57,3.83,1.43,7.24,0,11.08-6.85,18.33-37.18,12.68-34.52-7.52.79-5.97,6.8-12.29,12.68-13.32Z"/>
  <path class="cls-1" d="M135.79,211.33c.69,2.51,3.49,3.91,4.04,6.46,3.37,15.48-11,25.03-24.87,19.87-11.53-4.29-13.75-19.49-3.92-26.99,7.52-5.74,17.23-4.25,24.75.67Z"/>
  <path class="cls-1" d="M349.69,207.32c7.05-1.2,17.98,1.44,20.84,8.77,6.89,17.63-13.4,29.49-27.51,19.51-11.01-7.78-7.01-25.95,6.67-28.28Z"/>
  <path class="cls-2" d="M62.97,190.08c-.2.16-1.5.13-2.49,1-2.83,2.48-5.68,5.02-8.45,7.57l-3.46.4c-5.31-5.79-9.69-12.33-14.55-18.45-1.27-1.59-7.53-7.08-6.99-8.9.36-1.23,9.35-8.31,10.97-9.08,3.34-1.59,4.96.68,7.02,2.98,6.12,6.8,10.98,14.98,17.51,21.49.59.58.69,2.78.44,2.99Z"/>
  <path class="cls-2" d="M166.91.22c.23.26.26,1.53,1.04,2.43,4.46,5.12,9.6,9.85,14.07,14.96,1.61,1.84,2.74,4.47,4.96,6.08.7,2.25-7.27,6.8-8.93,7.98-1.22.87-2.58,3.04-3.65,3.35-3.9,1.16-3.7-1.53-5.38-3.42-2.38-2.68-4.68-5.32-7-8-3.23-3.73-6.76-7.29-9.92-11.09-1.5-4.96,7.56-8.16,9.87-11.92.97-.61,4.58-.79,4.93-.38Z"/>
  <path class="cls-2" d="M145.64,151.27c1.97-.57,7.16-.31,6.35,2.35-.47,1.57-10.3,7.83-12.52,9.49s-2.76,4.44-6.51,2.55c-1.06-.53-2.43-2.1-1.5-3.55.67-1.04,6.16-5.42,7.57-6.44,1.16-.84,5.86-4.18,6.6-4.4Z"/>
  <path class="cls-2" d="M90,40.13c1.94,1.52-3.1,2.91-3.98,3.52-1.82,1.26-8.46,7-9.65,7.35-.95.28-7.11.38-7.38.12-.14-.13-.1-3.73.1-3.9.87-.78,4.83-2.31,6.25-3.25,3.19-2.11,6.18-4.52,9.25-6.8l5.4,2.96Z"/>
  <path class="cls-2" d="M119,162.12c-.11-.1-.45-2.6.6-3.02,4.88-1.97,10.38-7.98,14.89-8.03,4.83-.06,3.88,2.58,1.04,5.07-.84.74-7.66,5.72-8.14,5.86-.98.29-8.07.41-8.38.12Z"/>
  <path class="cls-2" d="M101,42.13c.56,2.29-1.5,2.31-3.08,3.42-2.15,1.52-9.39,6.63-11.43,6.61-2.78-.04-5.09-1.98-2.48-4.51.69-.67,7.08-4.78,7.93-5.07,2.88-.95,6.08-.25,9.05-.45Z"/>
  <path class="cls-2" d="M156,92.12c-.14.12-2.93.91-3.5,1-5.37.88-11.41.96-16.81,2.19-2.58.59-16.99,6.5-17.69,5.81-.88-.87.49-3.07,1.48-4.02.93-.89,7.82-3.95,9.49-4.51,7.59-2.57,16.61-3.26,24.57-4.49,2.03-.41,3.25,3.35,2.47,4.03Z"/>
  <path class="cls-2" d="M118,87.12c-.42-.4-.11-2.68,1-3.5,5.59-4.12,18.56-7.41,25.52-8.48,1.59-.25,3.32.15,4.97-.03,1.54-.17,5.66-2.47,6.51.52,1.39,4.87-5.93,3.14-8.47,3.52-3.12.47-7.76,1.4-10.81,2.19s-17.46,7-18.71,5.79Z"/>
  <path class="cls-2" d="M141,104.13c.14.14.13,3.84-.03,3.97-.28.23-5.64,1.1-7,1.5-2.39.71-15.29,6.22-15.97,5.53-.33-.33,0-3.08.47-4.02.66-1.33,8.2-4.15,10.23-4.77,1.87-.57,11.55-2.94,12.29-2.21Z"/>
  <path class="cls-1" d="M75,70.13v36c-2.46-.35-5.49-6.67-6.54-6.97-2.45-.7-5.85,4.08-8.46,4.97v-37c4.71,1.73,10.02,2.02,15,3Z"/>
</svg>