<?xml version="1.0" encoding="UTF-8"?>
<svg id="Layer_1" data-name="Layer 1" xmlns="http://www.w3.org/2000/svg" viewBox="0 0 1066.09 208.99">
  <defs>
    <style>
      .cls-1 {
        fill: #15181c;
      }

      .cls-2 {
        fill: #242e35;
      }

      .cls-3 {
        fill: #bb432c;
      }
    </style>
  </defs>
  <path class="cls-2" d="M149.02,67.98c1.13,1.13,8.93-3.01,10,4.5l.03,69.02c-.12,1.22-2.01,3.5-3,4-2.69,1.37-13.37.19-17.5.5-13.24.98-32.46,5.55-44.48,11.52-5.24,2.6-4.96,5.22-12.58,4.5-4.2-.4-4.38-2.37-7.09-3.9-9.82-5.56-31.57-11.2-42.88-12.12-4.68-.38-19.75,1.39-22.03-1.97l-.48-73.58c-.06-4.33,8.21-1.64,9.03-2.47.47-.47-.47-10.54,0-11,.65-.65,16.06-.16,18.48.02,11.03.82,27.7,5.05,37.47,10.53,2.01,1.13,8.46,6.51,9.55,6.51,1.16,0,5.39-3.86,7.16-4.9,11.11-6.55,26.13-11.19,38.86-12.14,3.34-.25,15.41-.65,17.89.07,3.16.9.76,10.09,1.58,10.92ZM81.02,147.98v-67.5c0-.9-3.47-4.66-4.48-5.52-8.5-7.24-24.98-10.78-35.85-12.15-.58-.07-.95-.83-1.17-.83h-17.5l1,70c4.29.85,9.32.43,13.48,1.02,8.99,1.27,17.77,4.32,26.56,6.44,2.4.15,17.29,9.27,17.96,8.54ZM145.02,61.98c-5.07.27-10.45-.39-15.48.02-10.67.86-29.65,6.22-38.49,12.51-1.13.8-5.03,5.01-5.03,5.97v67.5l15.99-7.51c12.54-5.45,24.3-6.24,37.49-7.51,1.68-.16,3.48-1.54,5.52-.98V61.98Z"/>
  <path class="cls-2" d="M288.52,16.98c.66.08,4.45,1.1,5.55,1.45,16.57,5.17,23.77,25.69,11.97,39.08-.58,1.5-8.23,4.54-8.03,4.97.67,1.43,8.32,4.35,10.49,6.51,1.32,1.31,4.36,6.12,5.04,7.96,5.25,14.08-1.98,28.18-15.52,33.55-1.09.43-7.12,2.49-7.51,2.49h-49.5V16.98h47.5ZM260.02,55.98h21.5c.3,0,4.75-2.03,5.48-2.52,1.42-.96,4.83-4.41,5.05-5.95.82-5.79.16-10.78-5.03-14.02-.4-.25-3.3-1.51-3.49-1.51h-23.5v24ZM260.02,96.98h26.5c.19,0,3.09-1.26,3.49-1.51,3.32-2.06,6.4-8.09,6.02-11.96-.47-4.79-3.5-9.38-7.97-11.07-.76-.28-4.3-1.46-4.54-1.46h-23.5v26Z"/>
  <path class="cls-2" d="M973.01,50.98c.06-1.81.87-6.42,2.59-6.91,1.58-.45,12.43-.31,13.45.37.4.27.65.7.87,1.13l.13,70.96c-3.15,28.45-47.67,32.06-63.06,12.98-1.72-2.13-4.4-5.93-2.54-8.58.93-1.33,11.09-3.26,13.08-2.97,2.42.35,4.4,4,6.5,5.5,3.36,2.4,6.74,2.37,10.52,3.56,2.53-.95,5.43-.68,7.79-1.2,1.87-.41,7.17-5.19,8.16-6.84,1.14-1.91,3.46-13.95,2.51-14.99-1.02-1.11-5.71,4.38-7.28,5.22-7.47,3.96-22.07,2.12-29.41-2.02-21.01-11.86-18.79-50.35,2-61.39,7.08-3.76,21.8-4.42,28.69-.3,2.14,1.28,3.51,4.5,6.01,5.49ZM951.71,59.17c-3.34.58-9.21,5.62-10.25,8.75-5.02,15.19,2,30.88,19.86,27.86,5.8-.98,9.95-6.65,10.68-12.32,1.89-14.75-3.5-27.18-20.29-24.29Z"/>
  <path class="cls-3" d="M625.02,16.98c.21.2.13,3.23-.5,4l-27.55,43.5c9.08,15.69,19.61,30.71,28.56,46.51,1.01.53-.9,2-1.01,2h-20c-.33,0-3.2-3.37-3.98-4.02l-13.65-23.35c-3.35-5.4-5.61,2.45-7.03,4.72-2.41,3.85-5.19,7.51-7.69,11.31-1.27,1.93-5.91,11.35-7.65,11.35h-20.5l1.16-4.34,25.67-40.32c2.23-2.75.5-5.01-.99-7.68-7.21-12.99-18.03-26.15-24.68-39.32-.75-1.48-1.52-2.51-1.16-4.34h20.5c2.45,0,17.11,28.12,20,29,1.35.41,1.7-.87,2.35-1.65,5.24-6.33,9.55-17.21,14.67-24.33.43-.59,2.76-3.02,2.98-3.02,2.92,0,19.75-.7,20.5,0Z"/>
  <path class="cls-2" d="M716.52,14.98c.62.16,1.62,1.61,1.53,2.47-.4,7.66.42,15.43.01,23.07-.11,2.07-2.15,9.07-1.04,10.46.3.38,6.56-5.27,7.62-5.87,2.61-1.49,8.06-2.67,11.06-2.93.65-.05,7.67.74,8.66.96,3.38.74,10.49,5.5,12.68,8.32,10.67,13.73,4.26,43.17,5.86,59.89-.77,1.35-1.78,2.43-3.35,2.65-1.86.26-14.52-.08-14.52-1.02v-40.5c0-.25-.94-3.98-1.18-4.82-2.1-7.48-11.29-10.02-18.13-7.49-4.12,1.52-7.2,7.05-7.67,11.33-1.28,11.61,1.09,25.31.02,37.02-.13,1.47-.79,4.2-1.99,5.01s-13.52.77-15.08-.02c-.29-.15-1.97-1.89-1.97-2.03V16.48c0-.11,1.39-1.5,1.5-1.5,3.82,0,13.13-.75,16,0Z"/>
  <path class="cls-2" d="M497.02,14.98v54l23.48-23.02c.57-.43,2.84-1.98,3.02-1.98h17c.3,0,1.89,1.65,1.5,2.5l-22.53,22.48c-.39.43-.52.94-.52,1.52,0,1.13,6.04,11.79,7.21,13.86,5.14,9.1,11.58,17.62,15.89,27.15.29.85-1.21,2.5-1.54,2.5h-16c-2.97,0-16.66-29.34-19.01-30-1.06-.3-8.06,6.57-8.37,7.62-1.29,4.41,1.26,18.63-.58,21.42-.76,1.15-1.87.9-3.01.99-1.87.14-14.53,0-14.53-1.03V14.98h18Z"/>
  <path class="cls-2" d="M1018.02,83.98c-.58.57.84,4.25,1.22,5.28,5,13.34,23.24,13.47,31.38,2.78,3.56,2.05,8.16,2.44,11.75,4.09.99.46,1.81,1.04,1.6,2.28-.11.64-4.16,6.27-4.93,7.09-10.43,11.12-31.82,11.98-44.38,4.35-22.41-13.63-21.12-52.47,2.65-64.08,11.72-5.72,28.41-4.71,38.23,4.19,6.05,5.48,9.62,16.52,10.46,24.54.23,2.17.3,9.48-2.48,9.48h-45.5ZM1048.02,69.98c-1.52-9.77-9.57-15.01-19.34-12.84-3.04.68-8.23,5.86-9.21,8.79-.47,1.4-.6,2.59-.45,4.05h29Z"/>
  <path class="cls-2" d="M818.02,107.97c-1.73-2.02-1.95,1.52-2.19,1.76s-3.53,2.21-4.1,2.46c-11.5,5.2-31.74,4.2-37.51-8.93-2.6-5.92-1.65-17.11,1.93-22.65,2.13-3.3,6.22-5.78,9.82-7.18,5.22-2.02,13.91-3.16,19.49-3.51,2-.13,11.14.45,11.55.05.93-.93-.33-7.22-1.53-8.97-4.16-6.1-14.15-6.09-19.48-1.53-1.56,1.34-1.79,4.87-3.6,5.4-2.02.59-14.1.27-15.35-.95-.21-.2-.16-3.54-.03-4.43.81-5.54,6.35-11.33,11.27-13.73,8.45-4.12,25.97-4.12,34.43,0,6.7,3.27,11.02,10.44,12.33,17.67l-.13,48.96c-.22.42-.47.86-.87,1.13-1.06.71-11.78.81-13.42.33-3.35-.97-2.4-5.62-2.63-5.88ZM801.52,81.98c-5.41,1.44-10.88,4.36-11.51,10.53-1.27,12.54,20.61,12.73,25.8.77.75-1.72,3.73-11.29.71-11.29h-15Z"/>
  <path class="cls-2" d="M332.22,52.18c2.72-2.72,12.61-8.35,16.49-9.01,29.07-4.93,50.08,17.56,43.1,46.1-2.63,10.75-13.39,22.31-24.48,24.52-28.68,5.71-51.11-16.42-44.1-45.1,1.16-4.75,5.55-13.06,9-16.5ZM355.73,58.18c-14.71,1.96-17.95,20.5-12.51,32.09s23.54,11.61,29.25-.34c3.62-7.57,3.11-18.37-1.6-25.32-2.94-4.35-10.08-7.11-15.15-6.43Z"/>
  <path class="cls-2" d="M461.81,53.18c.7.69,4.05,5.7,4.66,6.84,5.94,10.89,5.88,27.68-.59,38.32-14.92,24.54-53.51,21.18-63.4-6.33-5.06-14.08-.81-32.58,11.02-42.05s31.12-9.83,43.04-1c1.01.75,4.68,3.63,5.28,4.22ZM446.81,62.18c-.29-.29-4.1-2.49-4.75-2.75-4.41-1.75-10.91-1.4-15.03,1.05-2.81,1.67-7.56,8.78-8.01,11.99-1.22,8.8.15,20.67,9.04,24.96,7.24,3.49,16.34,1.83,20.82-5.1s5.02-17.15,1.66-24.38c-.47-1-3.13-5.17-3.73-5.77Z"/>
  <path class="cls-2" d="M867.02,112.98c-.13.13-3.01.94-3.5,1-2.76.32-9.34.4-12.03.03-.88-.12-2.47-.92-2.47-1.53V43.98h14.5c1.7,0,1.76,6.2,2.5,7,.63.68,1.9-.53,2.5-.99,2.03-1.56,3.65-3.6,6.2-4.8,9.98-4.7,26.07-2.57,32.77,6.82,10.07,14.11,3.67,41.75,5.55,58.5-.6,4.37-13.14,4.29-16.4,3.35-.75-.22-2.28-1.75-2.5-2.5l-.14-40.86c-1.81-9.98-10.55-14.49-19.7-9.73-2.19,1.14-4.4,4.26-5.5,6.5-.35.71-1.78,3.99-1.78,4.22v41.5Z"/>
  <path class="cls-2" d="M108.87,174.12c.23.25,1.1,2.71,1.03,3.19-.97,6.26-9.95,4.34-14.36,4.68-1.21.09-2.37.95-3.98,1.02-6.48.31-13.07-.32-19.54-.04l5.52,1.98c5.16.64,9.16.33,14,.04s16.06.89,19.31-2.2c1.18-1.12,1.99-5.18,3.16-6.34,3.24-3.18,13.55-9.07,17.98-12.02,2.76-1.84,1.97-2.84,6.57-2.49,3.31.25,3.85,1.03,3.31,4.37-.5,3.08-2.3,2.42-3.33,3.63-13.77,16.25-23.73,22.26-43.49,30.54-2.34.98-5,2.06-7.5,2.55l-39.25-9.91c-2.41-.23-4.61,1.62-7.64.72-.9-.27-6.44-6.91-7.64-8.35s-8.04-10.12-8.04-11.02c0-2.1,6.68-6.17,8.72-7.35,7.98-4.6,15.26-6.57,24.65-4.97,8.09,1.38,17.77,8.84,26.21,9.79,5.95.67,13.21-.79,18.98.02.69.1,5.15,1.93,5.35,2.14Z"/>
  <path class="cls-2" d="M99.02,31.98c1.34-1.13.15-1.92-1.49-2-1.99-.1-4.01.17-5.99-.02-1.05-.1-2.04-.9-3.04-.96-5.01-.31-17.46-.81-21.81.14-4.96,1.08-5.45,6.33-8.13,8.87s-16.81,11.55-20.03,11.97c-4.75.62-6.06-3.25-3.54-6.54,3.6-4.7,9.8-7.74,13.52-12.48,9.86-7.66,21.4-12.62,32.18-18.82,13.19-1.28,25.97,2.44,38.86,3.82,2.3.25,8.61-1.78,9.39-.9.23.25.25,1.52,1.04,2.43,2.72,3.12,13.05,13.11,13.96,16.1.32,1.04.08,1.53-.38,2.41-.29.57-6.49,5.71-7.55,6.45-10.95,7.61-21.97,9.71-35.02,6.06-5.28-1.48-11.47-5.46-16.65-6.35s-10.3.17-15.63-1.37c-.64-.18-4.43-1.72-4.61-1.89-.24-.22-.19-3.53.04-4.34s3.12-2.6,3.4-2.6h31.5Z"/>
  <path class="cls-2" d="M683.81,51.18c.72.72,4.51,6.42,5,7.5.68,1.52,1.78,3.41.23,4.8-2.55,2.29-10.14,1.75-13.54,3.52-2.46.06-3.55-3.99-5.5-5.52-4.39-3.44-12.08-3.33-17-1.04-9.6,4.47-10.99,19.78-7.52,28.56,2.55,6.46,10.89,11.01,17.85,9.76,1.08-.19,6.97-2.47,7.51-2.99,1.08-1.04,2.94-6.45,3.24-6.76.26-.26,6.18-.17,7.42-.04s9.13,1.69,9.5,2c2.09,1.72-3.48,10.7-4.96,12.49-9.82,11.92-28.99,14.88-42.36,7.32-15.22-8.6-20.37-24.14-17.47-41.15,1.65-9.66,10.62-20.59,19.51-24.49,8-3.51,22.14-3.23,30.01.59,1.29.62,7.22,4.56,8.08,5.42Z"/>
  <path class="cls-2" d="M15.98,169.01c.15.18.13,1.5,1,2.49,5.97,6.84,11.4,13.83,17.03,21,1.71,2.18,5.95,4.07,2.84,7.31-.35.36-1.59.41-2.34,1.12-1.35,1.27-2.57,2.9-3.96,4.07-.76.64-4.8,3.82-5.11,3.91-3.37.98-7.59-7.24-9.66-9.73-1.62-1.94-3.8-4.31-5.72-6.73-3.24-4.06-6.74-7.98-10-12.04-.61-2.03,5.41-4.83,6.93-5.98,1.43-1.08,7.48-7.25,9-5.43Z"/>
  <path class="cls-2" d="M151.09,36.9c-.21-.25-.21-1.52-1.03-2.45-6.35-7.28-13.19-14.28-18.96-22.1-.94-3.13,3.61-4.73,5.43-6.36,2.18-1.94,6.21-7.61,9.51-5.55,1.09.68,3.89,3.8,4.99,5.01,2.98,3.26,6.02,7.7,8.96,11.04,1.94,2.21,7.52,6.54,7.97,9.08.26,1.46-.77,1.59-1.59,2.26-2.45,2-9.02,7.66-11.36,8.64-.99.42-3.47.96-3.93.43Z"/>
  <path class="cls-1" d="M725.02,166.98c.13-.14,3.72-.11,3.91.14.33.45-.24,2.32.58,1.86,4.56-2.59,10.14-3.43,14.01.99s2.59,13.45-2.79,16.22c-3.26,1.68-5.66,2.17-9.02.58-.83-.39-2.42-2.13-2.7-1.8-.51.62.49,8.49,0,9-.14.15-4,.2-4,0,0-3.79-.92-26.01,0-27ZM733.68,170.12c-5.69,1.27-7.03,11.32-.72,13.41,3.52,1.16,5.49.39,7.52-2.58,3.46-5.05-1.09-12.1-6.81-10.83Z"/>
  <path class="cls-1" d="M451.02,158.98v28c-4.12.65-2.43-.93-3.04-1.97-.12-.21-3.03,1.76-4.47,1.97-5.1.74-9.73,0-11.98-5.01s-.52-11.78,4.77-14.2c4.01-1.83,10.32.61,10.71.21.97-.97-2.42-10.53,4-9ZM439.68,170.11c-8.79,1.96-5.68,16.5,3.72,13.74,1.4-.41,4.16-4.06,4.49-5.53.98-4.4-3.82-9.18-8.2-8.2Z"/>
  <path class="cls-1" d="M677.02,158.98c.96.15,3.78-.23,4,0,.51.53-.52,9.38,0,10,.21.25,2.64-1.62,3.66-1.84,2.59-.56,7.32-.47,9.35,1.33.39.35,1.99,2.83,1.99,3.01v15.5c0,.2-3.86.15-4,0-1.78-1.88,3.81-15.65-4.49-16.06-4.55-.22-6.03,1.29-6.5,5.58-.21,1.93.34,10.1-.02,10.48-.14.15-4,.2-4,0v-28Z"/>
  <path class="cls-1" d="M562.02,166.98c.13-.14,3.72-.11,3.91.14.31.42-.08,1.5.12,1.83.16.27,2.6-1.59,3.63-1.81,3.13-.67,9.22-.3,10.86,2.82,1.19,2.27,2.28,16.23,1.48,17.02-.18.18-5,.25-5,0v-14.5c0-1.88-9.29-3.24-10.02,1.98s2.86,13.83-4.98,12.52c.51-2.79-.68-19.27,0-20Z"/>
  <path class="cls-1" d="M783.02,178.98h-15c-.34,2.24,2.86,4.46,4.66,4.86,3.44.77,4.71-1.87,6.83-1.9,3.33-.04,3.27,3.11-.46,4.56-10.75,4.19-20.83-5.95-13.89-15.89,5.94-8.51,20.32-2.16,17.86,8.36ZM779.02,175.97c1.45-1.41-2.42-5.76-4.48-6.04-3.37-.45-6.26,1.51-7.51,4.55-.82,2.01,1.34,1.47,2.49,1.49,1.55.03,9.16.33,9.5,0Z"/>
  <path class="cls-1" d="M590.02,178.98c-.23.2,1.51,3.26,2.66,3.84,5.91,2.96,7.22-1.19,10.84-.84,1.71.16.28,3.18-1.78,4.22-4.77,2.39-11.05,1.35-14.19-3.24-6.23-9.13,3.99-20.26,13.83-14.83,3.86,2.13,6.48,10.86,3.14,10.86-2.19,0-13.95-.47-14.5,0ZM602.02,175.97c.66-.64-.27-2.58-.98-3.52-5.17-6.88-13.14,1.39-11.02,3.52.42.42,11.57.42,12,0Z"/>
  <path class="cls-1" d="M719.02,186.98c-.78.81-4.21-.92-5.33-.82-1.4.12-3.38,1.77-4.98,1.63-4.15-.36-8.15-2.68-7.7-7.3.37-3.76,4-4.97,7.53-5.49,1.32-.19,5.22.24,5.48-.02,1.57-1.53-1.82-4.55-3.68-4.89s-11.83,4.73-7.85-1.15c2.15-3.18,12.14-2.64,14.59.48,1.77,2.25,2.81,16.65,1.94,17.56ZM715.02,177.98c-.48-.46-8.98.12-9.98,1.03-.13.12-.15,2.73.03,3.42.68,2.53,8.78,2.44,9.83-1.06.22-.72.24-3.27.12-3.38Z"/>
  <path class="cls-1" d="M468.95,167.04c1.53,4.18,3.15,8.42,5.04,12.46.45.97.56,2.36,2.03,2.47.97-3.95,3-9.93,5.13-13.37.83-1.34,2.99-2.51,3.87-1.62.59.6-1.05,4.93-1.48,6.01-1.85,4.63-5.32,13.37-7.64,17.36-1.83,3.15-5.32,5.34-8.92,4.17-4.11-1.34-3.25-4.85-.62-4.41,2.8.47,5.71,2.17,6.56-2.78.35-2.06-6.92-14.76-7.77-17.97-.92-3.26.93-2.47,3.81-2.31Z"/>
  <path class="cls-1" d="M493.68,167.14c5.52-1.22,12.5,1.21,13.34,7.34.7,5.15-.03,8.64-4.63,11.37-3.57,2.12-6.59,2.14-10.41.67-8.4-3.24-7.52-17.34,1.7-19.38ZM495.68,170.11c-8.7,1.94-6.04,14.85,1.84,13.88,9.15-1.13,6.38-15.71-1.84-13.88Z"/>
  <path class="cls-1" d="M516.02,166.98v14.5c0,1.34,4.61,2.74,6.34,2.36,5.57-1.25,3.26-6.9,3.69-11.34.16-1.67,1.51-3.47,1-5.52h3.98s0,19.99,0,19.99c-5.17.68-3.22-.64-4.04-1.98-.16-.27-2.6,1.59-3.63,1.81-2.6.56-7.32.46-9.35-1.33-.39-.35-1.99-2.83-1.99-3.01v-15.5c0-.2,3.21.13,4,0Z"/>
  <path class="cls-1" d="M407.02,166.98c.13-.14,3.72-.11,3.91.14.34.45-.24,2.32.58,1.86,3.13-1.77,6.03-3,9.88-1.88.57.17,4.63,4.06,4.63,4.37v15.5c0,.2-3.86.15-4,0-1.88-1.98,4.95-19.81-8.4-15.9-4.5,1.32-1.7,14.94-2.6,15.9-.14.15-4,.2-4,0,0-2.85-.68-19.27,0-20Z"/>
  <path class="cls-1" d="M392.02,160.98c.11.1.15,3,0,3h-14c-.45,0-.32,8.68,0,9,.44.44,10.32-.27,12.5,0,1.21.15.95,3.63-1.97,4.03-1.89.26-10.14-.42-10.53-.03-1.07,1.07,2.62,11.6-4,10v-26c2.56.45,17.34-.61,18,0Z"/>
  <path class="cls-1" d="M626.02,166.98c1.42,1.31-6.06,7.81-6.05,9.49.01,2.86,7.66,8.95,6.05,10.51-.48.46-3.46.1-4.51-.99-.93-.96-2.88-5.61-4.94-5-1.57.47-2.68,3.94-4,5.03-1.09.9-3.95,1.49-4.55.95-1.25-1.14,6.04-7.94,6.05-10.51,0-1.86-7.29-8.39-6.05-9.49.7-.62,3.44.14,4.53.97,1.54,1.16,3.17,4.8,3.97,5.03,2.1.6,3.63-3.95,4.95-5.05,1.09-.91,3.97-1.49,4.55-.95Z"/>
  <path class="cls-1" d="M673.02,171.97c-.47.42-3.93-.12-5.05-.44-2.58-.73-2.44-2.29-6.26-.37-5.5,2.77-3.98,11.61,1.99,12.7,2.23.41,7.93-3.14,9.32-1.89,2.17,1.96-6.67,6-8.5,6-2.04,0-6.64-2.29-7.98-4.02-6.74-8.72.35-18.47,10.98-16.98,1.77.25,7.1,3.56,5.5,5Z"/>
  <path class="cls-2" d="M131.02,158.98c.89.74-.5,3.07-1.48,4.02-2.61,2.52-9.13,6.3-12.48,8.52-2.05,1.36-1.93,2.98-5.52,2.5-.74-.1-.18-2.6-2.4-2.15-1.22-3.26,2.36-3.63,4.83-5.44,2.79-2.04,9.6-8.3,12.57-8.51.67-.05,4.28.89,4.47,1.05Z"/>
  <path class="cls-1" d="M755.02,162.97c.33.38-.32,3.65,0,4.01.3.33,4.63-.35,5,0,.11.1.11,2.9,0,3-.38.35-4.66-.34-5,0-.44.44-.21,11.41.09,12.42.97,3.3,5.42.07,5.91.59.14.14.12,3.84-.03,3.96-.14.12-3.22.81-3.66.85-1.41.13-5.17-1.48-5.84-2.79-1.6-3.15.44-9.95-.56-13.44-.6-2.1-3.44-1.28-3.92-1.6-.12-.08-.12-2.89,0-2.98.39-.33,3.7.32,4.01,0s-.33-3.63,0-4.01c.13-.15,3.87-.15,4,0Z"/>
  <path class="cls-1" d="M635.02,162.97c.33.38-.32,3.65,0,4.01s5.6-.38,6,0c.11.1.11,2.9,0,3-.48.42-4.31-.89-5.54.96-.69,1.03-.8,9.95-.37,11.46.8,2.81,6.31,1.04,6.91,1.59,2.52,2.28-4.83,3.61-7.37,2.87-6.3-1.84-2.55-16.04-3.64-16.86-.46-.35-2.54.28-3-.02-.13-.08-.13-2.92,0-3,.46-.3,2.57.33,3,0,.35-.28-.32-3.61,0-4,.13-.15,3.87-.15,4,0Z"/>
  <path class="cls-2" d="M66.02,41.98c.63,2.46-.61,1.6-1.31,2.16-3.77,3.01-12.57,10.33-17.17,9.85-.41-.04-3.36-.93-3.51-1.04-.12-.1-.48-2.49.61-2.99,5.15-2.37,10.13-6.88,15.01-9.87,2.82-1.11,3.84,1.77,6.38,1.89Z"/>
  <path class="cls-1" d="M788.02,166.98c.74-.78,3.76.72,4.68.8,3.25.29,7.2-3.83,6.33,2.7-.11.84-4.69.47-5.86,1.65-2.36,2.37-.43,14.1-1.15,14.86-.14.15-4,.2-4,0,0-2.84-.69-19.28,0-20Z"/>
  <path class="cls-1" d="M537.02,166.98c.13-.14,3.72-.11,3.91.14.31.42-.08,1.5.12,1.83.16.26,2.61-1.57,3.62-1.82,3.54-.88,3.83-.1,3.35,3.35-.13.92-2.57.24-4.03.97-5.54,2.79-1.75,14.24-2.97,15.53-.14.15-4,.2-4,0,0-2.85-.68-19.27,0-20Z"/>
  <path class="cls-2" d="M117.02,161.97c-3.81.29-7.65,5.99-10.64,6.86-2.81.81-7.28-.28-10.36.14l14.63-10.86c2.99-.88,6.29.45,6.37,3.86Z"/>
  <path class="cls-2" d="M78.02,43.98c1.05.93-.96,2.27-1.66,2.84-1.82,1.48-11.33,7.77-13,8.05-.95.15-4.1-1.56-4.34-2.39-.35-1.22,1.22-2.25,2.04-2.96s7.14-5.29,7.58-5.42c1.01-.3,9.03-.43,9.38-.12Z"/>
  <path class="cls-1" d="M400.02,166.98v20c0,.15-3,.15-3,0v-20c0-.15,2.37.1,3,0Z"/>
  <path class="cls-1" d="M401.02,158.98c.42.38.14,4.57-1.54,4.99-.17.04-3.28-.91-3.41-1.04-.14-.14-.19-3.82-.05-3.95.18-.17,4.82-.17,5,0Z"/>
  <path class="cls-2" d="M95.02,87.99c3.15-.55,5.75-2.64,8.71-3.8,7.04-2.76,18.26-5.66,25.74-6.26,1.56-.13,5.04-.23,5.54,1.54,1.33,4.68-5.19,3.19-7.48,3.52-4.64.67-10.25,1.93-14.78,3.22-4.93,1.4-9.76,3.44-14.38,5.63-2.76.66-3.77-1.42-3.36-3.86Z"/>
  <path class="cls-2" d="M135.02,92.98c.2.19-.09,3.02-.03,3.96-9.8,1.63-19.51,2.46-29.01,5.5-1.89.6-9.59,4.87-10.96,3.54-1.28-1.25,1.27-4.07,2.63-4.87,6.95-4.1,17.91-6.14,25.84-7.16,1.09-.14,2.04-.85,3.05-.95,1.35-.13,8.17-.31,8.48-.02Z"/>
  <path class="cls-2" d="M95.02,119.97c-1.98-1.92,3.39-5.13,4.7-5.79,3.4-1.72,13.18-4.88,16.82-5.21,3.94-.36,4.79,3.78,1.84,4.87-3.11,1.15-7.9,1.55-11.39,2.61-2.43.74-10.37,5.08-11.98,3.52Z"/>
  <path class="cls-3" d="M51.02,110.98c-3.09.33-3.97-3.32-5.27-4.78-.25-.28-1.16-.1-1.49-.47-.53-.59.12-1.77-.75-1.78-3.69-.04-5.54,5.85-9.49,5.03v-38l11.49,1.01c1.23.4,5.51,1.37,5.51,2.49v36.5Z"/>
</svg>