<?xml version="1.0" encoding="UTF-8"?>
<svg id="Layer_1" data-name="Layer 1" xmlns="http://www.w3.org/2000/svg" viewBox="0 0 645.12 378.4">
  <defs>
    <style>
      .cls-1 {
        fill: #0d0f0f;
      }

      .cls-2 {
        fill: #273032;
      }

      .cls-3 {
        fill: #b14638;
      }
    </style>
  </defs>
  <path class="cls-3" d="M645.12,251.12h-1c-.14-3.98.2-8.03,0-12h1v12Z"/>
  <path class="cls-2" d="M57.62,48.12c1.64.13,5.71.84,7.81,1.19,7.39,1.25,16.89,6.78,20.53,13.47,1.94,3.55,1.61,4.18,2.18,7.82.18,1.11.93,2.1,1.01,3.08.05.67-.95,6.74-1.2,7.79-.28,1.18-2.56,5.51-3.36,6.64-2.25,3.16-6.01,5.13-8.47,8.02,7.61,1.5,16,9.83,16.98,17.52,2.64,20.62-8.21,29.8-27.29,32.67-.62.09-.99.81-1.19.81H3.12V48.12h54.5ZM26.62,65.12c-.33.51-1.5,1.23-1.5,1.5v21c0,.11,1.39,1.5,1.5,1.5h26c.4,0,6.58-2.05,7.52-2.48,6.49-2.97,7.73-12.87,2.52-17.55-.83-.75-8.51-3.96-9.04-3.96h-27ZM26.12,130.12h32.5c.35,0,5.91-2.16,6.49-2.51,4.94-2.92,5.74-7.59,5.01-12.99-.49-3.64-5.25-7.57-8.66-8.34-1.04-.24-5.54-1.16-5.84-1.16h-29c-.11,0-1.5,1.39-1.5,1.5v21c0,.16,1.47,1.4,1,2.5Z"/>
  <path class="cls-2" d="M550.12,275.62c-.11,1.34-.72,5.29-1.02,6.98-4.83,27.47-32.71,32.68-56.44,28.49-3.98-.7-21.67-5.8-22.49-9.56-.26-1.2,6.06-10.64,7.18-12.69.52-.95.69-2.61.78-2.72.81-.9,4.78,2.81,6.04,3.46,8.5,4.38,24.16,6.6,32.97,3.05,7.67-3.08,10.2-9.09,11.03-16.97.12-1.12.33-3.8-.54-4.54-4.15,3.6-8.84,6.48-14.21,7.79-11.1,2.71-24.75.5-33.81-6.77-24.51-19.68-15.15-59.38,16.04-65,1.87-.34,6.17-.91,8.03-1.06s11.32,1.73,13.49,2.5c5.1,1.82,7.96,5.26,11.96,8.54.33-1.21-.45-9,0-9h21v67.5ZM501.78,225.28c-1.4.31-5.9,2.83-7.18,3.82-6.9,5.34-8.77,17.49-3.5,24.54,5.93,7.93,15.86,9.98,25.07,7.03,15.09-4.84,16.34-27.38,1.97-34.07-3.7-1.72-12.39-2.19-16.36-1.32Z"/>
  <path class="cls-3" d="M96.12,185.12l-33.06,46.5c-.15,1.7.75,3.08,1.59,4.47,7.69,12.69,19.29,25.71,27.93,38.07,2.05,2.94,4.78,6.52,5.54,9.96h-24.5c-.57,0-6.02-7.75-6.96-9.04-5.87-8.15-11.3-16.74-17.05-24.96l-2.96,2.04-20.02,29.98c-.67.46-3.79,1.98-4.02,1.98H.12c-.37-1.76.18-2.26.98-3.52,6.85-10.72,16.03-21.12,23.47-31.53,3.62-5.06,7.01-10.4,10.44-15.61L1.12,185.12h25.5c2.14,0,21.07,31,23,31,.57,0,6.05-7.75,6.96-9.04,5.11-7.23,9.7-14.88,15.04-21.96h24.5Z"/>
  <path class="cls-2" d="M210.12,179.12v36c1.57.41,1.65-.4,2.49-1.01,7.57-5.44,9.53-6.3,18.98-7.01,1.03-.08,2.01-.97,3.02-.97,2.17,0,9.36,1.49,11.79,2.2,11.08,3.22,17.11,12.06,18.9,23.1.1.62.81.99.81,1.19v50c0,2.95-6.88.59-8.46.46-4.82-.42-8.84,1.3-13.54,1.04v-45.5c0-.24-1.19-3.88-1.46-4.54-3.2-7.92-11.11-9.06-19.04-7.96-4.56.63-11.33,7.23-12.34,11.66-.3,1.34.05,2.67-.15,3.85-.19,1.11-1.01,1.88-1.01,1.99v40.5c-4.29-1.25-9.03-1.29-13.54-1.04-1.52.08-8.46,2.54-8.46-.46v-103.5h22Z"/>
  <path class="cls-2" d="M316.12,42.12v59c1.72.41,1.99-.66,3-1.5,6.69-5.56,13.09-12.58,19.52-18.48,1.59-1.46,9.27-10.02,9.98-10.02h25.5c-3.61,5.2-8.11,9.49-12.48,14.02-1.44,1.49-3.01,2.98-4.5,4.5-2.53,2.59-11.39,10.27-12.55,12.45-.27.5-.68.88-.53,1.53l33.06,43.5h-25.5c-1.16,0-8.06-9.78-9.48-11.52-2.41-2.97-4.61-6.05-7-9-1.02-1.26-7.03-8.29-7.58-8.46-1.38-.41-6.51,5.7-7.92,7.02-.86.8-3.52,1.49-3.52,3.45v18.5h-21V42.12h21Z"/>
  <path class="cls-2" d="M229.83,70.33c21.62-3,44.13,6.82,49.1,29.48,4.59,20.94-7.3,41.97-28.52,47.1-20.78,5.03-44.71-3.22-52.08-24.5-8.08-23.35,6.88-48.66,31.5-52.08ZM233.81,88.31c-18,3.05-20.54,32.46-4.41,40.02,9.44,4.43,21.3,1.05,25.93-8.5,2.98-6.16,3.04-14.45.31-20.74-3.73-8.56-12.79-12.32-21.83-10.79Z"/>
  <path class="cls-2" d="M644.12,239.12c.2,3.97-.14,8.02,0,12l-.65.86-56.35.14c-.27,1.5.19,2.42.79,3.7,5.35,11.3,21.85,13.76,32.5,9.09,1.55-.68,7.74-5.9,8.68-4.78.12.14.11,1.49.99,2.51,1.58,1.84,8.64,7.81,9.02,9.03.59,1.87-7.54,7.81-9.26,8.65-21.04,10.25-53.77,3.65-62.5-19.93-7.77-21.02,1.97-44.95,23.74-51.82,2.63-.83,12.24-2.67,14.49-2.5,3.61.28,10.04,1.38,13.59,2.5,13.38,4.23,24.24,16.33,24.96,30.54ZM624.12,239.12c-1.04-10.97-11.74-17.63-22.31-15.81-6.95,1.2-15.12,8.38-14.69,15.81h37Z"/>
  <path class="cls-2" d="M137.83,70.33c30.54-3.64,56.77,18.27,48.04,50.04-9.77,35.57-66.25,37.46-79.27,3.76-9.25-23.95,5.43-50.72,31.23-53.8ZM140.78,88.28c-1.13.25-5.54,2.58-6.64,3.36-10.99,7.81-10.97,27.15,0,34.95,9.53,6.77,23.98,3.83,28.77-7.18,2.95-6.77,3.03-17.15-1.32-23.27-4.5-6.32-13.22-9.53-20.81-7.86Z"/>
  <path class="cls-2" d="M429.12,284.12v-44.5c-1.55-2.19-1.16-5.23-2.51-7.49-6.02-10.13-24.8-7.52-29.71,3.27-.32.71-1.78,4.94-1.78,5.22v43.5c-4.29-1.25-9.03-1.29-13.54-1.04-1.52.08-8.46,2.54-8.46-.46v-74.5h21c.4,0-.42,7.48,0,8,.28.35,5.86-4.43,7.3-5.19,2.69-1.42,7.27-3.25,10.21-3.79,9.33-1.74,21.83.24,29.44,6.53,6.17,5.1,8.15,12.28,9.21,19.79.08.58.83.95.83,1.17v48c0,2.95-6.88.59-8.46.46-4.82-.42-8.84,1.3-13.54,1.04Z"/>
  <path class="cls-2" d="M353.12,284.12c-.6.61-10.07-1.24-12.55-1.04-1.62.13-6.64,1.9-7.45,1.04-.45-.48.46-7.47,0-8-.98-1.13-7.03,5.62-8.7,5.8-17.69,8.17-45.88-.02-43.27-23.27,1.35-12.09,11.57-16.96,22.29-18.71.62-.1.99-.81,1.19-.81h26.5c.43-6.04-2.35-11.32-7.96-13.54-7.08-2.8-16.07-1.59-23.06,1.03-2.99,1.12-5.66,3.83-8.97,3.5l-7-14.96c2.55-.6,4.48-2.47,6.97-3.54,7.79-3.33,14.18-4.09,22.49-4.51,2.85-.14,3.2-.14,6.05,0,6.39.32,10.04.28,16.17,2.82,9.95,4.13,14.78,10.98,16.49,21.51.1.62.81.99.81,1.19v51.5ZM331.09,252.15c-.16-.14-3.94-.86-4.28-.83-5.19.4-11.4.22-16.17.82-8.35,1.05-11.48,11.35-3.89,15.86,7.2,4.27,18.93,1.72,23.23-5.51,1.07-1.8,1.81-9.72,1.11-10.33Z"/>
  <path class="cls-2" d="M578.12,60.12c.55.55,6.2-1.05,7.54.96,1.08,21.36.13,43.07.49,64.57-.55,4.04-7.12,2.15-10.57,2.43-14.58,1.16-32.06,4.33-45.42,10.58-5.02,2.35-7.42,6.8-14.35,3.27-1.3-.66-1.85-1.82-2.71-2.29-11.03-5.98-30.05-10.5-42.5-11.5-3.87-.31-10.81.78-13.89-.11-.66-.19-1.18-.88-1.5-1.5l-.12-63.94c-.09-4.16,7.31-1.75,8.03-2.47.45-.46-.46-9.55,0-10s10.71-.16,12.55-.04c11.29.7,27.16,4.21,37.15,9.85,1.79,1.01,6.78,5.27,7.81,5.26,1.49-.01,7.15-4.8,9.16-5.9,9.38-5.14,23.38-8.42,33.86-9.14,2.47-.17,12.19-.44,13.52.44,2.11,1.4.3,8.88.96,9.54ZM518.12,130.12v-60.5c0-.82-5.45-4.61-6.66-5.34-11.78-7.16-25.6-8.62-38.86-10.14-1.46-.17-5.48-.12-5.48,1.48v60c0,2.37,10.06,1.31,12.48,1.52,7.26.64,14.62,4,21.81,5.19,2.51-.06,16.08,8.47,16.71,7.79ZM574.12,54.12c-9.01,1.13-18.33,1-27.29,3.21-5.44,1.34-17.29,6-21.25,9.75-.56.53-2.46,3.26-2.46,3.54v59.5l10.98-5.52c8.69-2.45,18.55-6.67,27.54-7.46,2.42-.21,12.48.85,12.48-1.52v-61.5Z"/>
  <path class="cls-2" d="M140.82,206.32c5.05-.64,16.2,2.06,20.99,4.6,2.11,1.12,7.21,4.58,8.85,6.15.62.59,5.28,7.15,5.43,7.59.38,1.18-.77,1.82-1.59,2.32-4.37,2.69-9.6,4.2-13.86,7.17-3.46.37-3.78-3.5-6.54-5.52-7-5.11-18.73-5.1-25.49.45-9.21,7.56-8.9,27.05,1.16,33.88,6.63,4.5,18.01,4.72,24.32-.41,2.05-1.66,3.7-5.53,5.54-5.5,1.21.02,16.26,7.67,16.51,8.57.11.41-3.29,6.12-3.98,7-2.75,3.54-11.45,8.89-15.73,10.27-32.15,10.36-65.29-15.31-54.81-49.81,5.65-18.61,21.84-24.56,39.23-26.77Z"/>
  <path class="cls-2" d="M537.62,163.12c.23-.03.57-.7,1.18-.82,3.01-.57,4.84.06,6.81-3.19.65-1.08.37-2.4,1.49-3.51,2-1.97,8.16-5.09,10.97-7.03,3.02-2.08,7.64-7.52,11.43-6.36,1.49.46,3.01,2.7,2.55,4.31-.09.31-3.29,4.37-3.91,5.11-11.97,14.14-27.51,21.27-44.52,27.56l-34.05-9.11c-8.5,3.33-8.14-1.41-12.43-6.48-1.83-2.17-8.05-7.31-8.08-9.98-.02-2.31,8.56-7.25,10.77-8.3,5.29-2.5,12.94-2.95,18.78-2.19,6.49.85,14.04,6.74,20.21,7.79,4.69.8,10.11-.24,14.85.15,1.33.11,9.03,1.73,9.41,2.09.31.29.19,4.13-.4,5-1.85,2.73-7.29,1.63-10.06,1.94-1.09.12-1.88,1.01-1.99,1.01h-20.5c-.35,1.83,1.81.66,3.51.99,1.08.21,1.88,1.01,1.99,1.01,6.72,0,15.64.76,22,0Z"/>
  <path class="cls-2" d="M534.12,28.12c.08-2.13.45-1.9-1.5-2-4.66-.23-9.39.25-14.05.04-1.6-.07-2.76-.92-3.98-1.02-3.51-.29-9.74.12-12.49,2.47-1.91,1.64-1.55,4.62-2.14,5.36-.64.82-10.74,7.04-12.51,7.99-2,1.08-5.8,3.35-7.85,3.21-2.74-.19-3.12-2.94-2.03-5.09.49-.96,7.59-7.77,9.01-8.99,9.6-8.29,21.3-13.45,32.18-19.82,7.53.02,15.35.9,22.82,1.85,6.14.79,11.51,3.41,17.89,1.05,3.44,3.66,7.43,7.63,10.65,11.41.64.75,3.87,4.77,3.96,5.08.33,1.14-3.37,4.51-4.46,5.46-8.26,7.25-16.9,10.22-28,8.96-6.86-.78-13.99-5.73-20.22-6.78-4.11-.7-14.31.23-17.32-2.68-1.17-1.13-1.34-2.48-.91-3.94,1.05-3.57,14.99-2.79,18.47-2.62,2.07.1,3.63,1.22,5.97,1.11,2.17-.1,4.14-1.55,6.49-1.07Z"/>
  <path class="cls-2" d="M458.74,149.21c.6-.18,1.19-.2,1.79-.03l19.52,23.53c1.05,3.58-8.4,8.59-10.53,11.34-1.69.49-2.37-.3-3.43-1.41-4.83-7.08-11.59-13.58-16.45-20.55-.84-1.2-1.86-2.93-1.45-4.35.3-1.04,9.38-8.18,10.54-8.53Z"/>
  <path class="cls-2" d="M576.04.19c.21.25.21,1.52,1.03,2.45,4.41,5.06,11.13,10.73,15.07,15.95,3.01,3.99,2.45,4.9-1,8.05-2.63,2.39-6.25,3.62-8.58,6.45-2.07.59-7.02-6.93-8.42-8.5-2.31-2.59-11.52-11.62-11.95-14.11s8.53-7.27,9.9-9.89c.82-.59,3.64-.77,3.95-.4Z"/>
  <path class="cls-1" d="M167.12,337.12v33c0,.17-2.81.15-3.47.05-.99-.15-.1-2.06-1.03-2.07-1.59-.03-3.01,1.75-5,2.02-7.95,1.09-14.56-3.22-14.55-11.5,0-6.12,5.24-12.56,11.55-12.58,2.01,0,7.67,2.92,8.5,2.08.49-.5-.49-10.48,0-11,.22-.23,3.04.15,4,0ZM153.78,350.25c-7.24,1.59-7.84,13.42-1.7,15.41,4.56,1.48,9.02.24,10.59-4.49,1.86-5.59-2.89-12.24-8.88-10.92Z"/>
  <path class="cls-1" d="M483.12,347.12c5.16-.68,3.21.62,4.04,1.97.21.35,5.48-2.88,7.51-3.01,3.74-.25,9.03,2.86,10.95,6.05,5.55,9.25-2.97,20.21-13.83,17.83-1.13-.25-3.92-2.62-4.66-1.84-.48.51.48,9.49,0,10-.14.15-4,.2-4,0v-31ZM492.77,350.28c-8.38,1.84-7.71,18.37,4.67,15.67,5.61-1.22,6.5-10.38,2.19-13.85-2.13-1.71-4.07-2.44-6.86-1.82Z"/>
  <path class="cls-1" d="M99.12,339.12c.57.54-.2,5-1.5,5h-15.5c-.45,0-.45,9,0,9h15c.25,0,.25,5,0,5h-15c-.31,1.88.43,11.58,0,12-.18.18-5,.25-5,0v-31c3.02.57,21.2-.75,22,0Z"/>
  <path class="cls-1" d="M428.12,337.12c.96.15,3.78-.23,4,0,.55.58-.57,11.3,0,12,.32.39,1.77-1.46,2.68-1.82,4.43-1.74,11.04-1.65,13.81,2.83.25.41,1.51,3.3,1.51,3.49v16.5c0,.25-5,.25-5,0v-16.5c0-2.61-8.13-3.53-10.55-1.55-.52.43-2.45,3.33-2.45,3.55v14.5c0,.2-4,.2-4,0v-33Z"/>
  <path class="cls-1" d="M550.12,360.12h-18c-.43,3.6,4.36,6.1,7.5,6.08,2.23-.02,6.03-2.29,6.96-2.07,1.37.32,2.05,3.56,1.53,3.98-.23.19-4.92,1.93-5.5,2.01-6.86.96-14.52-2-15.48-9.51-2.4-18.88,24.86-19.34,22.98-.48ZM532.12,357.12c.45.43,11.44.22,12.43-.07,3.67-1.08-1.27-6.27-3.05-6.8-2.56-.76-7.66.38-8.9,2.85-.47.94-.79,3.73-.48,4.03Z"/>
  <path class="cls-1" d="M471.19,370c-.3-.41.11-1.51-.11-1.86-.17-.27-2.6,1.59-3.63,1.82-6.94,1.5-15.5-2.99-11.19-10.2,3.45-5.78,13.91-2.76,14.85-3.64.54-.5-1.28-4.05-1.97-4.53-.52-.35-3.92-1.47-4.53-1.47-1.94,0-4.93,2.48-6.98,2-1.2-.28-2.28-2.21-.53-3.5,4.05-2.97,13.14-3.45,16.51.5,2.81,3.3,3.09,14.26,2.52,18.54-.38,2.87-4.39,3.14-4.96,2.35ZM471.12,359.12c-.81-.77-12.77-.86-10.9,5.4,1.3,4.36,9.73,2.66,10.77-1.02.24-.84.29-4.22.13-4.37Z"/>
  <path class="cls-1" d="M328.12,360.12c-1.61,1.56,2.19,4.97,3.95,5.55,5.39,1.77,8.26-2.17,10.54-1.55,3.62.99-.29,5.21-3.16,5.83-6.34,1.38-12.4-.19-15.55-6.12-3.71-6.98.19-15.82,7.88-17.55,4.42-1,10.82,1.89,12.86,5.82.76,1.46,2.36,8.02-.02,8.02s-15.91-.58-16.5,0ZM341.12,357.12c.83-9.62-14.42-9.29-14,0h14Z"/>
  <path class="cls-1" d="M217.8,346.3c9.66-1.77,17.21,8.86,12.77,17.77-2.99,5.99-11.94,8.27-17.43,4.52-9.81-6.7-6.67-20.21,4.66-22.29ZM218.81,350.28c-11.21,1.77-7.41,18.94,3.68,15.71.75-.22,4.28-3.75,4.5-4.5,1.6-5.47-2.09-12.17-8.18-11.21Z"/>
  <path class="cls-1" d="M194.12,364.12c1.31-.03,1.99-2.82,2.51-3.98,1.22-2.73,4.28-11.65,5.96-13.04,3.43-2.85,4.24-.53,3.08,3.08-1.84,5.75-7.43,18.1-10.33,23.67-2.39,4.57-5.84,4.98-10.75,4.31-2.91-.4-3.18-3.88-1.97-4.03,4.56-.56,8.3,1.88,9.53-4.5l-8.58-19.45c-1.45-3.49-.25-5.8,3.08-3.08,2.93,2.4,5.96,13.1,7.47,17.03Z"/>
  <path class="cls-1" d="M317.12,370.12c-.14.15-4,.2-4,0v-14.5c0-1.43-3.95-5.11-5.66-5.37s-7.34,3.12-7.34,4.37v15.5c0,.25-5,.25-5,0v-23c2.12-.75,4.83.95,6.33.82,2.61-.23,3.92-2.36,7.98-1.64,2.43.43,7.69,3.9,7.69,6.31,0,2.55.6,16.86,0,17.5Z"/>
  <path class="cls-1" d="M259.12,370.12c-.16.16-3.67.17-4.45.06-1.1-.17-.05-2.01-1.05-2.06-3.28,2.95-10.89,2.95-14.05.04-.55-.51-2.46-3.28-2.46-3.54v-17.5c0-.2,4-.2,4,0v14.5c0,.57,2.61,4.08,3.62,4.37,4.12,1.2,8.74-.92,9.38-5.38.44-3.08-1.24-13.7,1.5-14.5,1.21-.35,3.5.65,3.5,1.5,0,3.15.79,21.7,0,22.5Z"/>
  <path class="cls-1" d="M138.12,370.12c-.14.15-3.86.15-4,0-.94-1,2.14-17.23-3.63-18.88-1.58-.45-5.94-.38-7.4.35-3.98,2-.91,12.92-2.06,16.94-.56,1.96-3.17,1.67-4.92,1.58v-23c5.16-.68,3.22.62,4.04,1.97.28.47,5.77-3.59,10.27-2.78,2.43.44,7.69,3.9,7.69,6.31,0,2.55.6,16.86,0,17.5Z"/>
  <path class="cls-1" d="M368.12,346.12c2.49,2.57-6.36,9.12-6.05,12.51.13,1.5,4.25,5.94,5.56,7.48,3.52,4.16.37,5.61-3.04,3.04-1.53-1.15-4.87-7.03-5.97-7.03s-4.44,5.87-5.97,7.03c-1.13.85-3.91,1.56-4.53.97-1.21-1.17.95-3.12,1.52-3.98,1.4-2.15,5.53-6.37,5.54-8.53,0-1.92-8.64-9.96-7.05-11.49.62-.59,3.4.11,4.53.97,1.53,1.15,4.87,7.02,5.97,7.03,1.32,0,6.9-10.68,9.5-7.99Z"/>
  <path class="cls-1" d="M411.8,346.3c2.81-.51,10.4,1.52,11.31,4.32.4,1.22-1.16,2.55-2.51,2.53-2.33-.03-5.02-3.46-7.81-2.92-.58.11-4.17,1.95-4.68,2.38-5.35,4.56-.35,15.89,8.06,13.06,1.27-.43,5-4.53,5.94-1.05.67,2.46-2.64,4.89-4.66,5.33-18.36,4-21.99-20.66-5.65-23.65Z"/>
  <path class="cls-1" d="M517.1,342.12c.35.42-.7,3.4.98,4.54s5.6.04,6.05.46c.11.1.11,2.9,0,3-.79.74-6.45-1.79-7.03,2.47-.44,3.22-.83,12.4,2.65,13.4,2.39.69,7.78-1.25,4.89,3.14-1.55,2.36-9.57.89-11.04-1.99-1.73-3.39,1.03-15.01-1.44-16.57-1.37-.86-5.15.15-2.56-3.48.99-1.39,3.18-.74,3.5-1.01.41-.34-.3-3.58.03-3.97.13-.15,3.85-.15,3.98,0Z"/>
  <path class="cls-1" d="M379.1,342.12c.35.42-.7,3.4.98,4.54s5.6.04,6.05.46c.11.1.11,2.9,0,3-.54.5-5.25-.98-6.54.96-1.01,1.51-.7,13.68.59,14.99.48.49,4.12-.58,5.97.53,1.74,1.04.84,3.05-.59,3.44-3.13.85-8.35.25-9.95-2.9-1.73-3.4,1.03-15.01-1.44-16.57-1.37-.86-5.15.15-2.56-3.48.99-1.39,3.18-.74,3.5-1.01.41-.34-.3-3.58.03-3.97.13-.15,3.85-.15,3.98,0Z"/>
  <path class="cls-1" d="M271.12,370.12c-.18.18-5,.25-5,0v-22.5c0-.61,1.68-1.55,2.52-1.53,1.65.03,2.21,1.74,3.11,1.94,1.48.33,6.41-3.7,7.36-.4,1.12,3.89-3.24,3.09-5.02,3.98-.36.18-2.98,2.81-2.98,3.02,0,2.31.55,14.95,0,15.5Z"/>
  <path class="cls-1" d="M556.12,347.62c.15-.56,1.61-1.75,2.5-1.5,1.21.34,1.1,2.55,2,3,.68-1.58,6.79-3.71,7.5-3,.18.18.19,4.83,0,4.99-.26.23-4.9-.33-6.53,1.98-2.71,3.83-.79,16.31-1.47,17.03-.14.15-4,.2-4,0v-22.5Z"/>
  <path class="cls-1" d="M104.12,370.12v-22.5c0-1.88,5-1.88,5,0v21c0,1.35-3.63,1.82-5,1.5Z"/>
  <path class="cls-2" d="M545.12,147.12c4.96-1.63,9.34-7.1,13.68-7.84,3.53-.6,4.44,2.36,1.84,4.87-3.54,3.42-10.36,6.27-14.05,9.95l-3.42-3.59c-.29-.92,1.33-2.35,1.95-3.39-1.45.48-4.81,1.93-5.48,2.02-2.29.34-5.13-.28-7.52-.02-.56-2.3,1.5-2.31,3.08-3.42,1.77-1.25,9.09-6.47,10.4-6.62,2.27-.25,4.21,1.09,3.48,3.5-.36,1.21-2.73,1.52-3.52,2.52-.6.77-.29,1.75-.45,2.01Z"/>
  <path class="cls-2" d="M505.12,37.12c.58,2.46-.52,1.58-1.31,2.17-2.38,1.76-10.02,7.53-12.19,7.83-3.38.46-8.31.24-4.48-3.48,2.97-2.89,9.43-5.2,12.61-8.43,2.27-.75,3.09,2.08,5.38,1.92Z"/>
  <path class="cls-2" d="M515.12,39.12c1.31,1.12-1.57,2.7-2.31,3.19-2.29,1.53-12.31,8.87-13.69,4.3-.84-2.76.43-2,1.3-2.67,1.46-1.12,5.17-3.89,6.65-4.38,1.36-.45,7.62-.82,8.05-.45Z"/>
  <path class="cls-1" d="M109.1,342.1c-.13.12-3.18.98-3.35.95-3.51-.74-3.84-7.43,1.84-5.89,1.71.46,1.96,4.55,1.51,4.95Z"/>
  <path class="cls-2" d="M531.12,93.12c-.42-.41-.1-2.67,1-3.5s8.04-3.75,9.71-4.29c6.54-2.1,14.2-2.83,20.99-4.04,4.02-.72,4.29,4.01,1.72,4.74-1.44.41-3.31-.14-4.9.1-4.03.61-8.86,1.24-12.81,2.19-2.7.65-14.38,6.08-15.71,4.79Z"/>
  <path class="cls-2" d="M566.12,69.12c.27.27.06,2.19-.48,3.01-1.15,1.75-4.07.7-6,1-7.36,1.17-14.55,2.9-21.53,5.47-1.44.53-5.9,3.6-6.98,2.51-.14-.14-.08-3.79.06-3.93.26-.25,5.58-2.43,6.65-2.85,2.7-1.06,6.23-2.23,9.03-2.97,3.03-.8,17.82-3.67,19.26-2.24Z"/>
  <path class="cls-2" d="M531.12,106.12c-.14-.14-.09-3.79.06-3.93.35-.33,7.69-3.22,8.9-3.61,2.31-.75,6.43-1.9,8.73-2.27,5.09-.8,6.02,3.16,1.06,4.06-2.89-.05-18.01,6.51-18.75,5.74Z"/>
  <path class="cls-3" d="M492.12,98.12c-1.61,1.8-4.63-6.08-7.5-6.06-2.08.02-4.92,4.28-7.5,4.06v-32.5c0-2.39,3.64-.64,4.53-.53,1.93.25,10.47.81,10.47,2.53v32.5Z"/>
</svg>