<?xml version="1.0" encoding="UTF-8"?>
<svg id="Layer_1" data-name="Layer 1" xmlns="http://www.w3.org/2000/svg" viewBox="0 0 180.25 102.41">
  <defs>
    <style>
      .cls-1 {
        fill: #f67a0a;
      }
    </style>
  </defs>
  <path class="cls-1" d="M46.82,10.43c1.83.44,24.98.82,25.87,1.32-5.49,3.26-8.59,9.68-9.69,15.29-1.11,5.65-1.83,9.05,0,15,1.83,5.94,5.13,6.85,11.19,4.66,11.79-4.28,6.25-26.9,28.28-11.63,5.56,3.85,35.9,28.79,39.53,32.97,4.82,5.56-1.97,13.25-8,12-4.25-.88-26.84-22.31-27.99-20.99-.4,2.08.31,2.64,1.48,4.01,5.55,6.51,18.3,13.88,25.52,18.98-.49,4.16-.8,6.76-5,9-1.66.08-3.35-.11-5,0-.33.02-.7-.07-1,0l-24.99-17.99c-.46,2.41.26,2.52,1.63,3.86,5.15,5.05,15.11,11.08,21.37,15.13-.69.53-1.32,2.51-2,3l-1,1c-.86.26-2.82-.05-4,0-13.73.56-15.77-7.44-26.99-11.99-1.99,1.93,16.94,13.86,18.99,13.99-5.18,1.44-2.51,2.29-10,1-5.43-4.28-9.88-10.06-13-16-.05-.33.08-.69,0-1-2.27-9.18-9.41-4.66-9.97-5-.43-.26-1.21-6.09-5.97-7.55-6.42-1.97-10.46,2.57-11.58,2.43-.98-.13-8.66-12.84-16.48-5.88-.92-1.07-5.59-2.13-7.35-5.64l-1.04-1.43,2.38-11.93-2.82-1.78s-1.31,4.03-1.72,4.81l-1.46,2.98c-.65.91-.88,2.92-1.99,3.49-3.45,1.78-10.51-.6-14.61-1.68-.66-.17-2.6-1.06-4.22-1.38-.32-.06-.86-.36-1.19-.42l-4-2L15.01,2.04c1.35-1.25,21.81,5.09,23.99,6.99-.9,9.36-4.56,18.06-7,27-.16.57-.49,1.53-.64,2.1-.32,1.22-.87,2.72-1.36,4.9-.07.31-.37,1.04-.37,1.04l-.46,1.18h0l2.82,1.78c.24-1.08,1.12-4.46,1.12-4.46l.46-2.04s1.45-6.02,1.75-6.69c.17-.44,4.19-16.29,5.11-21.36.66-2.51,2.58-2.52,3.3-2.37l3.1.33Z"/>
  <path class="cls-1" d="M103.19,7.72l1.33.22s15.46,1.14,22.89,2.66c.34.31.73.63,1.03.97,5.34,5.94,21.02,35.11,24.37,43.25.31.76.92,1.55,1.06,1.97l.06,2c-.04.36.12.77.03,1l-2.9,3.09c-1.27.97-2.31,1.77-3.94,2.12l-1,.03c-.64-.07-1.61.23-2,.06-4.3-1.79-19.69-14.88-24.61-18.72-9.03-7.05-24.84-22.12-33.54-17.93-6.54,3.14-6.09,15.32-13.52,17.17-.72.18-4.15,1.03-5.86-.66,0,0-.39-.38-1.88-3.52h0l-.67-4.22.38-5.76s.38-2.3.5-2.88c1.01-4.72,5.72-11.55,6.65-12.6,3.54-4,9.02-5.18,13.74-7.05,8.52-3.37,17.86-1.2,17.86-1.2Z"/>
  <path class="cls-1" d="M146.24,3.57s6.12-2.47,9.02-3.57c5.78,16.9,14.64,32.99,24.99,47.5-.04.48-5.81,3.79-6.98,4.5l-3,2c-2.51,1.42-8.25,4.12-11,5l-1-1c-1.15-1.55-1.79-1.8-3-4-6.26-11.36-21.43-40.57-21.43-40.57l-1.95-3.2s5.59-1.75,6.37-2.23c.42-.26,1.28-.6,2-1,1.96-1.1,5.97-3.43,5.97-3.43Z"/>
  <path class="cls-1" d="M55.27,74c14.31-8.24,18.65,5.32,7,14-4.39.66-8.4,2.99-10.44-3.06-1.63-4.86-1.02-8.38,3.44-10.94Z"/>
  <path class="cls-1" d="M80.27,82c.63,1.35.56,4.04,0,5-1.15,1.98-3.19,5.13-4,6-.65.69-1.88,2.12-2.77,2.55l-1.23.45c-4.5.69-11.05-2.7-8-8,.37-.65,8.63-8.54,9.77-8.76,3.1-.6,4.83-.24,6.23,2.76Z"/>
  <path class="cls-1" d="M82.79,90c3.67,4.66,4.59,5.35,9,9,1.76,1.46-1.28,2.34-3,3l-3.68.41c-3.45-.16-5.14-1.32-5.14-1.32l-1.98-1.05c-.17-.47-1.43-2.35-1.52-3.32-.03-.34.18-1.71.18-1.71,0,0,.56-1.06,1.01-1.49,1.7-1.62,2.21-2.29,3.36-2.84.52-.24,1.17-.54,1.77-.67Z"/>
  <path class="cls-1" d="M51.27,74c-.94,5.38-8.28,5.36-11-1v-1c-.29-.62.28-2.37,0-3,3.76-4.63,11.82.28,11,5Z"/>
</svg>