<svg width="1366" height="419" viewBox="0 0 1366 419" fill="none" xmlns="http://www.w3.org/2000/svg">
<path d="M115.222 167.79C103.882 167.79 93.3124 165.97 83.5124 162.33C73.8524 158.55 65.4524 153.23 58.3124 146.37C51.1724 139.51 45.5724 131.46 41.5124 122.22C37.5924 112.98 35.6324 102.83 35.6324 91.77C35.6324 80.71 37.5924 70.56 41.5124 61.32C45.5724 52.08 51.1724 44.03 58.3124 37.17C65.5924 30.31 74.0624 25.06 83.7224 21.42C93.3824 17.64 103.952 15.75 115.432 15.75C128.172 15.75 139.652 17.99 149.872 22.47C160.232 26.81 168.912 33.25 175.912 41.79L154.072 61.95C149.032 56.21 143.432 51.94 137.272 49.14C131.112 46.2 124.392 44.73 117.112 44.73C110.252 44.73 103.952 45.85 98.2124 48.09C92.4724 50.33 87.5024 53.55 83.3024 57.75C79.1024 61.95 75.8124 66.92 73.4324 72.66C71.1924 78.4 70.0724 84.77 70.0724 91.77C70.0724 98.77 71.1924 105.14 73.4324 110.88C75.8124 116.62 79.1024 121.59 83.3024 125.79C87.5024 129.99 92.4724 133.21 98.2124 135.45C103.952 137.69 110.252 138.81 117.112 138.81C124.392 138.81 131.112 137.41 137.272 134.61C143.432 131.67 149.032 127.26 154.072 121.38L175.912 141.54C168.912 150.08 160.232 156.59 149.872 161.07C139.652 165.55 128.102 167.79 115.222 167.79ZM246.44 166.95C234.4 166.95 223.69 164.43 214.31 159.39C205.07 154.35 197.72 147.49 192.26 138.81C186.94 129.99 184.28 119.98 184.28 108.78C184.28 97.44 186.94 87.43 192.26 78.75C197.72 69.93 205.07 63.07 214.31 58.17C223.69 53.13 234.4 50.61 246.44 50.61C258.34 50.61 268.98 53.13 278.36 58.17C287.74 63.07 295.09 69.86 300.41 78.54C305.73 87.22 308.39 97.3 308.39 108.78C308.39 119.98 305.73 129.99 300.41 138.81C295.09 147.49 287.74 154.35 278.36 159.39C268.98 164.43 258.34 166.95 246.44 166.95ZM246.44 140.07C251.9 140.07 256.8 138.81 261.14 136.29C265.48 133.77 268.91 130.2 271.43 125.58C273.95 120.82 275.21 115.22 275.21 108.78C275.21 102.2 273.95 96.6 271.43 91.98C268.91 87.36 265.48 83.79 261.14 81.27C256.8 78.75 251.9 77.49 246.44 77.49C240.98 77.49 236.08 78.75 231.74 81.27C227.4 83.79 223.9 87.36 221.24 91.98C218.72 96.6 217.46 102.2 217.46 108.78C217.46 115.22 218.72 120.82 221.24 125.58C223.9 130.2 227.4 133.77 231.74 136.29C236.08 138.81 240.98 140.07 246.44 140.07ZM474.977 50.61C483.937 50.61 491.847 52.43 498.707 56.07C505.707 59.57 511.167 65.03 515.087 72.45C519.147 79.73 521.177 89.11 521.177 100.59V165.27H488.417V105.63C488.417 96.53 486.527 89.81 482.747 85.47C478.967 81.13 473.647 78.96 466.787 78.96C462.027 78.96 457.757 80.08 453.977 82.32C450.197 84.42 447.257 87.64 445.157 91.98C443.057 96.32 442.007 101.85 442.007 108.57V165.27H409.247V105.63C409.247 96.53 407.357 89.81 403.577 85.47C399.937 81.13 394.687 78.96 387.827 78.96C383.067 78.96 378.797 80.08 375.017 82.32C371.237 84.42 368.297 87.64 366.197 91.98C364.097 96.32 363.047 101.85 363.047 108.57V165.27H330.287V52.29H361.577V83.16L355.697 74.13C359.617 66.43 365.147 60.62 372.287 56.7C379.567 52.64 387.827 50.61 397.067 50.61C407.427 50.61 416.457 53.27 424.157 58.59C431.997 63.77 437.177 71.75 439.697 82.53L428.147 79.38C431.927 70.56 437.947 63.56 446.207 58.38C454.607 53.2 464.197 50.61 474.977 50.61ZM695.231 50.61C704.191 50.61 712.101 52.43 718.961 56.07C725.961 59.57 731.421 65.03 735.341 72.45C739.401 79.73 741.431 89.11 741.431 100.59V165.27H708.671V105.63C708.671 96.53 706.781 89.81 703.001 85.47C699.221 81.13 693.901 78.96 687.041 78.96C682.281 78.96 678.011 80.08 674.231 82.32C670.451 84.42 667.511 87.64 665.411 91.98C663.311 96.32 662.261 101.85 662.261 108.57V165.27H629.501V105.63C629.501 96.53 627.611 89.81 623.831 85.47C620.191 81.13 614.941 78.96 608.081 78.96C603.321 78.96 599.051 80.08 595.271 82.32C591.491 84.42 588.551 87.64 586.451 91.98C584.351 96.32 583.301 101.85 583.301 108.57V165.27H550.541V52.29H581.831V83.16L575.951 74.13C579.871 66.43 585.401 60.62 592.541 56.7C599.821 52.64 608.081 50.61 617.321 50.61C627.681 50.61 636.711 53.27 644.411 58.59C652.251 63.77 657.431 71.75 659.951 82.53L648.401 79.38C652.181 70.56 658.201 63.56 666.461 58.38C674.861 53.2 684.451 50.61 695.231 50.61ZM818.465 166.95C809.085 166.95 800.685 165.13 793.265 161.49C785.985 157.85 780.315 152.32 776.255 144.9C772.195 137.34 770.165 127.75 770.165 116.13V52.29H802.925V111.3C802.925 120.68 804.885 127.61 808.805 132.09C812.865 136.43 818.535 138.6 825.815 138.6C830.855 138.6 835.335 137.55 839.255 135.45C843.175 133.21 846.255 129.85 848.495 125.37C850.735 120.75 851.855 115.01 851.855 108.15V52.29H884.615V165.27H853.535V134.19L859.205 143.22C855.425 151.06 849.825 157.01 842.405 161.07C835.125 164.99 827.145 166.95 818.465 166.95ZM983.635 50.61C992.595 50.61 1000.57 52.43 1007.57 56.07C1014.71 59.57 1020.31 65.03 1024.37 72.45C1028.43 79.73 1030.46 89.11 1030.46 100.59V165.27H997.705V105.63C997.705 96.53 995.675 89.81 991.615 85.47C987.695 81.13 982.095 78.96 974.815 78.96C969.635 78.96 964.945 80.08 960.745 82.32C956.685 84.42 953.465 87.71 951.085 92.19C948.845 96.67 947.725 102.41 947.725 109.41V165.27H914.965V52.29H946.255V83.58L940.375 74.13C944.435 66.57 950.245 60.76 957.805 56.7C965.365 52.64 973.975 50.61 983.635 50.61ZM1060.16 165.27V52.29H1092.92V165.27H1060.16ZM1076.54 36.54C1070.52 36.54 1065.62 34.79 1061.84 31.29C1058.06 27.79 1056.17 23.45 1056.17 18.27C1056.17 13.09 1058.06 8.75001 1061.84 5.25001C1065.62 1.75001 1070.52 6.91414e-06 1076.54 6.91414e-06C1082.56 6.91414e-06 1087.46 1.68001 1091.24 5.04002C1095.02 8.26002 1096.91 12.46 1096.91 17.64C1096.91 23.1 1095.02 27.65 1091.24 31.29C1087.6 34.79 1082.7 36.54 1076.54 36.54ZM1169.52 166.95C1156.22 166.95 1145.86 163.59 1138.44 156.87C1131.02 150.01 1127.31 139.86 1127.31 126.42V27.3H1160.07V126C1160.07 130.76 1161.33 134.47 1163.85 137.13C1166.37 139.65 1169.8 140.91 1174.14 140.91C1179.32 140.91 1183.73 139.51 1187.37 136.71L1196.19 159.81C1192.83 162.19 1188.77 164.01 1184.01 165.27C1179.39 166.39 1174.56 166.95 1169.52 166.95ZM1109.88 80.01V54.81H1188.21V80.01H1109.88ZM1226.81 207.69C1220.93 207.69 1215.12 206.78 1209.38 204.96C1203.64 203.14 1198.95 200.62 1195.31 197.4L1207.28 174.09C1209.8 176.33 1212.67 178.08 1215.89 179.34C1219.25 180.6 1222.54 181.23 1225.76 181.23C1230.38 181.23 1234.02 180.11 1236.68 177.87C1239.48 175.77 1242 172.2 1244.24 167.16L1250.12 153.3L1252.64 149.73L1293.17 52.29H1324.67L1273.64 172.2C1270 181.3 1265.8 188.44 1261.04 193.62C1256.42 198.8 1251.24 202.44 1245.5 204.54C1239.9 206.64 1233.67 207.69 1226.81 207.69ZM1246.13 169.68L1195.73 52.29H1229.54L1268.6 146.79L1246.13 169.68Z" fill="#232D30"/>
<path d="M0.000313401 417.27V270.27H34.0203V389.55H107.73V417.27H0.000313401ZM179.883 418.95C167.003 418.95 155.663 416.43 145.863 411.39C136.203 406.35 128.713 399.49 123.393 390.81C118.073 381.99 115.413 371.98 115.413 360.78C115.413 349.44 118.003 339.43 123.183 330.75C128.503 321.93 135.713 315.07 144.813 310.17C153.913 305.13 164.203 302.61 175.683 302.61C186.743 302.61 196.683 304.99 205.503 309.75C214.463 314.37 221.533 321.09 226.713 329.91C231.893 338.59 234.483 349.02 234.483 361.2C234.483 362.46 234.413 363.93 234.273 365.61C234.133 367.15 233.993 368.62 233.853 370.02H142.083V350.91H216.633L204.033 356.58C204.033 350.7 202.843 345.59 200.463 341.25C198.083 336.91 194.793 333.55 190.593 331.17C186.393 328.65 181.493 327.39 175.893 327.39C170.293 327.39 165.323 328.65 160.983 331.17C156.783 333.55 153.493 336.98 151.113 341.46C148.733 345.8 147.543 350.98 147.543 357V362.04C147.543 368.2 148.873 373.66 151.533 378.42C154.333 383.04 158.183 386.61 163.083 389.13C168.123 391.51 174.003 392.7 180.723 392.7C186.743 392.7 191.993 391.79 196.473 389.97C201.093 388.15 205.293 385.42 209.073 381.78L226.503 400.68C221.323 406.56 214.813 411.11 206.973 414.33C199.133 417.41 190.103 418.95 179.883 418.95ZM322.518 417.27V395.22L320.418 390.39V350.91C320.418 343.91 318.248 338.45 313.908 334.53C309.708 330.61 303.198 328.65 294.378 328.65C288.358 328.65 282.408 329.63 276.528 331.59C270.788 333.41 265.888 335.93 261.828 339.15L250.068 316.26C256.228 311.92 263.648 308.56 272.328 306.18C281.008 303.8 289.828 302.61 298.788 302.61C316.008 302.61 329.378 306.67 338.898 314.79C348.418 322.91 353.178 335.58 353.178 352.8V417.27H322.518ZM288.078 418.95C279.258 418.95 271.698 417.48 265.398 414.54C259.098 411.46 254.268 407.33 250.908 402.15C247.548 396.97 245.868 391.16 245.868 384.72C245.868 378 247.478 372.12 250.698 367.08C254.058 362.04 259.308 358.12 266.448 355.32C273.588 352.38 282.898 350.91 294.378 350.91H324.408V370.02H297.948C290.248 370.02 284.928 371.28 281.988 373.8C279.188 376.32 277.788 379.47 277.788 383.25C277.788 387.45 279.398 390.81 282.618 393.33C285.978 395.71 290.528 396.9 296.268 396.9C301.728 396.9 306.628 395.64 310.968 393.12C315.308 390.46 318.458 386.61 320.418 381.57L325.458 396.69C323.078 403.97 318.738 409.5 312.438 413.28C306.138 417.06 298.018 418.95 288.078 418.95ZM432.157 418.95C421.517 418.95 411.927 416.57 403.387 411.81C394.847 406.91 388.057 400.12 383.017 391.44C378.117 382.76 375.667 372.54 375.667 360.78C375.667 348.88 378.117 338.59 383.017 329.91C388.057 321.23 394.847 314.51 403.387 309.75C411.927 304.99 421.517 302.61 432.157 302.61C441.677 302.61 450.007 304.71 457.147 308.91C464.287 313.11 469.817 319.48 473.737 328.02C477.657 336.56 479.617 347.48 479.617 360.78C479.617 373.94 477.727 384.86 473.947 393.54C470.167 402.08 464.707 408.45 457.567 412.65C450.567 416.85 442.097 418.95 432.157 418.95ZM437.827 392.07C443.147 392.07 447.977 390.81 452.317 388.29C456.657 385.77 460.087 382.2 462.607 377.58C465.267 372.82 466.597 367.22 466.597 360.78C466.597 354.2 465.267 348.6 462.607 343.98C460.087 339.36 456.657 335.79 452.317 333.27C447.977 330.75 443.147 329.49 437.827 329.49C432.367 329.49 427.467 330.75 423.127 333.27C418.787 335.79 415.287 339.36 412.627 343.98C410.107 348.6 408.847 354.2 408.847 360.78C408.847 367.22 410.107 372.82 412.627 377.58C415.287 382.2 418.787 385.77 423.127 388.29C427.467 390.81 432.367 392.07 437.827 392.07ZM467.437 417.27V394.17L468.067 360.57L465.967 327.18V261.45H498.727V417.27H467.437ZM585.118 418.95C572.238 418.95 560.898 416.43 551.098 411.39C541.438 406.35 533.948 399.49 528.628 390.81C523.308 381.99 520.648 371.98 520.648 360.78C520.648 349.44 523.238 339.43 528.418 330.75C533.738 321.93 540.948 315.07 550.048 310.17C559.148 305.13 569.438 302.61 580.918 302.61C591.978 302.61 601.918 304.99 610.738 309.75C619.698 314.37 626.768 321.09 631.948 329.91C637.128 338.59 639.718 349.02 639.718 361.2C639.718 362.46 639.648 363.93 639.508 365.61C639.368 367.15 639.228 368.62 639.088 370.02H547.318V350.91H621.868L609.268 356.58C609.268 350.7 608.078 345.59 605.698 341.25C603.318 336.91 600.028 333.55 595.828 331.17C591.628 328.65 586.728 327.39 581.128 327.39C575.528 327.39 570.558 328.65 566.218 331.17C562.018 333.55 558.728 336.98 556.348 341.46C553.968 345.8 552.778 350.98 552.778 357V362.04C552.778 368.2 554.108 373.66 556.768 378.42C559.568 383.04 563.418 386.61 568.318 389.13C573.358 391.51 579.238 392.7 585.958 392.7C591.978 392.7 597.228 391.79 601.708 389.97C606.328 388.15 610.528 385.42 614.308 381.78L631.738 400.68C626.558 406.56 620.048 411.11 612.208 414.33C604.368 417.41 595.338 418.95 585.118 418.95ZM661.528 417.27V304.29H692.818V336.21L688.408 326.97C691.768 318.99 697.158 312.97 704.578 308.91C711.998 304.71 721.028 302.61 731.668 302.61V332.85C730.268 332.71 729.008 332.64 727.888 332.64C726.768 332.5 725.578 332.43 724.318 332.43C715.358 332.43 708.078 335.02 702.478 340.2C697.018 345.24 694.288 353.15 694.288 363.93V417.27H661.528ZM818.132 418.95C808.192 418.95 799.652 416.85 792.512 412.65C785.372 408.45 779.912 402.08 776.132 393.54C772.352 384.86 770.462 373.94 770.462 360.78C770.462 347.48 772.422 336.56 776.342 328.02C780.402 319.48 786.002 313.11 793.142 308.91C800.282 304.71 808.612 302.61 818.132 302.61C828.772 302.61 838.292 304.99 846.692 309.75C855.232 314.51 861.952 321.23 866.852 329.91C871.892 338.59 874.412 348.88 874.412 360.78C874.412 372.54 871.892 382.76 866.852 391.44C861.952 400.12 855.232 406.91 846.692 411.81C838.292 416.57 828.772 418.95 818.132 418.95ZM751.352 417.27V261.45H784.112V327.18L782.012 360.57L782.642 394.17V417.27H751.352ZM812.462 392.07C817.922 392.07 822.752 390.81 826.952 388.29C831.292 385.77 834.722 382.2 837.242 377.58C839.902 372.82 841.232 367.22 841.232 360.78C841.232 354.2 839.902 348.6 837.242 343.98C834.722 339.36 831.292 335.79 826.952 333.27C822.752 330.75 817.922 329.49 812.462 329.49C807.002 329.49 802.102 330.75 797.762 333.27C793.422 335.79 789.992 339.36 787.472 343.98C784.952 348.6 783.692 354.2 783.692 360.78C783.692 367.22 784.952 372.82 787.472 377.58C789.992 382.2 793.422 385.77 797.762 388.29C802.102 390.81 807.002 392.07 812.462 392.07ZM950.103 418.95C938.063 418.95 927.353 416.43 917.973 411.39C908.733 406.35 901.383 399.49 895.923 390.81C890.603 381.99 887.943 371.98 887.943 360.78C887.943 349.44 890.603 339.43 895.923 330.75C901.383 321.93 908.733 315.07 917.973 310.17C927.353 305.13 938.063 302.61 950.103 302.61C962.003 302.61 972.643 305.13 982.023 310.17C991.403 315.07 998.753 321.86 1004.07 330.54C1009.39 339.22 1012.05 349.3 1012.05 360.78C1012.05 371.98 1009.39 381.99 1004.07 390.81C998.753 399.49 991.403 406.35 982.023 411.39C972.643 416.43 962.003 418.95 950.103 418.95ZM950.103 392.07C955.563 392.07 960.463 390.81 964.803 388.29C969.143 385.77 972.573 382.2 975.093 377.58C977.613 372.82 978.873 367.22 978.873 360.78C978.873 354.2 977.613 348.6 975.093 343.98C972.573 339.36 969.143 335.79 964.803 333.27C960.463 330.75 955.563 329.49 950.103 329.49C944.643 329.49 939.743 330.75 935.403 333.27C931.063 335.79 927.563 339.36 924.903 343.98C922.383 348.6 921.123 354.2 921.123 360.78C921.123 367.22 922.383 372.82 924.903 377.58C927.563 382.2 931.063 385.77 935.403 388.29C939.743 390.81 944.643 392.07 950.103 392.07ZM1101.4 417.27V395.22L1099.3 390.39V350.91C1099.3 343.91 1097.13 338.45 1092.79 334.53C1088.59 330.61 1082.08 328.65 1073.26 328.65C1067.24 328.65 1061.29 329.63 1055.41 331.59C1049.67 333.41 1044.77 335.93 1040.71 339.15L1028.95 316.26C1035.11 311.92 1042.53 308.56 1051.21 306.18C1059.89 303.8 1068.71 302.61 1077.67 302.61C1094.89 302.61 1108.26 306.67 1117.78 314.79C1127.3 322.91 1132.06 335.58 1132.06 352.8V417.27H1101.4ZM1066.96 418.95C1058.14 418.95 1050.58 417.48 1044.28 414.54C1037.98 411.46 1033.15 407.33 1029.79 402.15C1026.43 396.97 1024.75 391.16 1024.75 384.72C1024.75 378 1026.36 372.12 1029.58 367.08C1032.94 362.04 1038.19 358.12 1045.33 355.32C1052.47 352.38 1061.78 350.91 1073.26 350.91H1103.29V370.02H1076.83C1069.13 370.02 1063.81 371.28 1060.87 373.8C1058.07 376.32 1056.67 379.47 1056.67 383.25C1056.67 387.45 1058.28 390.81 1061.5 393.33C1064.86 395.71 1069.41 396.9 1075.15 396.9C1080.61 396.9 1085.51 395.64 1089.85 393.12C1094.19 390.46 1097.34 386.61 1099.3 381.57L1104.34 396.69C1101.96 403.97 1097.62 409.5 1091.32 413.28C1085.02 417.06 1076.9 418.95 1066.96 418.95ZM1161.71 417.27V304.29H1193V336.21L1188.59 326.97C1191.95 318.99 1197.34 312.97 1204.76 308.91C1212.18 304.71 1221.21 302.61 1231.85 302.61V332.85C1230.45 332.71 1229.19 332.64 1228.07 332.64C1226.95 332.5 1225.76 332.43 1224.5 332.43C1215.54 332.43 1208.26 335.02 1202.66 340.2C1197.2 345.24 1194.47 353.15 1194.47 363.93V417.27H1161.71ZM1299.02 418.95C1288.38 418.95 1278.79 416.57 1270.25 411.81C1261.71 406.91 1254.92 400.12 1249.88 391.44C1244.98 382.76 1242.53 372.54 1242.53 360.78C1242.53 348.88 1244.98 338.59 1249.88 329.91C1254.92 321.23 1261.71 314.51 1270.25 309.75C1278.79 304.99 1288.38 302.61 1299.02 302.61C1308.54 302.61 1316.87 304.71 1324.01 308.91C1331.15 313.11 1336.68 319.48 1340.6 328.02C1344.52 336.56 1346.48 347.48 1346.48 360.78C1346.48 373.94 1344.59 384.86 1340.81 393.54C1337.03 402.08 1331.57 408.45 1324.43 412.65C1317.43 416.85 1308.96 418.95 1299.02 418.95ZM1304.69 392.07C1310.01 392.07 1314.84 390.81 1319.18 388.29C1323.52 385.77 1326.95 382.2 1329.47 377.58C1332.13 372.82 1333.46 367.22 1333.46 360.78C1333.46 354.2 1332.13 348.6 1329.47 343.98C1326.95 339.36 1323.52 335.79 1319.18 333.27C1314.84 330.75 1310.01 329.49 1304.69 329.49C1299.23 329.49 1294.33 330.75 1289.99 333.27C1285.65 335.79 1282.15 339.36 1279.49 343.98C1276.97 348.6 1275.71 354.2 1275.71 360.78C1275.71 367.22 1276.97 372.82 1279.49 377.58C1282.15 382.2 1285.65 385.77 1289.99 388.29C1294.33 390.81 1299.23 392.07 1304.69 392.07ZM1334.3 417.27V394.17L1334.93 360.57L1332.83 327.18V261.45H1365.59V417.27H1334.3Z" fill="#B24334"/>
</svg>
