<?xml version="1.0" encoding="UTF-8"?>
<svg id="Layer_1" data-name="Layer 1" xmlns="http://www.w3.org/2000/svg" viewBox="0 0 766 319.3">
  <defs>
    <style>
      .cls-1 {
        fill: #283134;
      }

      .cls-2 {
        fill: #b14537;
      }
    </style>
  </defs>
  <path class="cls-2" d="M533,319.03c-6.25-.5-16.82-2.94-23-5.5-3.11-1.29-5.79-3.39-8.93-4.58-1.56-1.41,7.5-14.01,7.99-16.87,3.97.39,7.25,3.54,11.41,4.98,20.16,6.96,43.37,4.3,41.53-22.03-19.42,18.89-55.13,9.98-63.77-15.73-8.61-25.64,8.59-50.44,35.24-52.3,10.9-.76,21.86,3.46,29.53,11.03v-10h22v76.5c0,.98-2.18,8.64-2.72,10.28-4.25,12.93-15.94,20.52-28.83,23.16-1.25.26-4.84,1-5.45,1.06-4.07.4-10.87.33-15,0ZM541.68,226.29c-1.19,0-5.63.65-6.98.94-17.53,3.83-19.83,28.48-5.42,36.01,16.23,8.48,35.85-2.13,32.5-21.5-1.61-9.33-10.98-15.47-20.11-15.45Z"/>
  <path class="cls-1" d="M0,33.03l26.04.46,27.46,45.53,27.5-45.99h24l-40,66.5v37.5h-24v-36.5c-12.85-19.59-23.91-39.93-36.17-59.83-1.39-2.25-3.03-4.75-4.83-6.67v-1Z"/>
  <path class="cls-2" d="M766,270.03c-1.73,2.79-2.81,5.94-5,8.5-12.51,14.64-44.27,13.56-60.7,6.69-8.38-3.5-6.79-4.25-3.5-11.89.67-1.55,3.73-8.04,4.77-8.27,10.21,5.55,23.01,8.75,34.71,6.76,8.62-1.46,11.14-9.61,1.76-12.34-11.58-3.37-28.51-1.99-37.59-11.41-6.62-6.87-7.18-19.15-1.93-27.01,10.86-16.25,39.92-16.13,56.48-10.54,1.47.5,6.94,2.63,7.55,3.48.9,1.26.06,1.7-.36,2.72-1.99,4.79-4.88,9.25-6.2,14.32-5.96-5.18-35.32-9.92-37.84-1.36-3.17,10.76,15.34,10.16,22.11,11.59,7.92,1.68,17.04,4.15,22.17,10.83,1.83,2.38,3.05,4.27,2.59,7.44l.98,1.49v9Z"/>
  <path class="cls-2" d="M36,184.03c-.09.73.16,1.32.53,1.93,11.34,18.84,22.57,39.2,34.64,57.4,1.01,1.52,2.38,4.65,4.32,4.68l38-64h19.5v105h-22v-62l-2.85,2.65-28.75,48.4c-3.03-.55-8.81,1.06-10.9-1.05-9.75-15.37-18.76-31.2-28.31-46.69-.55-.89-.89-2.24-2.18-2.32v61h-22v-105h20Z"/>
  <path class="cls-1" d="M226,57.03v49.5c0,.3,2.18,4.87,2.53,5.47,1.78,3.01,6.59,5.54,10.01,5.99,7.84,1.03,15.44-1.57,19.33-8.58.38-.68,2.12-4.61,2.12-4.88v-47.5h24v79.5c0,.11-1.39,1.5-1.5,1.5h-19c-.22,0-1.42-1.4-2.5-1,.52-2.83,2.42-5.73-.5-8-.83.18-.18,1.18-1.16,2.02-17.35,14.86-52.03,8.08-56.13-16.73-.28-1.67-1.21-7.91-1.21-8.79v-48.5h24Z"/>
  <path class="cls-1" d="M134.75,56.27c20.9-2.49,45.28,6.4,51.01,28.5,9.73,37.51-25.96,63.53-60.03,51.03-40.18-14.73-33.54-74.46,9.02-79.53ZM157.74,80.29c-6.18-6.22-18.77-6.85-26.09-2.11-8.68,5.62-9.62,14.78-8.68,24.38.62,6.32,5.92,13.03,11.75,15.25s11.41,2.27,17.29-.27c11.18-4.83,14.34-20.29,9.75-30.78-.43-.98-3.43-5.87-4.03-6.47Z"/>
  <path class="cls-2" d="M235,255.03h-61c3.12,14.11,16.41,17.64,29.46,15.96,5.28-.68,9.38-4.67,13.94-6.91,1.36.29,11.8,12.36,11.57,13.37-19.04,21.13-64.11,15.27-75.17-11.71-14.11-34.43,16.18-66,51.26-57.26,11.73,2.92,23.19,12.19,27.44,23.56.55,1.47,2.5,7.58,2.5,8.5v14.5ZM213,242.03c.65-3.97-1.51-7.58-4-10.5-10.52-12.34-34.48-6.96-35,10.5h39Z"/>
  <path class="cls-2" d="M685,255.03h-60c1.01,15.8,21.38,19.11,33.69,14.19,3.34-1.33,5.71-3.48,8.72-5.16,2.05,2.04,12.03,11.08,11.54,13.36-12.4,14.85-39.2,15.78-55.67,7.82-31.21-15.09-29.78-61.98,2.71-74.72,22.24-8.72,49.47-.15,57.55,23.46.26.76,1.46,5.26,1.46,5.54v15.5ZM664,242.03c-3.49-22.66-37.7-23.2-40,0h40Z"/>
  <path class="cls-2" d="M480,289.03h-21v-9c-9.54,9.97-22.99,11.98-36.02,8.52-11.9-3.16-20.34-13.18-18.92-25.96.89-7.99,7.48-15.32,14.93-18.07,1.09-.4,8.07-2.49,8.51-2.49h29.5c.65-20.73-24.49-18.04-37.7-11.2-1.62.84-2.47,2.49-4.3,2.2-1.23-5.96-6.51-10.19-7.08-16.42,5.9-4,13.77-6.98,20.8-8.35,14.47-2.83,37.18-.96,46.12,12.42,1.14,1.71,5.15,10.33,5.15,11.85v56.5ZM457,255.03h-20.5c-.81,0-6.09,2.12-7.03,2.96-6.38,5.76-1.27,15.19,7,16.07,13.32,1.42,22.77-4.82,20.54-19.04Z"/>
  <path class="cls-2" d="M305.97,230c-5.76-.98-11.53-4.23-17.52-4.92-5.4-.62-18.11-.63-20.97,4.92-4.86,9.45,17.58,10.15,22.78,11.26,8.63,1.83,21.05,5.39,24.29,14.71,4.84,13.9-3.23,26.02-16.28,30.83-17.69,6.52-38.64,3.12-55.28-4.78l7.01-17c.56-.63,9.98,4.2,11.74,4.76,6.38,2.01,27.39,5.04,30.77-1.75,2.88-5.78-1.6-7.53-6.25-8.77-12.67-3.36-29.64-1.98-38.27-13.73-1.53-2.09-2.63-5.48-2.93-8.07-3.23-28.04,30.22-33.32,51.21-29.21,2.47.48,16.48,4.5,16.59,6.24.15,2.22-6.7,12.11-6.89,15.5Z"/>
  <path class="cls-2" d="M384.99,231.03c-5.97-5.18-35.31-9.92-37.84-1.36-3.18,10.77,15.32,10.13,22.11,11.59,10.63,2.29,23.66,5.97,25.5,18.5,4.91,33.36-43.23,34.13-64.76,25.76-2.72-1.06-8.5-3.1-6.56-6.55l7.14-13.92c10.37,5.43,22.93,8.76,34.71,6.76,8.99-1.53,10.51-9.81,1.76-12.34-12.9-3.72-34.02-1.74-40.82-16.18-3.69-7.84-2.58-17,2.77-23.78,11.87-15.05,39.16-14.34,55.78-8.78,2.06.69,7.34,2.34,7.28,4.78l-7.06,15.5Z"/>
  <path class="cls-1" d="M613,57.03c2.89-.02,5.73-.72,7.52,1.98l.03,63.06c-2.14,3.21-12.21,1.6-16.08,1.92-12.87,1.06-25.81,4.18-37.5,9.5-5.35,2.43-8.18,6.77-14.93,2.99-12.23-6.85-24.24-11.25-38.59-12.41-6.36-.51-13.32,1.33-19.01-1.99l-.48-63.47c.18-1.3,5.63-1.86,7.05-1.59.31-2.2-.88-7.34.94-8.55,10.71-1.35,21.93-.04,32.29,2.82,4.81,1.33,13.06,4.23,17.12,6.88,1.82,1.19,3.21,3.74,5.16,3.92,2.43.22,5.46-2.98,7.8-4.25,14.38-7.82,31.36-11.2,47.74-9.36,1.82,1.22.64,6.35.94,8.55ZM555,125.03v-57.5c0-.22-2.26-3.15-2.69-3.53-2.45-2.18-11.14-6.05-14.53-7.25-7.13-2.52-12.9-3.05-20.23-3.77-3.14-.31-11.93-3.23-12.57,1.53.28,9.34-.28,18.73-.02,28.07.07,2.45.95,4.42,1.09,6.91.38,6.92-1.41,13.2-1.07,20.07l.97,2.03c13.4.78,26.71,3.76,39.05,8.95,1.57.66,9.37,5.17,10,4.5ZM609,52.03c-13.97.21-30.76,2.05-42.92,9.58-1.81,1.12-7.08,4.88-7.08,6.92v56.5c3.64.26,6.06-2.72,9.3-4.2,12.23-5.58,27.31-8.69,40.7-8.8v-60Z"/>
  <path class="cls-1" d="M355,56.03v21c-5.92-.23-12.13.21-17.35,3.14-.61.34-4.06,2.78-4.38,3.12-.57.6-4.26,7.77-4.26,8.24v45.5h-24V57.03h23l.5,9c6.71-7.13,16.66-10.87,26.5-10Z"/>
  <path class="cls-1" d="M579,143.03c-2.54.75-5.81,1.05-8.5,1-1.52-.03-2.9.72-2.49-1.5,5.27-2.24,13.83-13.56,17.55-5.45,4.98-.1,6.82-5.07,12.44-2.05.33,1.56-.48,2.08-1.49,3.01-2.19,2.02-5.75,3.93-8.22,5.78-.78.59-3.53,2-2.29,3.2s12.99-9.21,15.67-9.83c4.13-.95,6.57.66,4.85,4.85-5.64,4.43-10.93,12.44-16.56,16.44-4.74,3.36-17.61,9.47-23.27,11.73-1.89.75-4.18,1.8-6.2,1.88-8.61.32-22.89-7.18-32.07-8.03-2.63-.24-5.52,1.22-6.77.87-1.64-.46-11.68-12.94-13.69-15.39-2.43-2.96,3.52-6.02,5.7-7.35,9.58-5.83,16.96-6.62,27.6-2.95,4.08,1.41,9.28,4.85,13.43,5.57,6.47,1.13,13.8.36,19.77,1.23s7.65,6.85.99,7.94c-1.25.21-5.66,1.04-5.97,1.04h-22.5v1c1.65-.81,4.03,1,4.5,1h24c.19,0,3.04-1.28,3.46-1.54,2.53-1.59,3.28-4.17,4.1-6.89.02-.83-4.41-.69-4.06-5.57,8.18-2.4,7.48-8.27,1-2.48-1.01.9-.91,1.29-1,2.48Z"/>
  <path class="cls-1" d="M530,37.03c-4.57.99-10.47,8.21-14.95,3.44l.9-3.99c5.46-4.18,10.47-10.01,16.08-13.92,3.41-2.37,22.64-13.07,25.63-13.3,12.44.84,24.81,4.66,37.33,3.21,3.37,4.03,7.75,8.08,11.02,12.06,2.49,3.04,4.05,4.2,1.02,7.03-9.17,8.57-17.68,11.87-30.47,10.42-5.98-.68-11.72-4.35-17.27-5.73-4.13-1.03-8.81-.69-12.77-1.23-.71-.1-5.25-1.85-5.42-2.08-.28-.39-.25-4.59-.02-4.82.96.18,2.23-1.08,2.42-1.08h26.5c.08-2.12.46-1.9-1.49-2-4.33-.21-8.72.23-13.05.04-1.69-.08-3.18-.93-4.93-1.07-4.41-.34-9.34.21-11.99,4.08-.55.81-.49,2.14-1.06,2.95-.99,1.41-3.49,1.42-4.49,4.01-1.75.47-2.01-.08-3,2Z"/>
  <path class="cls-1" d="M533,35.03c.55-.15,1.42.17,2.29-.16,1.04-.39,1.88-2.04,3.06-1.76.93.22,1.97,2.32,3.65,1.93.69,1.67-3.04,3.78-2,4.99,1.5,1.74,2.96-2.95,3.61-3.05,2.8-.41,6.45.39,9.39.05.27,1.39-.09,1.65-1.02,2.47-.68.6-10.01,6.21-10.65,6.35-1.3.3-3.32.53-4.4-.26-1.34-.98-.22-4.6-2.42-3.56-1.78.83-3.27,4.01-7.02,3.96-2.17-.03-4.19-1.02-3.46-3.43.45-1.5,3.85-2.02,5-3.03s.68-1.89.97-2.5c.81-.18,2.62.29,2.98-.04.3-.28-.16-1.49.02-1.96Z"/>
  <path class="cls-1" d="M496.64,144.15c2.98-.93,5.05,1.84,6.89,3.86,5,5.48,9.24,12.2,14.36,17.66,1.4,4.73-7.04,7.78-9.51,11.28-2.24.66-5.83-3.69-7.38-5.41-4.89-5.46-9.11-12.49-13.88-18.17-.22-.57-.2-1.13-.04-1.71s8.92-7.3,9.57-7.51Z"/>
  <path class="cls-1" d="M627.77,23.81c-3.83,1.4-8.91,8.46-13.16,7.14-1.02-.32-9.93-12.4-11.6-14.43-1.17-1.43-7.97-6.73-5.95-8.43.26-.22,1.55-.26,2.45-1.02,2.55-2.15,7.73-7.95,10.9-6.96l18.15,19.92c.84,1.22-.25,2.53-.79,3.77Z"/>
  <path class="cls-1" d="M597.73,78.22c3.96-.66,4.3,3.92,1.65,4.7-7.51.44-15.26,1.25-22.41,3.59-2,.66-3.85,2.08-6.22,2.78-1.91.57-2.21,1.35-3.76-.77-.5-1.7,1.92-2.37,2.99-3.01,8.28-5.01,18.42-5.73,27.75-7.3Z"/>
  <path class="cls-1" d="M601,70.03c-7.76.72-15.89,1.71-23.28,4.22-2.37.81-4.38,2.27-6.96,3.04-1.91.57-2.21,1.35-3.76-.77-.5-1.7,1.92-2.37,2.99-3.01,5.52-3.33,12.38-4.79,18.56-6.44,4.67.97,12.89-4.49,12.45,2.95Z"/>
  <path class="cls-1" d="M588,96.03c-6.12.33-11.62,3.57-17.24,5.27-1.91.58-2.22,1.33-3.76-.77-.5-1.7,1.92-2.37,2.99-3.01,3.63-2.19,11.53-4.73,15.71-5.34,2.08-.3,2.63,2.14,2.31,3.85Z"/>
  <path class="cls-2" d="M529,62.03v32c-3.05-1.03-3.76-6.97-7.37-5.92-1.79.52-3.03,4.43-5.63,3.92v-32l13,2Z"/>
</svg>