<?xml version="1.0" encoding="UTF-8"?>
<svg id="Layer_1" data-name="Layer 1" xmlns="http://www.w3.org/2000/svg" viewBox="0 0 706.02 346.39">
  <defs>
    <style>
      .cls-1 {
        fill: #263032;
      }

      .cls-2 {
        fill: #b14537;
      }
    </style>
  </defs>
  <path class="cls-2" d="M0,227.03c8.25.84,18.55-1.13,26.52-.02.83.11,1.54.21,2.01.99l25.97,81.03,28.1-82.05,25.36.1,24.29,77.21,2.75,4.74,27.51-82h25.5l-38.56,117.05-29.35-.13-25.09-77.92-2.04,2.46-25.05,75.45-29.87.04L0,228.03v-1Z"/>
  <path class="cls-2" d="M274,346.03c-.09,0-.46-.81-1.52-.96-10.05-1.4-18.36-3.54-27.45-8.08-.89-.85,6.47-17.46,7.94-18.53.54-.4.7-.47,1.39-.35,1.79.3,7.64,3.79,10.37,4.69,7.13,2.34,33.29,7.04,36.11-2.43,3.2-10.7-15.7-10.14-22.27-11.42-11.11-2.17-28.31-5.96-31.12-18.88-1.66-7.61-.85-16.88,4.03-23.07,15.31-19.46,51.19-15.85,71.53-6.97l-8.01,19c-6.07-2.16-12.03-5.28-18.56-5.93-6.03-.61-20.84-1.29-23.94,4.92-4.32,8.64,8.78,10.67,14.27,11.75,12.52,2.47,32.04,3.05,37.76,17.24,6.06,15.03-2.56,28.76-16.53,34.53-3.94,1.63-12.24,4.08-16,4.5-4.3.48-13.7.48-18,0Z"/>
  <path class="cls-2" d="M581,346.03c-.71-.07-3.9-.8-5.43-1.07-8.58-1.49-16.66-4.43-24.54-7.97-.26-1.08.05-2.01.41-3.02.65-1.82,6.83-15,7.52-15.51.54-.39.71-.47,1.39-.35,1.79.31,7.64,3.79,10.37,4.69,8.37,2.75,26.61,5.9,33.78.23,5.45-4.31,2.3-9.63-3.48-11.54-9.28-3.07-20.58-2.38-30.29-5.71-14.95-5.13-21.93-18.48-16.25-33.76,8.04-21.65,46.54-21.25,64.76-15.75,1.28.39,9.35,3.42,9.75,3.76,1,.83-7.7,16.34-8.01,19-5.78-1.83-11.42-5.24-17.56-5.94-5.57-.64-17.26-.87-21.78,2.09-3.08,2.02-4.65,4.31-3.5,8.2,1.71,5.76,21.03,6.75,26.27,7.72,10.57,1.95,24.56,7.17,27.12,18.88,3.44,15.72-4.3,26.08-18.28,31.83-4.55,1.87-11.79,3.83-16.27,4.23s-11.74.42-16,0Z"/>
  <path class="cls-2" d="M678,346.03c-2.43-1.74-5.84-1.7-8.71-2.79-5.9-2.24-11.51-7.1-14.16-12.84-.63-1.37-3.13-8.04-3.13-8.87v-45.5h-14v-20h14v-22h26v22h22v20h-22v41.5c0,.31,3.01,5.05,3.24,5.26,2.61,2.42,8.62,2.62,12.05,2.03,1.95-.34,5.88-2.78,6.22-2.77.36.01,1.09,1.11,1.34,1.65.97,2.08,5.91,16.46,5.09,17.27l-14.93,5.07h-13Z"/>
  <path class="cls-2" d="M369,262.03l11.99-6.51c19.6-6.24,43.02-1.86,50.79,19.24.86,2.34,3.22,10.83,3.22,12.78v56c0,.11-1.39,1.5-1.5,1.5h-24c-.11,0-1.5-1.39-1.5-1.5v-55c0-.3-2.05-4.74-2.53-5.47-5.44-8.17-16.91-8.98-25.48-5.54-2.95,1.18-6.82,4.84-8.45,7.55-.35.57-2.53,5.16-2.53,5.46v53c0,.11-1.39,1.5-1.5,1.5h-24c-.11,0-1.5-1.39-1.5-1.5v-123.5h25.5c.11,0,1.5,1.39,1.5,1.5v40.5Z"/>
  <path class="cls-1" d="M456.74,52.27c33.89-4.71,64.4,15.69,60.2,52.2-6.51,56.52-104.48,53.41-98.96-11.96,1.67-19.78,19.21-37.52,38.77-40.23ZM462.72,73.25c-27.45,4.7-24.27,54.05,8.74,49.74,4.84-.63,12.92-5.34,15.42-9.58,3.5-5.93,4.62-16.2,3.1-22.84-2.83-12.37-14.92-19.43-27.26-17.31Z"/>
  <path class="cls-1" d="M560,53.03v50.5c0,.34,1.17,5.57,1.45,6.55,4.51,15.69,27.33,15.45,34.74,1.64.51-.95,2.81-5.82,2.81-6.19v-52.5h27v90h-25c-.45,0,.46-8.48,0-9-.8-.91-9.01,6.37-10.74,6.75-25.19,9.31-51.72.86-55.49-28.02-.08-.58-.77-.98-.77-1.23v-58.5h26Z"/>
  <path class="cls-1" d="M335.5,26.03l31,51c2.05.38,1.21-.48,1.69-1.3,9.72-16.77,20.05-33.26,30.31-49.7h25.5c.01,1.91-1.29,3.67-2.17,5.33-12.74,24.02-29.86,47.1-42.83,71.17v40.5h-27v-42.5l-43.22-70.78-.78-3.72h27.5Z"/>
  <path class="cls-1" d="M213,56.03c.46.45,5.3-.94,6.56.94,1.16,17.03,0,34.43.41,51.59.04,1.74,1.09,3.28,1.1,4.97,0,1.18-1.26,6.55-2,7.07-17.43,1.26-35.12,2.34-51.1,9.9-3.77,1.78-5.6,4.61-10.46,4.61-4.28,0-5.45-2.57-8.81-4.26-10.99-5.51-26.9-8.88-39.16-9.84-2.85-.22-11.86.92-13.09-.91s-.3-29.54-.41-34.59c-.04-1.7-1.01-3.23-1.06-4.94-.17-5.59-.68-14.81.06-20,1-7.01,7.16-3.73,7.97-4.53.58-.57-1.08-7.2.94-8.56,1.23-.82,10.34-.62,12.59-.48,9.56.62,23.2,3.79,31.84,8.16,2.27,1.15,7.96,5.82,9.14,5.93,2.35.23,6.19-3.84,8.8-5.25,8.73-4.72,22.27-8.19,32.16-8.84,2.33-.15,12.35-.35,13.59.48,2.03,1.35.36,7.98.94,8.56ZM107,51.03v59c0,.42,6.91-.08,8.44.06,10.09.96,20,4.27,29.56,7.44l11,5.5v-56.5c0-.2-2.09-3.05-2.27-3.23-.96-.94-6.28-3.96-7.81-4.7-9.41-4.58-21.08-6.85-31.39-7.61-1.27-.09-7.26-.24-7.53.03ZM209,51.03c-12.76.05-25.95,1.39-37.69,6.81-2.49,1.15-11.31,6.02-11.31,8.69v56.5l14.73-6.77c8.99-3.16,18.34-5.16,27.83-6.17,1.35-.14,6.44.26,6.44-.06v-59Z"/>
  <path class="cls-2" d="M484,220.03v125h-24.5c-.11,0-1.5-1.39-1.5-1.5v-123.5h26Z"/>
  <path class="cls-1" d="M706,52.03v24c-7.33-1.03-13.84-.79-20.35,3.15-3.11,1.87-5.74,4.45-7.16,7.84-.43,1.02-2.48,7.12-2.48,7.51v48.5h-26V53.03h25c.55,0-.79,9.71.5,11,7.44-9.03,18.94-12.96,30.5-12Z"/>
  <path class="cls-2" d="M203,345.03v-91h24.5c.11,0,1.5,1.39,1.5,1.5v88c0,.11-1.39,1.5-1.5,1.5h-24.5Z"/>
  <rect class="cls-2" x="509" y="254.03" width="26" height="90"/>
  <path class="cls-1" d="M186,135.03c-3.62,1.14-1.33,1.4-2,2-.1.09-1.42-.13-2.23.23-2.12.93-4.16,3.42-6.27,3.77-2.47.41-8.18.81-6.02-2.02.48-.63,11.46-7.73,12.18-7.83,2.21-.32,4.14,1.76,4.34,3.85Z"/>
  <path class="cls-1" d="M186,135.03c4.11-1.29,8.06-5.44,12-1.49l-6.07,4.95c-.92.57-.66,2.11-.92,2.54,3.72-1.46,9.07-6.55,11.66-6.84s6.14,3.01,3.38,5.38c-4.64,4.22-8.16,10-13.01,13.98-4.58,3.77-11.85,7.15-17.33,9.67-2.98,1.37-9.09,4.6-11.65,5.35-7.69,2.24-25.53-6.68-34.63-7.5-2.85-.26-5.59,1.43-7.42.5l-12.91-15.18c-.72-2.46,4.5-5.97,6.56-7.22,7.95-4.83,17.55-5.64,26.37-2.66,4.66,1.57,9.91,5.48,14.7,6.3,5.98,1.02,18.64-1.78,22.34,2.66,1.57,1.89,1.04,4.07-1.04,5.06-.43.21-5.22,1.49-5.51,1.49h-24.5c-.34,1.72,1.06.68,2.46,1.03.89.22,1.93.97,2.04.97h23c.29,0,5.11-1.99,5.31-2.19.63-.63.91-2.95,2.15-4.35,2.27-2.54,5.81-2.89,8.04-6.46-.39.15-1.4-.12-2.29.18-2.23.77-4.67,4.43-7.07,3.73-.89-.26-2.96-2.33-2.65-3.4.25-.85,2.63-1.78,3.55-2.51.76-.6,1.34-1.95,1.45-2,.96-.45,2.31,1.15,2-2Z"/>
  <path class="cls-1" d="M143.5,24.03c-4.07,1.14-3.89,4.98-5.96,7.04-1.14,1.14-14.01,9.49-15.22,9.77-2.74.63-7.33.5-6.21-3.2.8-2.64,15.38-14.41,18.54-16.47,4.11-2.67,17.26-10.52,21.31-11.69s17.26.97,22.49,1.61c2.89.35,7.43,2.01,10.06,2.01,2.21,0,4.47-1.82,6.88-.97,1.55,2.49,13.9,14.86,13.58,16.3-.67,2.98-14.4,11.2-17.91,12.15-13.55,3.65-20.04-2.63-31.77-5.34-3.85-.89-15.18-.69-16.82-3.18-.6-.92-.73-4.74-.41-4.99.34-.27,5.34-1.03,6.41-1.09,7.63-.47,14.85,2.62,22.54.04.38-.95-3.3-2-3.5-2h-24Z"/>
  <path class="cls-2" d="M214.78,212.23c6.22-.56,14.03,3.17,16.45,9.08,2.63,6.43-.7,15.45-6.93,18.51-8,3.93-19.83,1.81-23.5-7.08-4.41-10.69,3.16-19.53,13.98-20.51Z"/>
  <path class="cls-2" d="M520.78,212.23c4.15-.38,10.06,1.61,13.17,4.35,7.08,6.24,4.78,18.3-2.99,22.91s-21.93,1.69-24.5-7.41c-3-10.64,3.79-18.89,14.32-19.85Z"/>
  <path class="cls-1" d="M98.64,141.16c1.11-.34,2.43-.36,3.41.33l17.92,22.13c.27,1.2-2.87,3.97-3.94,4.94-1.81,1.64-7.06,6.48-9.07,5.02l-17.83-22.19c-.29-1.15-.4-2.37.33-3.41.33-.47,8.64-6.66,9.18-6.83Z"/>
  <path class="cls-1" d="M227.88,22.92c-.11.16-1.62.43-2.38,1.07-1.81,1.52-7.91,7.37-9.87,6.95-1.48-.32-16.77-19.3-18.61-22.34,3.55-2.37,8.93-9.72,13.33-8.46,1.19.34,8.99,10.51,10.65,12.39,1.93,2.19,9.03,7.33,6.88,10.38Z"/>
  <path class="cls-1" d="M143,37.03c1.67-.42,4.88-1.16,6.43-1.01.44.04,3.42.9,3.56,1.02.71.58-12.46,11.52-15.52,7.01-.97-1.42.19-1.93.53-3.01,3.5-.44,1.49-1.58,2-2,.77-.64,3.35,1.61,3-2Z"/>
  <path class="cls-1" d="M143,37.03c-2.84.72-2.04,1.34-3,2-.23.15-1.36-.34-1.85.15s-.01,1.42-.15,1.85c-3.86.48-2.78,1.2-5.04,2.46-2.1,1.16-6,2.09-7.93.5-.11-.09-.1-2.79.02-2.9.25-.22,2.23-.53,3.29-1.21,1.83-1.17,8.45-6.47,9.31-6.73,2.86-.86,5.08.99,5.36,3.88Z"/>
  <path class="cls-1" d="M201,77.03c.15.13.15,3.86,0,4-.21.19-4.13-.1-5.44.07-9.34,1.17-15.13,3.76-23.51,6.48-4.92,1.6-5.77-1.46-2.43-3.43,2.53-1.5,9.34-3.87,12.35-4.65,2.67-.7,17.94-3.46,19.04-2.46Z"/>
  <path class="cls-1" d="M201,65.03c.26.26.07,2.22-.47,3.03-1.15,1.72-4.84.7-6.97,1.03-5.52.88-12.23,2.7-17.58,4.42-1.58.51-6.53,3.92-7.98,2.51-3-2.91,7.7-6.4,9.47-7.02,3.48-1.22,21.67-5.81,23.52-3.97Z"/>
  <path class="cls-1" d="M188,91.03c.3.3.17,3.07-.98,3.51-2.99-.31-18.12,6.38-19.01,5.48-.58-.58.07-2.6,1.01-3.49,2.09-1.99,17.42-7.04,18.99-5.51Z"/>
  <path class="cls-2" d="M131,61.03v31c-3.13.31-4.87-5.06-7.5-5.06-2.24,0-3.35,4.13-6.5,3.06v-31c4.79-.46,9.29,1.56,14,2Z"/>
</svg>