<?xml version="1.0" encoding="UTF-8"?>
<svg id="Layer_1" data-name="Layer 1" xmlns="http://www.w3.org/2000/svg" viewBox="0 0 613.09 399.06">
  <defs>
    <style>
      .cls-1 {
        fill: #262f31;
      }

      .cls-2 {
        fill: #b14437;
      }
    </style>
  </defs>
  <rect class="cls-2" x="612.09" y="42.98" width="1" height="26"/>
  <path class="cls-2" d="M91.59,175.98c.26.03.59.75,1.17.83,14.01,1.88,27.4,6.29,34.13,19.87,4.21,8.51,3.03,22.5-1.93,30.66-3.18,5.24-7.62,7.55-11.86,11.63,19.99,5.27,29.05,30.18,19.46,47.96-.74,1.37-4.68,6.86-5.66,7.84-.41.41-1.55.51-2.31,1.16-8.43,7.22-19.01,9.01-29.82,10.22-.57.06-.93.83-1.17.83H16.09v-131h75.5ZM85.59,198.98h-39.5v31h33.5c.35,0,5.61-.95,6.81-1.19,8.67-1.71,13.86-8.39,12.67-17.29-.13-.99-1.78-5.95-2.22-6.34-.3-.26-1.16-.06-1.52-.42s-.01-1.27-.85-1.8c-1.04-.66-7.98-3.8-8.89-3.95ZM90.59,251.98h-44.5v32h42.5c.3,0,4.74-.92,5.84-1.16,4.19-.91,10.05-5.87,10.66-10.34,1.29-9.39-1.05-15.63-9.96-19.04-.76-.29-4.11-1.4-4.54-1.46Z"/>
  <path class="cls-2" d="M432.09,167.98v78c.75-.48,2.46-.88,2.83-1.22,12.24-11.1,24-25.57,37.69-35.76.78-.58,2.64-3.02,2.98-3.02h33.5l-40.98,43.44,44.98,57.56h-34.5c-1.23,0-12.77-16.74-15.52-18.48-4.67-5.76-9.12-12.53-13.96-18.04-2.28-2.59-2.43-3.24-5.02-.98-1.6,1.4-12,11.15-12,12v25.5h-29v-139h29Z"/>
  <path class="cls-1" d="M345.77,42.17c1.09-.09,2.34.8,3.78.85,25.36.92,46.98,15.45,51.52,41.47,6.67,38.2-24.56,64.78-61.46,61.46-34.55-3.11-56.13-34.77-46.28-68.23,7.13-24.23,29.37-33.58,52.44-35.55ZM343.8,66.19c-34.34,3.9-30.61,60.68,7.77,55.76,6.56-.84,14.36-6.81,17.37-12.63,9.72-18.8-1.83-45.79-25.14-43.14Z"/>
  <path class="cls-2" d="M249.83,288.77c-.13.16-2.02,2.01-2.7,2.72-23.28,24.21-68.92,22.28-88.5-5.56-15.81-22.48-10.14-56.58,13.09-71.82,25.46-16.71,66.71-11.16,82.21,16.52,9.8,17.51,8.36,42.25-4.1,58.14ZM198.78,229.17c-20.53,3.49-25.67,33.93-12.22,47.84,8.36,8.64,25.05,9.77,34.49,2.43,14.52-11.3,13.38-38.97-3-47.91-5.26-2.87-13.36-3.35-19.26-2.35Z"/>
  <path class="cls-2" d="M282.31,225.15c1.19-1.09,1.36-1.2,2.73-2.69,27.17-29.74,86.78-21.34,96.84,20.22,10.49,43.36-28.16,73.43-69.1,64.1-31.53-7.19-48.54-40.91-36.2-70.83.56-1.37,5.27-10.37,5.74-10.81ZM320.75,229.14c-1.57.34-7.71,3.7-9.18,4.82-11.41,8.62-12.48,29.97-3.94,40.98,6.22,8,15.26,9.95,25,9.09,21.07-1.88,26.77-30.72,15.93-46.02-1.57-2.21-6.3-6.15-8.76-7.24-4.26-1.89-14.57-2.6-19.05-1.62Z"/>
  <path class="cls-1" d="M450.09,43.98v61.5c0,.41,3.22,6.07,3.52,7.48,12.57,14.54,34.65,9.13,39.27-9.68.25-1.02,1.21-4.54,1.21-4.79v-54.5h29v99.5c0,.11-1.39,1.5-1.5,1.5h-26.5c-.6,0,.45-10.69,0-12-1.55-.24-.87,1.47-1.98,2.51-15.97,14.96-49.76,14.12-63.47-3.56-4.68-6.03-6.75-12.9-7.71-20.29-.08-.58-.83-.95-.83-1.17V43.98h29Z"/>
  <path class="cls-1" d="M200.09,13.98c.21.2,1.37,4,2.15,5.35,8.88,15.27,18.51,30.22,27.69,45.31,1.15,1.88,2.07,6.29,4.65,6.35l27.66-46.35c1.72-1.46,6.02-10.65,7.35-10.65h28.5c.26,1.4-.54,2.21-1.18,3.32-15.34,27.15-33.05,53.22-48.82,80.18v46c0,.11-1.39,1.5-1.5,1.5h-28.5v-46.5c-15.78-25.63-31.39-51.69-46.55-77.45-1.33-2.27-3.92-4.12-3.45-7.05,4.16.84,30.84-1.1,32,0Z"/>
  <path class="cls-2" d="M545.24,240.82c.36.37,8.41,3.67,9.52,3.98,11.98,3.31,24,2,36.02,7.98,18.03,8.96,19.16,32.83,3.82,45.22-17.07,13.79-52.06,12.02-71.53,4.5-1.4-.54-8.02-3.76-8.54-4.48-.75-1.03.29-3.17.77-4.32,2.1-4.99,5.08-9.76,7.33-14.7.35-.78.39-1.94.46-2.02.57-.65,8.94,4.1,10.71,4.79,9.72,3.77,28.56,6.71,37.98,2.41,4.07-1.86,6.61-4.67,5.18-9.58-.73-2.51-7.84-5.02-10.4-5.59-15.64-3.5-35.19-1.85-45.93-16.07-8.05-10.66-4.7-29.09,5.5-37.41,15.93-12.99,44.23-12.69,63.21-7.3,3.55,1.01,13.29,3.2,11.3,7.81-2.07,2.28-7.58,17.92-9.05,17.92-.37,0-5.09-3.01-6.47-3.51-8.23-2.95-21.94-4.67-30.54-3.46-.94.13-5.63,2-6.49,2.51-3.3,1.97-5.72,8.46-2.85,11.34Z"/>
  <path class="cls-1" d="M612.09,42.98v26c-11.77-1.18-26.49,2.44-30.78,14.72-.47,1.34-2.22,7.23-2.22,7.78v53.5h-29V43.98h28c.6,0-.83,10.61.5,12,8.37-9.19,21.09-13.95,33.5-13Z"/>
  <path class="cls-1" d="M125.09,42.98c.41.41-.41,7.62,0,8,.37.35,5-1.07,6.53,1.97,1.12,17.35.12,35.07.52,52.57-.07.84-.83,4.14-1.09,4.41-.47.48-11.27-.14-13.49,0-10.12.66-24.88,4.51-34.17,8.83-2.58,1.2-3.12,2.92-6.74,3.25-5.7.53-4.71-.86-8.17-2.91-6.89-4.09-24.92-8.46-32.89-9.11-4.48-.36-9.76.56-14.01,0-.86-.11-1.48-.24-2.01-.99l-.49-55.57c-.11-3.96,6.43-1.87,7.03-2.47.35-.35-.25-6.54,0-8h15.5c.11,0,.89.89,1.98,1.02,7.03.84,12.84,1.62,19.53,4.47,2.56,1.09,11.76,7.31,12.48,7.3.95,0,7.53-5.26,9.54-6.25,4.23-2.08,19.38-6.54,23.46-6.54,2.43,0,15.92-.58,16.5,0ZM73.09,110.98v-51.5c0-.78-5.47-4.67-6.66-5.34-9.66-5.42-19.09-6.37-29.82-7.18-1.07-.08-7.52-2.47-7.52.52v51c0,2.27,7.51,1.27,9.48,1.52,4.99.64,10.67,2.58,15.82,3.18,2.69.19,18.01,8.53,18.71,7.79ZM77.09,110.98c3.97,0,7.36-3.04,10.98-4.52,7.29-2.97,16.71-5.57,24.54-6.46,1.98-.23,9.48.74,9.48-1.52v-51c0-3.04-7.09-.66-8.52-.52-10.45,1.05-21.79,2.11-30.84,8.16-1.35.9-5.64,5.14-5.64,6.36v49.5Z"/>
  <path class="cls-1" d="M66.09,137.98c-1.42,1.19,2.57.81,3.51.99,1.08.21,1.88,1.01,1.99,1.01h18c.35,0,6.1-2.04,6.53-2.47,1.21-1.18.74-3.04,1.93-4.07,1.96-1.69,7.26-3.89,9.83-5.72.3-.22.11-1.26.41-1.49,1.73-1.27,9.03-5.99,10.76-4.22.3.31,1.1,3.16.59,3.97-1.37,2.16-12.16,12.56-14.59,14.45-4.5,3.49-14.26,7.99-19.66,10.34-6.03,2.62-8.18,2.52-14.59,1-5.77-1.37-13.56-5.03-19.22-5.78-2.82-.37-7.18.72-9.51-.49-1.45-.75-3.95-5.77-5.23-7.32-.27-.33-1.63-1.45-2.7-2.72-1.42-1.69-3.42-2.17-3.07-4.97.09-.69,10.42-6.49,11.99-7.05,3.21-1.15,7.12-1.75,10.52-1.44,8.63.79,15.61,7.12,25.04,7.95,3.94.35,13.81-1.2,16.02,1.98,1.27,1.84-.46,4.43-2.17,4.92-1.57.44-3.33-.13-4.89.11-1.08.16-1.87,1.02-1.98,1.02-2.79,0-18.75-.62-19.5,0Z"/>
  <path class="cls-1" d="M51.09,32.98c-1.39.8-6.44,3.57-7.66,3.84-3.98.86-7.13.67-4.86-3.86.88-1.75,9.42-8.86,11.57-10.43,7.07-5.19,15.3-8.6,22.6-13.4,9.07-.43,17.94.87,26.84,1.88,1.28.14,2.41.99,4,1.05,1.95.08,4.19-1.14,4.9-.99,2.62.55,9.02,11.12,12.15,12.89,1.56,2.32-1.24,4.52-3.01,6.05-4.75,4.09-11.7,7.54-17.97,8.02-9.43.72-14.98-4.64-22.24-5.85-2.52-.42-18.8-.56-17.31-5.69.99-3.41,13.31-2.6,16.54-2.55,1.6.02,2.85,1.04,3.96,1.04,1.01,0,3.14-.84,4.99-1.02s1.63.4,1.51-1.97h-25.5c-1.85,0-3.37,5.22-3.97,6.05-.91,1.29-1.08-.26-2.53,2.95-3.61.88-2.39,1.08-4,2Z"/>
  <path class="cls-1" d="M55.09,30.98c1.36-.33,3.24-1.25,4.37-.93.56.16,2.55,2.16,2.53,2.42,0,.15-1.01,2.45-1.57,2.55-1.75.31-2.76-1.04-2.33,1.96,2.48.21,4.78-3.32,6.64-3.86.95-.27,6.11-.35,6.36-.14,1.37,1.17-1.71,2.72-2.31,3.18-1.75,1.33-10.23,6.8-11.66,4.81-.61-.85,1.25-3.44-1.54-3.01s-4.75,3.91-7.97,3c-1.08-.3-1.85-1.65-1.02-2.99.96-1.55,3.17-1.87,4.03-3.01.56-.75.4-1.92.48-1.98.41-.34,2.68.92,4-2Z"/>
  <path class="cls-1" d="M285.09,351.98v37c0,.22-3.72.17-4.45.06-1.05-.16-.1-2.06-1.06-2.08-1.54-.03-6.35,3.01-9,3.01-.91,0-5.17-1.28-6.22-1.77-4.24-1.95-7.54-8.2-7.35-12.73.1-2.27,2.97-9.45,4.69-10.54,2.73-1.73,8.56-3.52,11.72-2.79,1.2.28,4.56,2.93,5.65,1.84,1.6-1.6-3.9-14.77,6-12ZM268.75,367.14c-12.04,2.7-4.7,24.45,7.31,16.3,8.12-5.51,2.57-18.52-7.31-16.3Z"/>
  <path class="cls-1" d="M99.09,387.48c-1.09,4.09-6.09-.33-6.61-.45-1.28-.29-2.04,1.71-3.86,1.97-8.45,1.23-15.72-1.77-17.33-10.72-1.46-8.12,3.63-14.68,11.49-16.12,4.47-.82,9.96,3.23,10.31,2.82.56-.66-.55-9.21.09-11.41.78-2.72,5.91-1.59,5.91-.09v34ZM81.71,367.1c-1.27.37-4.71,4.42-5.17,5.82-2.69,8.17,6.29,15.4,13.52,10.52,7.89-5.33,2.29-19.45-8.35-16.35Z"/>
  <path class="cls-1" d="M208.09,351.98v37c-7.38,1.09-4.09-1.83-5-3-.16-.2-2.94,2.12-3.96,2.54-5.84,2.41-13.59.49-16.9-5.18-2.37-4.06-2.28-10.66,0-14.73s8.76-7.25,13.37-6.64c1.78.24,6.79,3.75,7.5,3,.52-.55-.51-12.5,0-13,.28-.27,3.89.19,5,0ZM200.9,369.16c-.14-.14-3.27-1.98-3.46-2.04-9.72-2.87-15.97,9.48-8.89,15.89,5.78,5.24,14.93-.1,14.59-7.56-.06-1.29-1.55-5.57-2.24-6.3Z"/>
  <path class="cls-1" d="M65.09,351.98v37c-7.38,1.09-4.09-1.83-5-3-.16-.2-2.94,2.12-3.96,2.54-7.02,2.9-17.33-.76-18.08-9-.19-2.1-.23-6.01.04-8.04.81-5.94,9.78-10.59,15.34-9.34,1.38.31,5.9,3.64,6.66,2.83.52-.56-.51-12.49,0-13,.28-.27,3.89.19,5,0ZM48.75,367.14c-7.47,1.65-7.88,15.06-.71,17.38,4.39,1.42,7.41.56,10.07-3.03,5.38-7.27-.26-16.37-9.36-14.35Z"/>
  <path class="cls-1" d="M465.09,351.98c.18-.18,4.82-.18,5,0,.51.51-.52,12.45,0,13,.71.75,5.72-2.76,7.5-3,3.71-.5,8.96,1.79,11.54,4.46,4.79,4.97,4.21,16.43-1.68,20.4-3.92,2.64-9.02,3.49-13.4,1.68-1.02-.42-3.8-2.74-3.96-2.54-.91,1.18,2.38,4.09-5,3,1-4.62-1.31-35.69,0-37ZM475.73,367.12c-1.51.44-4.65,3.18-5.18,4.82-1.69,5.18.16,10.84,5.49,12.59,14.87,4.89,14.97-21.85-.31-17.4Z"/>
  <path class="cls-1" d="M21.04,354.02c.55,4.57,16.44,33.65,15.05,34.95-.22.2-5.78.21-5.97-.02-.45-.54-1.03-7.11-3.63-7.87-1.39-.41-15.4-.41-16.8,0-2.6.77-3.18,7.34-3.63,7.87-.19.23-5.75.23-5.97.02-1.39-1.3,14.41-30.44,15.06-34.94h5.89ZM11.09,375.98c.51.48,11.9-.36,14,0l-6-15-2.17,1.3c-.74,1.84-6.37,13.19-5.83,13.7Z"/>
  <path class="cls-1" d="M25.91,129.16c.36.35.45,1.56,1.13,2.34,4.86,5.54,9.25,11.43,14.02,17.04v.9c-3.18,1.98-7.74,8.54-11.37,7.44-6.16-5.86-10.55-13.39-16.5-19.5-1.18-4.41,2.37-4.14,4.87-5.92,1.45-1.03,2.71-3.56,4.51-3.53.51,0,3.05.96,3.33,1.23Z"/>
  <path class="cls-1" d="M566.09,351.98v22c1.72.41,1.99-.66,3-1.5,2.86-2.38,8.04-8.54,10.97-10.03,3.58-1.82,7.56-.44,3.36,3.35-1.43,1.29-2.03,2.49-2.54,2.96-1.28,1.15-4.85,2.07-4.84,4.71.01,3.81,9.98,11.04,10.05,15.01.02,1.05-5.05.54-6.03.03-1.85-.96-6.77-10-8.52-10.52-1.06-.31-5.05,3.67-5.33,4.61-1.08,3.71,2.29,8.21-4.54,6.29-3.59-1.01-.68-10.63-.54-13.37.17-3.56-.88-22.71-.05-23.55.28-.27,3.89.19,5,0Z"/>
  <path class="cls-1" d="M111.12,7.02c.19-.15,1.5-.15,2.5-.99,1.53-1.29,2.94-2.22,4.27-3.3.32-.26.09-1.22.37-1.52.55-.57,3.25-1.42,4.2-1.15,2.09.6,7.62,9.93,10.65,11.4.39,2.23,6.43,6.43,5.96,7.96-.32,1.02-7.56,7.21-8.95,8.09-3.45,2.19-7.1-4.88-9.01-7.05-3.09-3.52-6.33-7.03-9.55-10.45-.6-.62-.68-2.79-.44-2.99Z"/>
  <path class="cls-1" d="M233.09,377.98c-.66.61,1.58,4.35,2.44,5.06,1.87,1.53,5.49,2.18,7.87,1.76,1.94-.35,5.54-2.99,6.18-2.81,1.54.42,2.02,4.46,1.47,4.96-.22.2-4.85,1.96-5.46,2.04-5.89.82-11.58.28-15.52-4.48-8.56-10.35,1.75-25.61,14.07-22.06.72.21,6.42,3.37,6.77,3.73,1.31,1.37,5,11.82,1.69,11.82-2.9,0-18.78-.66-19.5,0ZM248.09,373.98c.69-9.87-15.12-9.33-16,0h16Z"/>
  <path class="cls-1" d="M349.09,380.98c1.26,1.67,1.75-.34,2.17-1.3,1-2.28,2.35-4.41,3.34-6.68.75-1.71,3.12-9.39,3.63-9.87,1.95-1.87,7.29-1.23,5.36,1.86-.31.5-.93.85-1.3,1.7-3.45,7.82-6.72,17.97-10.74,25.26-2.1,3.81-5.3,7.13-9.96,7.12-1.28,0-5.36-1.14-6.04-2.05-.62-.84.39-3.88.54-4.03.52-.52,10.54,3.92,11.03-4.5-.93-3.42-11.39-23.63-11.03-24.99.44-1.72,4.35-2.29,5.52-.52l7.49,18.02Z"/>
  <path class="cls-1" d="M155.09,388.98c-.37.39-5.35.39-5.91-1.59s-.5-19.17-.11-21.94c.31-2.21,2.96-4.54,5.07-3.02,1.01.73.75,2.92,1.45,2.53,5.52-3.05,11.6-4.98,16.54.47.65.71,2.96,5.62,2.96,6.04v17.5c-1.92-.02-5.29.6-5.91-1.59-1.09-3.8.55-11.48-.06-15.94s-8.04-5.76-11.56-2.52c-.55.51-2.46,3.28-2.46,3.54,0,2.43.57,15.9,0,16.5Z"/>
  <path class="cls-1" d="M141.09,388.98c-.16.16-3.67.17-4.45.06-1.1-.17-.05-2.01-1.05-2.06-6.94,6.61-23.01-.57-15.98-9.98,4.03-5.39,15.84-3.42,16.48-4.02.47-.44-.98-3.45-1.49-4.01-4.69-5.12-11.11.74-13.96-.01-1.43-.38-2.05-3.55-1.54-3.97.32-.26,6.86-2.67,7.69-2.82,3.5-.63,8.39.19,11.29,2.32.78.58,3.02,3.48,3.02,3.98,0,2.91.72,19.77,0,20.5ZM136.09,376.98c-.6-.57-14.92-1.42-12.9,5.4,1.2,4.06,8.21,3.49,11.3,1.66,1.39-.82,2.16-6.52,1.6-7.05Z"/>
  <path class="cls-1" d="M538.77,362.17c13.18-2.3,22.02,14.61,11.83,23.82-.58.52-3.69,2.7-4.16,2.84-2,.58-9.32.37-11.41-.31-2.93-.95-7.14-6.29-7.79-9.21-1.76-7.97,3.57-15.75,11.53-17.14ZM534.24,369.14c-.17.17-1.89,4.02-2,4.5-1.81,7.92,6.82,14.54,13.81,9.81s3.73-16.95-5.49-16.53c-1.22.06-5.71,1.61-6.32,2.22Z"/>
  <path class="cls-1" d="M499.3,366.19c.39-.39,3.96-2.39,4.77-2.73,14.54-6.23,26.25,10.78,16.06,22.06-6.94,7.68-22.49,3.7-24.03-7.04-.49-3.4.74-9.85,3.21-12.29ZM503.27,369.16c-.17.18-1.94,4.02-2.03,4.47-2.29,10.36,12.12,15.61,16.36,7.36,3.87-7.53-1.55-15.35-10.04-14.03-.55.08-4.05,1.95-4.29,2.2Z"/>
  <path class="cls-1" d="M368.3,385.77c-.35-.35-2.92-4.88-3.05-5.45-.39-1.75-.38-5.04-.2-6.88,1.07-11.2,16.81-15,24.08-7,3.99,4.4,4.35,14.88-.05,19.03-1.86,1.76-8.04,4.5-10.49,4.5-2.01,0-8.84-2.75-10.29-4.2ZM375.75,367.14c-5.02,1.12-6.84,7.73-5.54,12.21.22.74,4.76,5.28,5.5,5.5,14.6,4.26,16.18-21.29.04-17.71Z"/>
  <path class="cls-1" d="M403.09,361.98v16.5c0,.34,1.79,4.01,2.45,4.55.82.67,4.11,1.95,5.06,1.96,2.19.02,7.49-4.76,7.49-6.52v-15c0-1.88,5-1.88,5,0v25.5c0,.22-3.73.17-4.45.06-1.02-.16-.34-1.67-.58-2.03-.67-.97-2.72,1.43-3.65,1.79-6.7,2.57-15.31-.54-16.3-8.33-.33-2.6-.5-14.92.07-16.9s3.17-1.67,4.92-1.58Z"/>
  <path class="cls-1" d="M608.09,363.98c.35.34-.81,4.81-1,5-.5.51-10.3-4.82-13.54-.04-.54.8-.69,2.85-.46,3.04,1.15.99,8.31,1.62,10.32,2.18,7.01,1.98,8.2,10.89,1.4,14.04-4.16,1.92-8.71,1.87-13.04.61-.64-.19-4.49-1.66-4.67-1.83s.88-3.82,1.02-3.97c.93-1.01,7.97,2.15,10.5,2.04,3.73-.16,7.9-2.9,3.48-5.56-3.47-2.08-12.44-1.23-13.87-6.13-2.31-7.91,5.53-12.05,12.35-11.35.93.1,7.24,1.7,7.52,1.97Z"/>
  <path class="cls-1" d="M313.09,382.48c.09.32,2.1,2.25,2.62,2.4,2.06.63,4.86-1.38,5.38-.9.13.12,1.04,3.28.99,3.46-.68,2.54-8.14,2.25-10.32,1.37-7.4-2.98-3.6-20.86-4.67-21.83-.91-.83-4.84,2-4.03-2.52.62-3.45,3.39-2.01,3.97-2.53.4-.36-.65-3.36,1.01-4.49.9-.61,4.84-.67,5.04-.46.35.37-.34,4.66,0,5,.3.3,4.04-.31,5.42.08,1.96.56,2.19,4.78,1.06,4.92-2.04.25-4.38-.18-6.48,0,.74,4.22-1.01,11.82,0,15.5Z"/>
  <path class="cls-1" d="M431.09,364.48c.05-.17,2.3-2.43,2.51-2.5,2.14-.66,2.18,2.54,2.54,2.97,1.01,1.21,8.51-4.43,9.96-2.97.17.18.13,4.77-.05,4.95-.54.54-5.4,1.17-6.96,2.54-.39.34-1.99,2.83-1.99,3.01v16.5c-1.49.23-6,.1-6-1.5v-23Z"/>
  <path class="cls-1" d="M101.09,121.98c.52-.14,1.38.13,2.27-.19,1.6-.57,3.2-2.82,5.22-2.85,1.35-.02,2.91,1.31,2.51,2.53-.16.48-2.35,2.4-3.04,2.96-1.03.85-8.95,6.24-9.57,6.44-1.31.4-3.04-.25-3.39-1.39-1.15-3.79,2.85-1.27,2-4.5-2.62-.88-2.65,2.93-3.57,3.05-1.18.15-8.11.23-8.42-.05-1.79-1.59.77-1.77,1.31-2.17,1.81-1.34,8.87-6.45,10.37-6.72,1.38-.25,2.56.39,3.76.91,1.05.46.58,1,.56,1.98-6,1.62-1.02,2.98-.09,1.88.29-.34.08-1.31.09-1.88Z"/>
  <path class="cls-1" d="M298.09,361.98v27c0,.25-5,.25-5,0v-25.5c0-1.35,3.63-1.82,5-1.5Z"/>
  <path class="cls-1" d="M295.72,351.05c2.88-.51,5.05,5.97,1.83,6.89-5.13,1.47-8.08-5.79-1.83-6.89Z"/>
  <path class="cls-1" d="M114.09,69.98c.11.1.46,2.54-.6,3-3.24,1.41-5.05.55-7.89,1.02-1.76.29-3.95.82-5.79,1.21-2.47.52-15.1,5.4-15.73,4.77-.11-.11-.46-2.59.59-3.02,5.63-2.3,10.84-4.79,16.94-5.94,1.92-.36,11.78-1.67,12.47-1.03Z"/>
  <path class="cls-1" d="M114.09,58.98c.11.1.46,2.54-.6,3-3.29,1.43-8.72,1.38-12.68,2.23-4.55.98-7.88,2.44-12.03,3.97-5.05,1.86-6.92-.14-2.69-2.69,3.8-2.28,15.99-5.92,20.51-6.49,1.19-.15,7.2-.28,7.48-.02Z"/>
  <path class="cls-1" d="M84.09,90.98c-.81-.78.19-3.03,1.61-3.88,2.93-1.75,9.92-3.96,13.37-4.63,5.31-1.03,5.39,3.32.59,3.59-2.52.07-14.69,5.78-15.57,4.93Z"/>
  <path class="cls-2" d="M51.09,83.98c-1.67,1.81-4.6-4.7-5.55-4.97-2.52-.72-4.6,3.33-7.45,2.97v-27.5c0-.27,1.16-1.05,1.55-1.49,1.91.98,11.45,1.38,11.45,3.49,0,3.85.93,26.49,0,27.5Z"/>
</svg>