<?xml version="1.0" encoding="UTF-8"?>
<svg id="Layer_1" data-name="Layer 1" xmlns="http://www.w3.org/2000/svg" viewBox="0 0 929 260.11">
  <defs>
    <style>
      .cls-1 {
        fill: #293235;
      }

      .cls-2 {
        fill: #18191f;
      }

      .cls-3 {
        fill: #b14537;
      }
    </style>
  </defs>
  <path class="cls-1" d="M0,57.93c6.64.28,13.54-.6,20.03.47l21.47,34.52c6.22-10.65,13.25-20.94,19.36-31.64.68-1.19.97-3.36,1.14-3.36h19c-8.65,14.81-17.45,29.55-26.16,44.34-.78,1.32-4.84,6.58-4.84,7.16v28.5h-19v-29.5c0-.14-1.4-1.31-1.86-2.14-6.98-12.84-15.46-24.79-22.3-37.7L0,58.93v-1Z"/>
  <path class="cls-3" d="M929,114.93v9c-1.9,1.35-2.19,4.14-3.53,5.97-8.51,11.71-35.53,10.67-47.49,5.54-1.2-.51-4.72-2.02-4.95-3.1-.49-2.34,4.86-9.43,4.97-12.41,4.82,1.34,9.42,4.07,14.52,4.98,2.53.45,5.36-.52,7.98,1.01,3.8-1.44,10.54-.3,11.38-5.66.49-3.18-3.34-4.2-5.83-4.88-9.45-2.55-24.94-1.7-30.26-11.74-4.03-7.59-1.78-16.41,4.7-21.73,10.24-8.42,29.63-8.19,41.53-3.5,1.12.44,3.96,1.71,4.52,2.5.71,1.02-4.26,8.57-4.65,10.39-.33.56-.87,1.46-1.44,1.61-.42.11-6.18-2.55-7.97-2.96-3.49-.79-9.39-1.41-12.95-1.01-4.51.51-9.74,2.69-7.05,8,1.85,3.65,18.91,4.6,23.81,6.19,3.27,1.06,8.27,3.94,10.19,6.81,1.14,1.71,1.08,3.82,2.52,4.98Z"/>
  <path class="cls-1" d="M487,63.93c.32.32,6.68-.82,8.55,1.95,1.05,22.7.13,45.74.47,68.57-.06,1.08-1.13,2.57-2,3-2.69,1.35-12.5.2-16.5.5-10.99.81-29.46,4.75-39.54,9.46-2.56,1.2-7.16,4.95-8.63,5.37s-7.36.42-8.73.02c-1.01-.3-2.01-2-3.26-2.74-9.93-5.9-30.35-11.18-41.88-12.12-4-.32-18.45.88-20.43-1.07-.98-.96,1.23-23.74-1.09-27.41,1.16-13.05-1.41-28.27.05-41.04.76-6.63,8.19-3.71,9-4.5.76-.75-1.5-9.03,1.58-9.92,2.27-.65,11.9-.27,14.89-.07,11.45.79,26.55,4.67,36.82,10.18,2.03,1.09,7.8,5.84,9.2,5.86,1.14,0,5.4-3.87,7.16-4.91,10.76-6.36,25.56-10.29,37.86-11.14,2.63-.18,14.19-.45,15.52.44,2.11,1.4.3,8.9.96,9.54ZM423,139.93v-63.5c0-.96-3.9-5.17-5.03-5.97-8.24-5.85-21.42-9.37-31.31-10.69-.58-.08-.95-.83-1.17-.83h-18.5c.22,9.49-.27,19.05-.04,28.54.25,10.39,1.04,17.09.07,27.98-.15,1.63.28,8.62,1,9.46.24.28,5.93-.1,7.45.05,10.69,1.05,21.37,4.18,31.53,7.47,2.42,0,15.39,8.16,15.99,7.51ZM483,58.93h-18.5c-.2,0-.58.73-1.19.81-8.76,1.21-26.44,6.05-32.85,12.15-.69.66-3.46,5.21-3.46,5.54v61c0,.27.9,1.42,2,1.01,3.23-1.19,6.49-3.9,9.71-5.31,11.1-4.85,25.97-7.93,37.81-9.18,1.3-.14,6.48.3,6.48-.02V58.93Z"/>
  <path class="cls-3" d="M615.5,57.93c.24.03.57.71,1.19.81,5.95,1.05,11.25,2.79,15.33,7.67,5.58,6.67,5.54,17.52.45,24.49-1.45,1.98-3.12,2.34-4.45,3.55-2.96,2.7.38,2.37,2.35,3.6,5.03,3.15,9.05,8.19,9.67,14.33,1.04,10.46-2.35,17.71-11.75,22.34-1.56.77-8.6,3.21-9.79,3.21h-52.5V57.93h49.5ZM585,90.93h22.5c.24,0,3.94-1.21,4.54-1.46,5.45-2.33,7.4-8.09,4-13.08-.94-1.38-5.13-4.46-6.54-4.46h-24.5v19ZM585,123.93h28.5c.19,0,3.09-1.26,3.49-1.51,4.1-2.55,4.67-6.4,4.01-10.99-.8-5.5-6.36-5.64-10.5-7.5h-25.5v20Z"/>
  <path class="cls-3" d="M823,52.93c.74.7-.95,4.97-1.04,6.46-.68,10.41-.8,26.74.02,37.06.5,6.33,2.96,1.58,5.5-.54,6.31-5.26,12.43-11.04,18.54-16.49.81-.72,1.5-3.49,3.48-3.49h20.5c-2.57,4.41-25.88,24.34-24.97,27.42l26.97,34.58h-21.5l-15.48-19.52c-2.8-2.33-2.75-4.84-6.02-1.98-1.05.92-7,6.51-7,7v14.5h-17l-1-85c2.68.49,18.31-.65,19,0Z"/>
  <path class="cls-1" d="M106.71,75.14c23.98-2.38,43.05,17.02,37.09,41.1-4.65,18.8-28.7,27.4-45.84,21.23-33.33-11.99-26.79-58.8,8.75-62.32ZM107.69,90.12c-14.31,2.57-17.58,24.22-6.05,31.67,8.89,5.75,23.37.78,24.4-10.32.91-9.81-1.95-19.41-12.73-21.35-1.9-.34-3.71-.34-5.62,0Z"/>
  <path class="cls-3" d="M755.71,75.14c12.45-1.18,26.95,5.21,33.13,16.44,5.09,9.24,4.44,24.45-1.37,33.32-14.39,21.96-55.24,18.05-62.26-8.68-5.71-21.74,9.24-39.06,30.5-41.07ZM755.69,90.12c-6.67,1.2-10.79,5.1-12.48,11.52-1,3.8-1.19,7.81-.03,11.61,4.12,13.45,23.88,15.02,29.61,1.97,2.23-5.07,1.95-13.68-1.32-18.27-3.58-5.02-9.6-7.94-15.78-6.83Z"/>
  <path class="cls-3" d="M707.79,84.13c.3.3,4.51,5.48,4.7,5.8,5.68,9.53,5.91,22.9.7,32.69-9.58,17.99-37.26,21.73-52.71,9.33-17.28-13.87-15.56-41.25,3.82-52.21,12.03-6.8,27.44-5.81,39.06,1.33.69.42,4.16,2.8,4.43,3.07ZM679.69,90.12c-17.34,3-16.38,31.7-1.19,33.81,6.94.96,12.21.22,16.52-5.48,3.71-4.89,4.29-11.05,2.77-16.81-2.23-8.45-9.41-13.02-18.1-11.52Z"/>
  <path class="cls-1" d="M174,75.93v33.5c0,.11.82.89,1.01,1.99.5,2.91.14,5.84,2.49,8.51,4.97,5.65,16.72,4.29,20.98-2.03.49-.73,2.52-5.18,2.52-5.48v-36.5h18v62h-17c-.3,0,.34-5.57,0-6-.3-.38-2.81,2.36-3.64,2.86-14.58,8.94-36.7,4.36-41.17-13.55-.23-.91-1.19-5.51-1.19-5.81v-39.5h18Z"/>
  <path class="cls-1" d="M448.85,164.07c.46.47,1.32,3.36,1.07,4.23-1.3,4.58-11.77,3.36-15.41,3.65-1.2.09-2.37.94-3.98,1.02-5.47.29-11.07-.31-16.54-.04l8.46,2.04c9.77-1.29,26.88,4.13,30.73-7.86l20.46-14.03c2.33-.71,6.59-.09,7.34,2.43.2.66-2.31,4.16-2.96,4.95-10.83,13.25-22.02,19.69-37.32,26.68-2.18,1-8.79,4.31-10.36,4.64-6.03,1.31-27.59-7.87-35.87-8.82-1.8-.21-4.14-.16-5.96,0-2.32.19-4.34,2.87-5.02-.96l-13.02-15.02c-.71-1.16-.83-2.94-.02-4.08.35-.5,8.99-6.18,10.2-6.8,5.97-3.07,14.05-4.08,20.66-2.95,6.98,1.19,15.74,7.96,22.21,8.79,6.64.85,14.91.25,21.98,1.02.61.07,3.12.89,3.36,1.14Z"/>
  <path class="cls-1" d="M440,29.92l-9.45-2.04c-6.63,1.14-21.88-2.63-26.02,3.06-1.23,1.69-1.27,4.34-1.67,4.84-.57.72-13.77,9.1-15.5,10-2.76,1.44-7.97,3.75-9.25-.46s4.11-6.26,6.42-8.38c11.13-10.21,21.93-17.75,35.77-24.23,1.14-.53,3.25-1.39,4.4-1.6,1.83-.34,9.36.56,11.79.84,8.78.99,17.98,3.55,27,2.96,1.01-.07,2.05-1.07,2.91-.9,2.39.5,12.99,15.55,16.15,17.9.47.39.63.89.46,1.47-.45,1.58-13.83,10.67-16.29,11.74-7.71,3.37-14.88,3.5-22.99,1.6-5.94-1.4-12.9-5.66-18.4-6.6-3.8-.65-15.61.16-17.86-3.14-.76-1.12-.77-3.98,0-5.1.84-1.21,7.32-2.12,9.03-1.94,1.25.13,2.37.95,3.98,1.03,6.25.31,13.54.35,19.54-1.05Z"/>
  <path class="cls-1" d="M274,74.93v17c0,.37-6.1-.16-7.48.02-3.17.41-7.09,2.41-8.99,5.01-.64.87-3.53,7.01-3.53,7.47v33.5h-18v-62h17c.4,0-.7,7.05.5,8,5.35-6.46,12.44-8.24,20.5-9Z"/>
  <path class="cls-1" d="M358.62,160.02c.86-.26,1.7-.24,2.41.38,7.48,7.89,13.73,16.91,20.9,25.11l-.39,2.46-11.14,8.89-2.44-.4c-7.65-7.76-13.73-16.92-20.9-25.12-.17-.59-.17-1.22,0-1.81.35-1.21,10.21-9.1,11.55-9.5Z"/>
  <path class="cls-1" d="M484.83,1.1c.36.35.42,1.59,1.12,2.34,5.08,5.4,11.46,11.33,16.07,16.97.5.61,2.87,3.84,2.95,4.07.43,1.34-.88,1.7-1.61,2.3-3.87,3.18-8.21,5.73-11.92,9.12-2.06.59-7.03-6.91-8.42-8.5-2.62-2.97-12.01-12.3-12.88-15.11-.32-1.02-.22-2.24-.06-3.29,2.97-.21,10.62-9.28,12.29-8.99.18.03,2.37,1,2.47,1.1Z"/>
  <path class="cls-2" d="M430,226.93v25.5c0,1.03-2.44,1.69-3.5,1.52-.97-.15.26-2.7-1.96-1.99-1.62.52-2.37,2.07-5.04,2.05-13.64-.11-12.27-21.57.99-20.1,1.52.17,4.83,2.74,5.51,2.02.46-.49-.46-8.51,0-9,.22-.23,3.04.15,4,0ZM415.14,239.07c-2.15,2.14-1.63,10.32,2.33,10.88,10.89,1.54,10.04-11.18,4.05-12.05-1.45-.21-5.45.24-6.38,1.17Z"/>
  <path class="cls-2" d="M375,226.93v25.5c0,1.03-2.44,1.69-3.5,1.52-.97-.15.26-2.7-1.96-1.99-1.62.52-2.37,2.07-5.04,2.05-13.64-.11-12.27-21.57.99-20.1,1.52.17,4.83,2.74,5.51,2.02.46-.49-.46-8.51,0-9,.22-.23,3.04.15,4,0ZM360.14,239.07c-2.15,2.14-1.63,10.32,2.33,10.88,11.42,1.62,11.51-13.05,1.03-12.02-.59.06-3.11.89-3.36,1.14Z"/>
  <path class="cls-2" d="M558,228.43c.33-1.25,3.44-2.06,4-1.5.45.46-.45,8.52,0,9,.57.6,5.08-1.94,6.54-2.04,2.78-.19,8.58,3.07,9.33,5.66.42,1.42.31,5.23.17,6.91-.41,4.9-6.55,8.4-11.39,7.3-2.29-.52-3.85-3.67-4.65-.51-.45,1.79-4,.1-4-.83v-24ZM565.62,238.05c-2.76.79-4.03,5.34-3.18,7.93,2.83,8.59,16.6,2.98,11.05-6.05-1.45-2.37-5.36-2.6-7.87-1.88Z"/>
  <path class="cls-2" d="M272,226.93v27c-1.76.5-3.15-.93-4.54-1.04-1.64-.13-3.11,1-4.93,1.1-7.62.44-12.4-8.56-9.04-15.08,1.24-2.4,6.22-5.22,8.97-5.02,1.38.1,5.35,2.26,5.54,2.04.5-.58-.48-8.49,0-9,.22-.23,3.04.15,4,0ZM259.62,238.05c-2.76.79-4.03,5.34-3.18,7.93,2.83,8.59,16.6,2.98,11.05-6.05-1.45-2.37-5.36-2.6-7.87-1.88Z"/>
  <path class="cls-2" d="M296,226.93v27c-3.36,1.27-2.9-2.01-3.5-2.02-1.58-.04-3.01,1.76-5,2.02-7.83,1.05-14.15-8.04-9.99-14.99,1.5-2.5,5.98-5.25,8.95-5.05,1.38.1,5.35,2.26,5.54,2.04.5-.58-.48-8.49,0-9,.22-.23,3.04.15,4,0ZM283.62,238.05c-2.76.79-4.03,5.34-3.18,7.93,2.75,8.33,16.81,3.32,11.05-6.05-1.46-2.37-5.35-2.6-7.87-1.88Z"/>
  <path class="cls-2" d="M251,253.93c-.4.42-2.68.11-3.5-1-1.2-1.63-1.88-5.23-4.13-5.87-1.55-.45-6.05-.31-7.91-.16-4.64.37-3.95,3.3-5.96,6.04-2.21,2.99-5.02.39-3.05-3.05,3.84-6.17,5.78-13.38,9.35-19.64,1.4-2.46,3.15-3.78,5.07-.68,3.86,6.22,5.77,14.04,9.67,20.33.47.85.72,3.77.45,4.05ZM243,243.93c.24-.24,0-2.37-.44-3.06l-4.56-7.94c-.04,2-4.91,10.13-4,11,.33.31,8.68.32,9,0Z"/>
  <path class="cls-2" d="M646,251.93c-.13.61.18,1.8,0,2-.17.19-4.17.16-5.05-.45-.9-1.12-5.91-8.55-6.45-8.55-.25,0-3.2,3-3.38,3.62-.42,1.44.16,5.08-.13,5.38-.14.15-4,.2-4,0v-27c0-.2,4-.2,4,0v16c2.21-1.1,3.68-3.43,5.48-5.04,1.55-1.39,1.63-1.6,2.69-2.73.72-.77,5.27-1.73,5.83-1.23,1.65,1.5-6.37,5.92-6.05,9.51.12,1.3,5.57,7.64,7.05,8.49,1.07-5.14,3.38-2.02,7.48-1.96,1.57.02,3.74.19,4.52-1.54s-1.67-1.96-2.73-2.26c-1.44-.4-7.7-1.74-8.16-2.35-.13-.17-1-4.02-.97-4.23.45-3.1,4.49-5.39,7.39-5.67,2.66-.25,4.78,1.41,7.46,1.03.55,6.33-.77,3.47-4.51,3-2.83-.36-6.46-1.01-5.48,2.48.8,2.86,11.51.37,11.04,8.03-.42,6.92-11.23,6.25-16.04,3.47Z"/>
  <path class="cls-2" d="M351,253.93c-.14.15-3.86.15-4,0-1.16-1.23,2.53-15.16-3.47-16.03-10.81-1.56-4.42,10.73-7,15.05-1.23,2.06-4.53.48-4.53-.53v-17c0-2.76,5.21-.41,6.5-.41,1.8,0,3.2-1.25,4.96-1.13,2.38.17,7.54,3.09,7.54,5.54,0,2.19.5,13.97,0,14.5Z"/>
  <path class="cls-2" d="M327,253.93c-.13.14-3.72.11-3.91-.14-.31-.42.08-1.5-.12-1.83-.16-.26-2.6,1.59-3.62,1.81-10.22,2.26-13.37-10.46-2.83-11.82,2.6-.33,10.27.96,5.01-3.05-3.57-2.72-9.41,1.12-10.53.03-.34-.33-.14-2.88.97-3.53,3.07-1.81,9.69-1.89,12.59.48.52.43,2.44,3.34,2.44,3.56,0,2.19.49,13.97,0,14.5ZM323,244.93c-.27-.25-6.53-.17-7.42.08-1.78.51-2.07,4.43-1.56,4.89.22.19,3.74,1.13,4.45,1.08.81-.06,3-1,3.55-1.53,1.09-1.05,1.41-4.12.98-4.52Z"/>
  <path class="cls-2" d="M605.19,237.11c.74-.78,6.14-3.13,7.35-3.22,2.2-.16,7.77,2.13,8.96,4.04,3.98,6.43.82,15.12-7.01,15.98-7.1.78-12.95-5.12-11.32-12.33.11-.47,1.86-4.3,2.03-4.48ZM617.86,239.07c-.25-.25-2.77-1.08-3.36-1.14-10.27-1.01-10.25,13.02,0,11.99,3.7-.37,4.72-2.91,4.57-6.51-.04-.96-.71-3.84-1.21-4.34Z"/>
  <path class="cls-2" d="M588.66,234.08c3.79-.82,8.86,1.55,10.84,4.85,4.21,7.04-2.09,15.85-9.98,14.98-11.16-1.23-11.82-17.45-.86-19.83ZM586.14,239.07c-1.8,1.8-1.52,8.83.8,10.41,2.5,1.7,8.13.32,9.58-2.52,1.28-2.5-.12-7.34-2.5-8.55-1.75-.9-6.65-.57-7.88.67Z"/>
  <path class="cls-2" d="M477,247.93c1.61-3.2,3.38-10.68,5.51-13,1.26-1.37,3.92-2.02,3.52.51l-10.17,23.33c-1.14,1.13-9.32,1.65-9.85,1.15-.11-.1-.11-2.9,0-3,.36-.33,8.1,1.2,8.04-3.48-.04-3.48-9.04-17.47-7.04-19.52.3-.31,3.06-.15,3.52.98,1.23,3.6,2.85,7.11,4.45,10.55.45.97.55,2.36,2.03,2.47Z"/>
  <path class="cls-2" d="M407,244.93h-14c-.43,4.76,3.55,5.59,7.52,5.02,1.89-.27,6.18-5.06,4.38,1.39-.74,2.66-6.92,2.95-9.25,2.43-2.98-.68-6.42-3.86-7.22-6.78s-.25-7.78,1.74-9.87c.74-.77,6.14-3.14,7.36-3.22,5.37-.38,11.15,5.46,9.46,11.04ZM404,242.93c.44-.42-.98-3.52-1.47-4.03-3.08-3.23-8.84-1.58-10.53,2.54-.83,2.01,1.34,1.47,2.49,1.49,1.55.03,9.16.33,9.5,0Z"/>
  <path class="cls-2" d="M495.7,234.09c9.44-1.49,15.87,11.79,6.28,18.31-12.81,8.71-23.42-15.6-6.28-18.31ZM493.6,238.03c-3.46,1.01-3.46,10.78,0,11.79,3.05.89,8.29-.18,9.27-3.52,1.78-6.03-3.59-9.93-9.27-8.27Z"/>
  <path class="cls-2" d="M511,233.93c.57-.57,3.49.09,3.92,1.58.69,2.38-.54,12.71.13,13.37.13.13,3,1.03,3.47,1.07,9.89.94,5.04-9.36,6.56-14.45.75-2.51,3.93-1.24,3.93-.07v17c0,1.25-4.33,3.02-4.48-.5-3.57,2.19-6.87,2.95-10.49.48-.59-.4-3.03-2.76-3.03-2.97,0-2.31-.55-14.95,0-15.5Z"/>
  <path class="cls-2" d="M450,229.92c.33.38-.32,3.65,0,4.01.3.33,4.64-.35,5,0,.14.14.15,3.86,0,4-.37.35-4.66-.34-5,0-.42.42-.42,11.58,0,12,.76.76,8.77-1.94,5.52,3.01-1.87,2.85-8.97.51-9.54-3.49-.29-2.03.48-11.16.02-11.51s-2.49.31-2.98-.04c-.16-.12-.16-3.83,0-3.94.49-.36,2.57.29,2.98-.04.34-.27-.32-3.61,0-4,.13-.15,3.87-.15,4,0Z"/>
  <path class="cls-1" d="M457,152.93c2.48-.81,5.22-2.52,6.66-2.84,4.11-.91,9.42-.5,4.86,3.86l-15.12,10.93c-11.18-5.73,3.56-6.3,3.6-11.95-4.34,1.41-7.87,6.05-10.64,6.86-2.59.75-6.54-.23-9.36.14-.55-2.7.71-1.66,2.01-2.45,3.24-1.97,11.43-8.97,14.31-8.44,1.92.36,3.69,1.77,3.68,3.89Z"/>
  <path class="cls-1" d="M403,46.93c-.48.15-1.44-.17-2.32.14-1.57.55-3.93,3.31-5.33,3.71-1,.29-7.09.4-7.36.14-.89-.85.49-3.07,1.48-4.02,3.27-3.17,9.67-5.53,13.17-8.89.73-.22,5.86,1.54,6.36,1.91,1.94,1.46-.81,1.79-1.31,2.16-1.15.85-3.62,2.04-4.24,2.82s-.28,1.57-.45,2.01c3.31-1.07,6.18-4.28,8.66-4.84,1.21-.27,8.02-.43,8.34-.16,1.37,1.17-1.71,2.72-2.31,3.18-1.26.96-9.56,6.46-10.32,6.68-4.68,1.37-6.01-.66-4.37-4.86Z"/>
  <path class="cls-2" d="M535,234.93c.66-.66,3.27.91,4.33.83,3.27-.26,6.57-4.93,5.7,1.66-.11.79-4.4.73-5.58,2.47-2.33,3.45,3.01,15.07-4.45,14.05.5-2.68-.67-18.33,0-19Z"/>
  <path class="cls-2" d="M439,234.93v18c0,.15-3,.15-3,0v-18c0-.15,2.37.1,3,0Z"/>
  <path class="cls-2" d="M440,226.93c.15.14.15,3.86,0,4-.18.17-4.82.17-5,0-.15-.14-.15-3.86,0-4,.18-.17,4.82-.17,5,0Z"/>
  <path class="cls-1" d="M436,86.93c-.42-.4-.11-2.68,1-3.5,4.95-3.64,17.35-7.4,23.52-8.48,1.26-.22,2.65.13,3.96-.04,1.97-.26,8.56-2.67,9.52.52,1.25,4.16-7.72,3.26-9.47,3.52-6.33.95-14.51,3.26-20.56,5.44-1.59.57-6.5,3.96-7.96,2.54Z"/>
  <path class="cls-1" d="M465.71,88.14c1.81-.19,9.3-1.09,8.28,2.28-.8,2.66-13.23,2.94-16.46,3.54-2.6.48-6.25,1.42-8.79,2.21-3.7,1.15-6.61,3.27-9.7,4.31-3.34,1.12-4.31-3.02-1.43-4.44,2.96-.65,5.58-2.69,8.35-3.65,5.4-1.87,14.05-3.66,19.75-4.25Z"/>
  <path class="cls-1" d="M459,102.93c.12.12.12,2.76-.06,3.44-.43,1.6-9.84,3.38-11.96,4.04-2.74.84-5.29,2.4-7.94,3.07-1.34.34-2.59.41-3.03-1.05-.68-2.27-.24-1.99,1.3-2.67s3.11-1.72,4.68-2.35c2.35-.93,16.22-5.28,17.01-4.48Z"/>
  <path class="cls-3" d="M394,69.93v35c-2.47.62-1.6-.6-2.17-1.31-1.16-1.47-3.52-4.75-5.32-4.74-3.04,0-4.53,4-7.51,4.05v-36l15,3Z"/>
</svg>