<?xml version="1.0" encoding="UTF-8"?>
<svg id="Layer_1" data-name="Layer 1" xmlns="http://www.w3.org/2000/svg" viewBox="0 0 1162 198.09">
  <defs>
    <style>
      .cls-1 {
        fill: #293234;
      }

      .cls-2 {
        fill: #b14538;
      }
    </style>
  </defs>
  <path class="cls-1" d="M0,57.93c4.68.79,17.29-1.48,20.58.92l20.92,35.09c3.45-3.93,19.89-36.01,22-36.01h17.5c.07,1.96-1.28,3.65-2.2,5.3-3.65,6.53-28.8,44.44-28.8,47.2v28.5h-19v-29.5L0,58.93v-1Z"/>
  <path class="cls-2" d="M1162,114.93v11c-2.43,1.26-2.65,4.1-4.45,6.05-8.8,9.53-28.75,9.13-40.4,6.3-2.53-.61-11.11-3.05-11.15-5.81-.01-.75,4.96-11.51,5.6-11.62,1.88-.31,6.18,2.7,8.6,3.38,5.2,1.47,22.59,4.27,24.4-2.27,2.01-7.26-16.15-7.2-20.82-8.31-22.76-5.41-22.37-29.27-1.56-36,6.51-2.11,33.86-2.62,37.35,3.24.68,1.14-5,12.84-6.05,12.92-.59.05-8.09-3.41-11.13-3.77s-8.93-.52-11.83-.05c-5.35.87-8.57,6.69-2.56,9.44,10.78,4.93,27.95.42,34,15.5Z"/>
  <path class="cls-2" d="M671,57.93l1,81h-18v-47l-23.49,38.01c-1.99,1.77-7.78,1.61-9.55-.48l-22.96-36.54v46h-18V57.93h15.5c4.77,5.09,27.22,48.3,30.01,49,1.38.34,1.72-.83,2.33-1.66,4.2-5.15,25.89-47.34,28.66-47.34h14.5Z"/>
  <path class="cls-1" d="M364.01,64.94c1.99-1.95-4.35-10.16,4.48-11,11.49-1.09,32.46,3.21,43.19,7.82,3.24,1.39,13.11,8.12,14.82,8.12s13.26-7.71,16.81-9.13c10.81-4.34,24.53-6.39,36.15-6.84,15.73-.61,6.75,7.03,8.97,10.08,1.67,2.31,8.47-1.26,9.55,4.48l-.49,67.45c-2.21,5.01-13.99,2.57-18.96,3.04-13.87,1.3-29.52,5.08-42.21,10.79-3.56,1.6-3.21,3.96-8.78,4.27-7.24.4-6.66-2.4-11.53-4.57-11.03-4.9-26.52-9.46-38.51-10.49-5.86-.5-20.72,2.68-21.54-4.46l.06-67.06c-.06-4.21,7.3-1.8,8.01-2.49ZM424,140.93v-64.5c0-10.32-46.24-19.94-55-17.5v67c0,.57,9.48-.11,11.38.12,14.95,1.8,30.66,7.41,43.62,14.88ZM429,76.43v64.5c4.86-2.12,9.35-5.22,14.3-7.2,9.73-3.88,21.88-6.46,32.32-7.68,1.8-.21,8.08.17,8.37-.14,1.43-1.5.12-11.43.21-13.5.59-14.61,2.57-35.87.85-50.05-.59-4.9-5.18-3.72-9.59-3.49-9.4.49-44.14,6.8-46.45,17.54Z"/>
  <path class="cls-2" d="M1022,134.43c-2.77,24.63-24.91,30.79-46.4,27.4-3.26-.51-17.58-4.71-18.51-7.56-.62-1.91,5.65-13.25,6.4-13.31.36-.03,4.61,3.11,6.23,3.75,13.77,5.38,35,5.71,34.31-14.26-.12-3.52-4.21,1.69-6.33,2.69-17.55,8.28-42.08-1.58-44.59-21.82-3.75-30.25,27.68-45.64,50.88-28.39-.24-1.43-.03-6,1.51-6h16.5c-1.49,18.25,2.01,39.63,0,57.5ZM982.73,91.17c-15.28,2.83-15.55,26.19-.79,29.32,29.27,6.2,29.45-34.63.79-29.32Z"/>
  <path class="cls-1" d="M103.76,76.19c23.87-3.25,43.82,10.86,41.23,36.23-4,39.21-74.28,37.61-67.9-10.9,1.63-12.43,14.57-23.68,26.67-25.33ZM122.66,95.27c-8.93-8.95-25.21-4.28-27.42,8.4-4.69,26.89,33.23,28.91,31.77,2.8-.18-3.27-2.04-8.88-4.35-11.2Z"/>
  <path class="cls-2" d="M941,138.93h-17c-.35,0,.67-6.18-.5-7-7.27,9.55-22.81,10.33-32.82,4.81-12.54-6.9-12.97-24.65.31-31.33,3.38-1.7,13-3.49,16.51-3.49h14.5c.5-12.09-11.82-13.08-21.2-10.7-2.7.68-9.75,4.65-10.32,4.6-.77-.06-6.98-11.49-6.06-12.91.57-.89,5.87-3.18,7.32-3.74,13.86-5.34,38.44-5.9,46.08,9.44,1.06,2.13,3.18,8.83,3.18,10.82v39.5ZM923,112.93c-.62-.62-15.04,0-17.5,0-2.27,0-5.84,3.32-6.32,5.74-2.55,12.69,21,11.73,23.61.55.26-1.09.45-6.05.21-6.29Z"/>
  <path class="cls-2" d="M1099,112.93h-46c.15,11.41,13.43,13.19,22.41,11.91,4.1-.58,8.87-5.3,10.99-4.99.67.1,7.35,9.07,8.55,10.47-24.69,23.34-71.27,3.28-59.43-33.37,11.48-35.52,71.86-23.61,63.47,15.97ZM1082,102.93c-.16-18.46-29.15-18.07-30,0h30Z"/>
  <path class="cls-2" d="M750,112.93h-46c.14,11.57,13.27,13.22,22.41,11.91,3.54-.5,9.03-4.97,9.95-4.81s9.82,9.21,9.6,10.29c-.31,1.47-8.85,6.64-10.71,7.35-19.31,7.41-47.32-1.55-50.13-24.35-6.13-49.65,71.63-50.06,64.89-.39ZM733,102.93c-.73-18.18-29.27-18.18-30,0h30Z"/>
  <path class="cls-1" d="M175,76.93v37.5c0,.35,2.06,4.79,2.54,5.46,4.04,5.65,15.13,5.6,19.88.96,1.41-1.38,4.58-7.74,4.58-9.42v-34.5h18v62h-17c-.35,0,.26-6.07,0-7-9.33,10.63-30.81,10.88-40.01.23-1.5-1.74-5.98-10.81-5.98-12.73v-42.5h18Z"/>
  <path class="cls-1" d="M415.01,173.94l9.45,2.03c6.64-.77,23.34,1.95,28-3.08,1.13-1.22,1.41-3.32,3.03-4.97,1.11-1.13,17.48-13.02,18.54-13.45,4.41-1.8,10.38-.68,7.02,5.01-1.78,3.01-15.78,16.67-19.14,18.84-4.61,2.98-28.04,14.57-32.39,14.6-8.64.06-23.79-7.51-33.27-8.74-3.19-.41-9.25.8-10.76-.17-.84-.54-11.97-13.67-12.93-15.14-.78-1.18-1.87-2.89-1.63-4.31.29-1.75,15.09-9.65,18.03-10.19,17.74-3.24,21.8,5.89,34.78,8.31,5.18.97,23.12-.5,26.28,2.71,2.67,2.7.86,6.52-2.74,7.3-3.23.7-11.81,1.06-15.74,1.26-5.47.29-11.06-.31-16.54-.03Z"/>
  <path class="cls-1" d="M439.5,30.93c.34-.09,1.53-1.36,1.5-1.99-8.08.58-29.22-4.38-34.56,1.93-1.61,1.9-1.67,3.87-3.93,6.07-2.59,2.51-16.76,11.33-19.98,11-9.18-.93,2.98-11.24,5.46-13.52,6.01-5.51,32.29-23.08,39.49-23.32,8.73-.28,20.83,3.19,30.03,3.82,2.82.19,10.15-1,10.91-.82,1.28.3,16.64,18.68,15.45,20.7-13.51,11.18-23.77,16.31-41.67,11.43-4-1.09-8.09-3.77-12.18-4.82-5.46-1.41-17.92-.96-21.04-3.95-2.3-2.21.14-6.53,1.52-6.53,6.53,0,24.06,1.26,29,0Z"/>
  <path class="cls-2" d="M776.28,92.19c-4.47,4.86,2.78,7.42,6.52,8.44,11.1,3.02,29.04,1.42,30.23,17.82,1.34,18.54-20.35,22.45-34.57,21.52-3.71-.24-19.27-3.26-21.03-6.02-1.1-1.73,3.47-12.42,5.22-12.94s6.18,2.56,8.55,3.22c4.42,1.23,21.25,3.51,23.62-.47,3.41-5.72-3.79-7.52-7.77-8.39-9.12-1.99-26.28-1.86-28.82-14.17-4.54-22.01,19.54-26.83,36.15-25.15,2.52.26,16.36,3.2,16.52,5.36.05.7-5.77,12.34-6.46,12.49-.61.14-8.58-3.62-11.95-3.96-3.75-.38-13.66-.53-16.21,2.25Z"/>
  <path class="cls-2" d="M866.99,93.93c-.49.37-9.19-3.6-11.57-3.92-4.68-.62-23.44-1.1-17.94,7.94,3.17,5.22,33.89,1.25,36.46,17.54,4.59,29.16-38.61,28.02-55.93,18.42,1.14-1.74,4.47-12.55,5.04-12.96,1.2-.87,8.65,3.13,10.76,3.68,4.93,1.28,29.39,3.44,22.28-6.28-4.73-6.46-34.87.02-36.86-20.22-1.31-13.29,11.61-21.02,23.29-22.2,4.45-.45,28.33.77,29.41,5.59.15.65-4.4,12-4.94,12.4Z"/>
  <path class="cls-1" d="M276,75.93v15.5c0,2.22-4.6.46-6.21.69-5.62.78-14.79,6.01-14.79,12.31v34.5h-18v-62h17c.35,0-.67,6.19.5,7,5.28-6.13,13.54-8.6,21.5-8Z"/>
  <path class="cls-1" d="M368.2,197.72c-2.6-6.33-19.2-21.11-20.22-26.36-.15-.77-.2-1.53.22-2.25.37-.64,11.62-8.15,12.35-8.23,1.17-.13,2.2.06,2.94,1.08,2.24,5.88,18.46,20.24,19.37,24.72.41,2.02-7.53,9.27-9.29,10.3s-3.42,1.5-5.36.73Z"/>
  <path class="cls-1" d="M505.81,26.76c-.51.87-12.98,9.36-14.1,9.07-3.23-.83-15.62-19.51-19.76-22.34-.79-.8-1.23-1.8-.89-2.92.25-.81,12.47-10.7,13.3-10.56,2.5.43,17.12,19.7,20.69,22.37.92,1.13,1.5,3.12.76,4.38Z"/>
  <path class="cls-1" d="M471.99,153.91c-4.61,1-14.05,11.6-17.66,11.94-.71.07-5.41-3.5-3.71-5s13.04-9.33,14.87-9.98c2.95-1.04,6.21-.74,6.5,3.05Z"/>
  <path class="cls-1" d="M405,46.93c-.98.33-2.23.08-3.71.75-2.36,1.07-3.63,3.93-6.88,4.25-2.92.29-7.09-.73-4.95-4.04.49-.76,14.37-9.71,15.27-9.84.97-.14,5.1,1.68,5.25,1.91.65.95-1.43,3.12-1.98,3.97-3.56,1.36-1.69.82-3,3Z"/>
  <path class="cls-1" d="M408,43.93c2.32-.89,11.54-3.33,12.99-1.99,1.71,1.56-10.64,9.64-12.56,9.97-6.1,1.04-5.79-1.06-3.44-4.98,3.71-1.25,1.81-1.17,3-3Z"/>
  <path class="cls-1" d="M458,150.95c1.48,2.2-7.49,8.52-9.25,9.23-3.21,1.29-13.18,2.32-8.08-2.08,2.26-1.95,11.28-8.15,13.74-8.12.51,0,3.48.81,3.59.96Z"/>
  <path class="cls-1" d="M438.01,100.93c-.13-.14-.19-3.2.17-3.83,1.84-3.16,28.89-8.85,33.63-8.95,4.09-.09,4.3,3.7,1.5,4.59-4.72,1.5-12.46,1.31-17.55,2.45-2.68.6-17.12,6.43-17.75,5.74Z"/>
  <path class="cls-1" d="M475,74.94c.14.14.14,3.85,0,3.99-.47.47-10.82.8-13.23,1.27-3.66.72-22.89,7.6-23.77,6.72-3.18-3.17,10.34-7.67,12.21-8.28,3.6-1.16,22.99-5.6,24.79-3.71Z"/>
  <path class="cls-1" d="M461,103.94c.13.14.15,3.56-.12,3.89-.78.96-20.91,5.59-23.88,6.1-.35-1.78.87-2.49,2.06-3.43,2.58-2.05,20.27-8.3,21.94-6.56Z"/>
  <path class="cls-2" d="M396,105.93c-1.74,1.97-6.17-6.67-7.62-6.92-2.13-.37-5.74,5.15-8.38,4.92v-36c2.49-.38,16,1.1,16,3.5,0,4.69,1.14,33.21,0,34.5Z"/>
</svg>